<svg width="164" height="164" viewBox="0 0 164 164" fill="none" xmlns="http://www.w3.org/2000/svg">
<mask id="path-1-inside-1_337_15866" fill="white">
<path fill-rule="evenodd" clip-rule="evenodd" d="M86.2597 34.7101C92.4288 40.8792 95.9245 48.7095 96.7466 56.7611C99.283 45.992 106.383 40.2221 112.675 35.1086C114.381 33.7225 116.028 32.3846 117.508 31.0084C121.339 27.4458 124.409 20.7169 126.552 14.398C127.596 11.321 128.374 8.48634 128.891 6.42024C129.149 5.38883 129.34 4.55314 129.467 3.97956C129.53 3.69289 129.577 3.47199 129.607 3.32519C129.622 3.25181 129.634 3.19697 129.641 3.16172L129.648 3.12372L129.65 3.11597C129.861 2.04318 130.639 1.1701 131.681 0.837358C132.722 0.504636 133.862 0.764868 134.656 1.51656L134.82 1.67573C134.915 1.76859 135.047 1.90066 135.212 2.06981C135.541 2.40791 136.002 2.89537 136.549 3.51508C137.641 4.75147 139.094 6.53037 140.544 8.71398C143.219 12.7406 146.079 18.4289 146.361 24.7785C146.849 25.2843 147.498 25.9859 148.233 26.8553C149.798 28.7066 151.795 31.3668 153.457 34.5599C156.533 40.4735 158.672 48.7211 154.023 56.8695C154.513 57.6214 155.101 58.5966 155.712 59.7689C157.216 62.6589 158.885 66.8098 159.484 71.8086C160.71 82.0498 157.357 95.1392 140.937 107.672C140.916 107.687 140.895 107.703 140.874 107.718C140.843 107.74 140.812 107.762 140.781 107.783L161.22 130.32C162.433 131.658 163.275 133.297 163.388 135.099C163.67 139.627 163.232 148.874 156.234 155.871C149.289 162.817 139.937 163.49 135.268 163.326C133.363 163.259 131.612 162.395 130.2 161.113L107.781 140.783C107.746 140.835 107.709 140.887 107.67 140.938C95.1378 157.359 82.0484 160.712 71.8072 159.485C66.8084 158.886 62.6575 157.218 59.7675 155.713C58.5952 155.103 57.62 154.514 56.8681 154.024C48.7197 158.673 40.4721 156.535 34.5585 153.458C31.3654 151.797 28.7052 149.8 26.8539 148.234C25.9845 147.499 25.2829 146.85 24.7771 146.362C18.4275 146.081 12.7392 143.221 8.71258 140.546C6.52897 139.095 4.75005 137.643 3.51367 136.551C2.89397 136.003 2.4065 135.543 2.0684 135.213C1.89925 135.048 1.76718 134.916 1.67433 134.822L1.51516 134.658C0.763459 133.864 0.503229 132.723 0.83596 131.682C1.16869 130.64 2.04178 129.862 3.11456 129.651L3.12231 129.65L3.16033 129.642C3.19557 129.635 3.25041 129.624 3.32379 129.609C3.47058 129.578 3.69148 129.531 3.97817 129.468C4.55174 129.342 5.38744 129.15 6.41884 128.892C8.48493 128.376 11.3196 127.598 14.3966 126.554C20.7155 124.41 27.4444 121.34 31.007 117.509C32.383 116.029 33.7208 114.383 35.1068 112.677C40.2203 106.385 45.9905 99.2844 56.7596 96.7481C48.708 95.9259 40.8778 92.4302 34.7086 86.2611C20.4732 72.0257 20.4732 48.9455 34.7086 34.7101C48.9441 20.4746 72.0243 20.4747 86.2597 34.7101ZM136.794 103.386L101.791 64.7888C102.045 51.6891 108.477 46.3969 115.898 40.2923C117.761 38.7592 119.687 37.1745 121.593 35.4023C126.619 30.7292 130.071 22.703 132.234 16.3257C133.01 14.0393 133.645 11.8861 134.144 10.0523C134.601 10.6602 135.074 11.3231 135.547 12.034C138.122 15.911 140.448 20.8901 140.382 26.0082C140.334 29.7698 138.996 33.8141 135.082 37.8097C126.797 46.2675 121.935 53.5793 119.129 58.8528C117.727 61.488 116.841 63.6091 116.299 65.1037C116.028 65.8508 115.843 66.4408 115.722 66.8596C115.662 67.069 115.618 67.2356 115.587 67.3575L115.532 67.5879C115.177 69.2063 116.202 70.8058 117.82 71.1604C119.434 71.5139 121.029 70.4963 121.39 68.8859L121.39 68.8842L121.396 68.8603L121.404 68.8289C121.418 68.7699 121.446 68.6666 121.488 68.5209C121.572 68.2295 121.715 67.7681 121.939 67.1502C122.387 65.9147 123.159 64.0519 124.426 61.671C126.958 56.9123 131.477 50.0638 139.369 42.0084C142.289 39.0272 144.173 35.897 145.245 32.7428C146.224 34.065 147.243 35.6169 148.134 37.3292C150.928 42.6998 152.222 49.073 148.021 55.1495L147.926 55.2656C147.871 55.3331 147.803 55.4159 147.724 55.5132C147.642 55.614 147.548 55.7304 147.442 55.8615C147.027 56.3766 146.435 57.1193 145.72 58.0379C144.292 59.8731 142.367 62.4207 140.386 65.2641C138.41 68.1007 136.35 71.2707 134.669 74.3453C133.02 77.3602 131.599 80.5234 131.101 83.291C130.808 84.9218 131.893 86.4814 133.523 86.7745C135.154 87.0676 136.714 85.9833 137.007 84.3526C137.327 82.5686 138.361 80.0986 139.933 77.2242C141.472 74.4095 143.4 71.434 145.309 68.694C147.08 66.1515 148.812 63.8454 150.159 62.1045L150.204 62.1878C150.23 62.2374 150.257 62.2875 150.284 62.338C150.319 62.4044 150.354 62.4716 150.39 62.5397C151.659 64.977 153.036 68.4268 153.526 72.522C154.478 80.4689 152.182 91.5409 137.296 102.902C137.107 103.047 136.939 103.21 136.794 103.386ZM64.7874 101.792L103.385 136.796C103.208 136.941 103.045 137.108 102.9 137.298C91.5395 152.184 80.4675 154.479 72.5206 153.528C68.4254 153.037 64.9756 151.66 62.5383 150.391C62.3892 150.314 62.2441 150.236 62.1031 150.16C63.844 148.813 66.1501 147.082 68.6926 145.31C71.4326 143.401 74.4081 141.473 77.2228 139.934C80.0972 138.362 82.5672 137.329 84.3512 137.008C85.9819 136.715 87.0662 135.155 86.7731 133.525C86.4799 131.894 84.9203 130.81 83.2896 131.103C80.5219 131.6 77.3588 133.021 74.3439 134.67C71.2693 136.351 68.0993 138.411 65.2627 140.387C62.4193 142.368 59.8717 144.293 58.0365 145.721C57.1179 146.436 56.3751 147.028 55.8601 147.444C55.6025 147.651 55.4017 147.815 55.2642 147.927L55.1481 148.023C49.0716 152.224 42.6984 150.929 37.3278 148.135C35.6155 147.244 34.0636 146.225 32.7415 145.247C35.8956 144.174 39.0258 142.29 42.007 139.37C50.0624 131.479 56.9109 126.959 61.6696 124.427C64.0505 123.161 65.9133 122.389 67.1488 121.941C67.7666 121.716 68.2281 121.573 68.5195 121.489C68.6652 121.447 68.7685 121.42 68.8275 121.405C68.8571 121.397 68.8755 121.393 68.8828 121.391L68.8845 121.391C70.4949 121.03 71.5125 119.435 71.159 117.822C70.8044 116.203 69.2049 115.178 67.5864 115.533L67.3561 115.588C67.2342 115.619 67.0676 115.663 66.8582 115.724C66.4394 115.844 65.8493 116.029 65.1023 116.3C63.6077 116.843 61.4866 117.729 58.8514 119.131C53.5779 121.936 46.2661 126.798 37.8083 135.084C33.8127 138.998 29.7684 140.335 26.0068 140.384C20.8887 140.449 15.9096 138.124 12.0326 135.548C11.3217 135.076 10.6588 134.602 10.0509 134.145C11.8847 133.647 14.0379 133.011 16.3242 132.236C22.7016 130.072 30.7278 126.62 35.4009 121.595C37.1731 119.689 38.7577 117.763 40.2909 115.899C46.3955 108.479 51.6877 102.046 64.7874 101.792ZM79.1886 79.1901C89.5188 68.8599 89.5188 52.1113 79.1886 41.7811C68.8584 31.4509 52.1099 31.451 41.7797 41.7811C31.4495 52.1113 31.4495 68.8599 41.7797 79.19C52.1099 89.5202 68.8584 89.5202 79.1886 79.1901ZM134.193 157.929C134.387 158.106 134.629 158.221 134.887 158.258C134.924 158.263 134.961 158.267 134.999 158.269C136.256 158.333 138.033 158.335 140.061 158.081C144.161 157.566 148.917 156.059 152.67 152.306C156.408 148.567 157.822 143.927 158.252 139.965C158.465 137.998 158.425 136.28 158.332 135.067C158.309 134.76 158.18 134.472 157.973 134.244L109.721 81.0377C104.746 75.5523 95.5054 77.1931 90.8376 82.9417C89.6749 84.3736 88.4265 85.76 87.0927 87.0938C85.7589 88.4276 84.3723 89.6761 82.9404 90.8388C77.1917 95.5067 75.5509 104.748 81.0363 109.722L134.193 157.929ZM46.0532 54.4128C47.0793 53.094 46.842 51.1931 45.5232 50.167C44.2044 49.1409 42.3035 49.3782 41.2774 50.697C39.6483 52.7908 38.5378 55.2404 38.0367 57.8455C37.5355 60.4507 37.658 63.1374 38.394 65.6862C39.1299 68.235 40.4586 70.5734 42.2714 72.5104C44.0841 74.4473 46.3295 75.9279 48.8239 76.831C50.3951 77.3998 52.1299 76.5872 52.6987 75.016C53.2675 73.4449 52.455 71.7101 50.8838 71.1412C49.2871 70.5632 47.8498 69.6155 46.6895 68.3756C45.5291 67.1358 44.6786 65.6389 44.2075 64.0074C43.7364 62.376 43.6581 60.6562 43.9789 58.9886C44.2996 57.3211 45.0105 55.7531 46.0532 54.4128Z"/>
</mask>
<path fill-rule="evenodd" clip-rule="evenodd" d="M86.2597 34.7101C92.4288 40.8792 95.9245 48.7095 96.7466 56.7611C99.283 45.992 106.383 40.2221 112.675 35.1086C114.381 33.7225 116.028 32.3846 117.508 31.0084C121.339 27.4458 124.409 20.7169 126.552 14.398C127.596 11.321 128.374 8.48634 128.891 6.42024C129.149 5.38883 129.34 4.55314 129.467 3.97956C129.53 3.69289 129.577 3.47199 129.607 3.32519C129.622 3.25181 129.634 3.19697 129.641 3.16172L129.648 3.12372L129.65 3.11597C129.861 2.04318 130.639 1.1701 131.681 0.837358C132.722 0.504636 133.862 0.764868 134.656 1.51656L134.82 1.67573C134.915 1.76859 135.047 1.90066 135.212 2.06981C135.541 2.40791 136.002 2.89537 136.549 3.51508C137.641 4.75147 139.094 6.53037 140.544 8.71398C143.219 12.7406 146.079 18.4289 146.361 24.7785C146.849 25.2843 147.498 25.9859 148.233 26.8553C149.798 28.7066 151.795 31.3668 153.457 34.5599C156.533 40.4735 158.672 48.7211 154.023 56.8695C154.513 57.6214 155.101 58.5966 155.712 59.7689C157.216 62.6589 158.885 66.8098 159.484 71.8086C160.71 82.0498 157.357 95.1392 140.937 107.672C140.916 107.687 140.895 107.703 140.874 107.718C140.843 107.74 140.812 107.762 140.781 107.783L161.22 130.32C162.433 131.658 163.275 133.297 163.388 135.099C163.67 139.627 163.232 148.874 156.234 155.871C149.289 162.817 139.937 163.49 135.268 163.326C133.363 163.259 131.612 162.395 130.2 161.113L107.781 140.783C107.746 140.835 107.709 140.887 107.67 140.938C95.1378 157.359 82.0484 160.712 71.8072 159.485C66.8084 158.886 62.6575 157.218 59.7675 155.713C58.5952 155.103 57.62 154.514 56.8681 154.024C48.7197 158.673 40.4721 156.535 34.5585 153.458C31.3654 151.797 28.7052 149.8 26.8539 148.234C25.9845 147.499 25.2829 146.85 24.7771 146.362C18.4275 146.081 12.7392 143.221 8.71258 140.546C6.52897 139.095 4.75005 137.643 3.51367 136.551C2.89397 136.003 2.4065 135.543 2.0684 135.213C1.89925 135.048 1.76718 134.916 1.67433 134.822L1.51516 134.658C0.763459 133.864 0.503229 132.723 0.83596 131.682C1.16869 130.64 2.04178 129.862 3.11456 129.651L3.12231 129.65L3.16033 129.642C3.19557 129.635 3.25041 129.624 3.32379 129.609C3.47058 129.578 3.69148 129.531 3.97817 129.468C4.55174 129.342 5.38744 129.15 6.41884 128.892C8.48493 128.376 11.3196 127.598 14.3966 126.554C20.7155 124.41 27.4444 121.34 31.007 117.509C32.383 116.029 33.7208 114.383 35.1068 112.677C40.2203 106.385 45.9905 99.2844 56.7596 96.7481C48.708 95.9259 40.8778 92.4302 34.7086 86.2611C20.4732 72.0257 20.4732 48.9455 34.7086 34.7101C48.9441 20.4746 72.0243 20.4747 86.2597 34.7101ZM136.794 103.386L101.791 64.7888C102.045 51.6891 108.477 46.3969 115.898 40.2923C117.761 38.7592 119.687 37.1745 121.593 35.4023C126.619 30.7292 130.071 22.703 132.234 16.3257C133.01 14.0393 133.645 11.8861 134.144 10.0523C134.601 10.6602 135.074 11.3231 135.547 12.034C138.122 15.911 140.448 20.8901 140.382 26.0082C140.334 29.7698 138.996 33.8141 135.082 37.8097C126.797 46.2675 121.935 53.5793 119.129 58.8528C117.727 61.488 116.841 63.6091 116.299 65.1037C116.028 65.8508 115.843 66.4408 115.722 66.8596C115.662 67.069 115.618 67.2356 115.587 67.3575L115.532 67.5879C115.177 69.2063 116.202 70.8058 117.82 71.1604C119.434 71.5139 121.029 70.4963 121.39 68.8859L121.39 68.8842L121.396 68.8603L121.404 68.8289C121.418 68.7699 121.446 68.6666 121.488 68.5209C121.572 68.2295 121.715 67.7681 121.939 67.1502C122.387 65.9147 123.159 64.0519 124.426 61.671C126.958 56.9123 131.477 50.0638 139.369 42.0084C142.289 39.0272 144.173 35.897 145.245 32.7428C146.224 34.065 147.243 35.6169 148.134 37.3292C150.928 42.6998 152.222 49.073 148.021 55.1495L147.926 55.2656C147.871 55.3331 147.803 55.4159 147.724 55.5132C147.642 55.614 147.548 55.7304 147.442 55.8615C147.027 56.3766 146.435 57.1193 145.72 58.0379C144.292 59.8731 142.367 62.4207 140.386 65.2641C138.41 68.1007 136.35 71.2707 134.669 74.3453C133.02 77.3602 131.599 80.5234 131.101 83.291C130.808 84.9218 131.893 86.4814 133.523 86.7745C135.154 87.0676 136.714 85.9833 137.007 84.3526C137.327 82.5686 138.361 80.0986 139.933 77.2242C141.472 74.4095 143.4 71.434 145.309 68.694C147.08 66.1515 148.812 63.8454 150.159 62.1045L150.204 62.1878C150.23 62.2374 150.257 62.2875 150.284 62.338C150.319 62.4044 150.354 62.4716 150.39 62.5397C151.659 64.977 153.036 68.4268 153.526 72.522C154.478 80.4689 152.182 91.5409 137.296 102.902C137.107 103.047 136.939 103.21 136.794 103.386ZM64.7874 101.792L103.385 136.796C103.208 136.941 103.045 137.108 102.9 137.298C91.5395 152.184 80.4675 154.479 72.5206 153.528C68.4254 153.037 64.9756 151.66 62.5383 150.391C62.3892 150.314 62.2441 150.236 62.1031 150.16C63.844 148.813 66.1501 147.082 68.6926 145.31C71.4326 143.401 74.4081 141.473 77.2228 139.934C80.0972 138.362 82.5672 137.329 84.3512 137.008C85.9819 136.715 87.0662 135.155 86.7731 133.525C86.4799 131.894 84.9203 130.81 83.2896 131.103C80.5219 131.6 77.3588 133.021 74.3439 134.67C71.2693 136.351 68.0993 138.411 65.2627 140.387C62.4193 142.368 59.8717 144.293 58.0365 145.721C57.1179 146.436 56.3751 147.028 55.8601 147.444C55.6025 147.651 55.4017 147.815 55.2642 147.927L55.1481 148.023C49.0716 152.224 42.6984 150.929 37.3278 148.135C35.6155 147.244 34.0636 146.225 32.7415 145.247C35.8956 144.174 39.0258 142.29 42.007 139.37C50.0624 131.479 56.9109 126.959 61.6696 124.427C64.0505 123.161 65.9133 122.389 67.1488 121.941C67.7666 121.716 68.2281 121.573 68.5195 121.489C68.6652 121.447 68.7685 121.42 68.8275 121.405C68.8571 121.397 68.8755 121.393 68.8828 121.391L68.8845 121.391C70.4949 121.03 71.5125 119.435 71.159 117.822C70.8044 116.203 69.2049 115.178 67.5864 115.533L67.3561 115.588C67.2342 115.619 67.0676 115.663 66.8582 115.724C66.4394 115.844 65.8493 116.029 65.1023 116.3C63.6077 116.843 61.4866 117.729 58.8514 119.131C53.5779 121.936 46.2661 126.798 37.8083 135.084C33.8127 138.998 29.7684 140.335 26.0068 140.384C20.8887 140.449 15.9096 138.124 12.0326 135.548C11.3217 135.076 10.6588 134.602 10.0509 134.145C11.8847 133.647 14.0379 133.011 16.3242 132.236C22.7016 130.072 30.7278 126.62 35.4009 121.595C37.1731 119.689 38.7577 117.763 40.2909 115.899C46.3955 108.479 51.6877 102.046 64.7874 101.792ZM79.1886 79.1901C89.5188 68.8599 89.5188 52.1113 79.1886 41.7811C68.8584 31.4509 52.1099 31.451 41.7797 41.7811C31.4495 52.1113 31.4495 68.8599 41.7797 79.19C52.1099 89.5202 68.8584 89.5202 79.1886 79.1901ZM134.193 157.929C134.387 158.106 134.629 158.221 134.887 158.258C134.924 158.263 134.961 158.267 134.999 158.269C136.256 158.333 138.033 158.335 140.061 158.081C144.161 157.566 148.917 156.059 152.67 152.306C156.408 148.567 157.822 143.927 158.252 139.965C158.465 137.998 158.425 136.28 158.332 135.067C158.309 134.76 158.18 134.472 157.973 134.244L109.721 81.0377C104.746 75.5523 95.5054 77.1931 90.8376 82.9417C89.6749 84.3736 88.4265 85.76 87.0927 87.0938C85.7589 88.4276 84.3723 89.6761 82.9404 90.8388C77.1917 95.5067 75.5509 104.748 81.0363 109.722L134.193 157.929ZM46.0532 54.4128C47.0793 53.094 46.842 51.1931 45.5232 50.167C44.2044 49.1409 42.3035 49.3782 41.2774 50.697C39.6483 52.7908 38.5378 55.2404 38.0367 57.8455C37.5355 60.4507 37.658 63.1374 38.394 65.6862C39.1299 68.235 40.4586 70.5734 42.2714 72.5104C44.0841 74.4473 46.3295 75.9279 48.8239 76.831C50.3951 77.3998 52.1299 76.5872 52.6987 75.016C53.2675 73.4449 52.455 71.7101 50.8838 71.1412C49.2871 70.5632 47.8498 69.6155 46.6895 68.3756C45.5291 67.1358 44.6786 65.6389 44.2075 64.0074C43.7364 62.376 43.6581 60.6562 43.9789 58.9886C44.2996 57.3211 45.0105 55.7531 46.0532 54.4128Z" fill="white" stroke="white" stroke-width="0.978913" mask="url(#path-1-inside-1_337_15866)"/>
</svg>
