<svg width="420" height="214" viewBox="0 0 420 214" fill="none" xmlns="http://www.w3.org/2000/svg">
<path fill-rule="evenodd" clip-rule="evenodd" d="M128.852 55.435L127.757 55.3441H123.793L124.965 58.9132C125.216 59.6795 125.585 60.8035 126.055 62.2345C126.995 65.0966 128.339 69.1869 129.954 74.0998C133.183 83.9255 137.496 97.0417 141.83 110.203C146.164 123.365 150.52 136.572 153.835 146.58C155.493 151.584 156.891 155.79 157.897 158.791C158.399 160.291 158.805 161.492 159.096 162.343C159.241 162.768 159.36 163.11 159.448 163.36L159.449 163.362C159.502 163.512 159.57 163.704 159.631 163.853C159.88 164.517 160.338 165.344 160.835 166.151C161.365 167.011 162.011 167.962 162.678 168.874C163.345 169.784 164.05 170.677 164.701 171.415C165.303 172.096 166.008 172.819 166.663 173.211C167.236 173.554 167.778 173.863 168.175 174.086C168.375 174.197 168.539 174.288 168.653 174.351C168.711 174.383 168.756 174.407 168.787 174.424L168.824 174.444L168.836 174.451L168.837 174.451L168.838 174.452L168.85 174.458L168.863 174.465C176.43 178.398 183.168 178.386 189.335 178.374C189.667 178.374 189.996 178.373 190.325 178.373C196.85 178.373 202.169 176.991 206.038 173.979L206.063 173.961L206.086 173.941C210.002 170.675 211.893 166.115 211.893 160.511C211.893 157.846 211.305 155.358 210.111 153.078L210.093 153.044L210.074 153.01C208.86 150.912 207.154 149.215 204.999 147.921L204.892 147.857L200.638 146.033L200.496 145.997C199.72 145.803 198.674 145.565 197.367 145.284C196.16 144.912 194.721 144.447 193.048 143.889L192.876 143.831L192.697 143.809C192.091 143.733 191.02 143.484 189.408 143.01L189.351 142.993L189.293 142.98C186.619 142.38 184.808 141.657 183.705 140.896C182.649 140.167 182.419 139.544 182.419 139.033C182.419 137.654 182.897 136.743 183.82 136.066L183.871 136.028L183.919 135.987C184.659 135.361 186.167 134.844 188.894 134.844C191.597 134.844 193.507 135.409 194.811 136.341C195.442 136.838 195.923 137.427 196.27 138.117C196.866 139.362 197.704 140.396 198.825 141.11C199.953 141.828 201.248 142.147 202.63 142.147H210.251L210.175 140.249C209.966 135.036 208.067 130.694 204.43 127.375L204.406 127.353L204.382 127.332C200.792 124.284 195.828 122.89 189.752 122.89C183.336 122.89 178.145 124.218 174.453 127.151L174.441 127.162L174.428 127.172C170.714 130.233 168.899 134.453 168.899 139.606C168.899 142.429 169.392 144.916 170.496 146.964C171.412 149.29 172.997 151.092 175.194 152.325C177.169 153.681 180.713 154.816 185.476 155.845L186.397 156.076L186.705 156.23L186.924 156.279C191.153 157.219 194.159 158.268 196.066 159.371C198.018 160.499 198.374 161.404 198.374 161.943C198.374 163.405 197.861 164.343 196.875 165.021C195.785 165.771 193.973 166.275 191.183 166.275H191.053C187.633 166.276 184.192 166.276 181.965 165.603C181.62 165.499 181.222 165.388 180.782 165.265C179.402 164.882 177.614 164.384 175.779 163.618C173.401 162.625 168.865 160.972 167.88 159.371L162.678 154.956L153.835 134.844C152.456 130.679 133.221 55.7979 128.852 55.435Z" fill="#FFFAF5"/>
<path d="M233.686 136.705V177.228L247.492 177.228L247.492 136.705H261.943V124.321H226.066C224.132 124.321 222.434 125.053 221.057 126.431C219.739 127.75 219.092 129.418 219.092 131.301V136.705H233.686Z" fill="#FFFAF5"/>
<path fill-rule="evenodd" clip-rule="evenodd" d="M317.731 177.228L298.521 124.321H289.231C287.755 124.321 286.377 124.664 285.204 125.458C284.03 126.253 283.204 127.404 282.668 128.775L282.657 128.802L265.472 177.228H280.13L283.278 167.061H299.78L303.071 177.228H317.731ZM287.171 155.107L291.52 141.869L295.869 155.107H287.171Z" fill="#FFFAF5"/>
<path fill-rule="evenodd" clip-rule="evenodd" d="M328.1 131.301V177.228L341.905 177.228V158.04H350.813C353.229 158.04 354.461 158.511 355.022 159.005C355.605 159.834 356.11 161.405 356.288 164.034L356.43 169.272C356.432 169.972 356.541 171.108 356.726 172.593C356.845 173.861 357.194 175.073 357.767 176.219L358.271 177.228H377.595L371.444 173.808C371.341 173.751 370.902 173.383 370.64 171.809C370.563 171.349 370.521 170.83 370.521 170.248V168.342L370.233 162.421L370.232 162.415C370.04 158.946 369.508 156.134 368.414 154.296C367.862 153.321 367.121 152.498 366.224 151.81C367.447 150.949 368.461 149.883 369.237 148.601C370.803 146.232 371.523 143.338 371.523 140.035C371.523 135.088 370.068 131.045 366.908 128.222L366.905 128.219C363.854 125.505 359.37 124.322 353.818 124.322L335.074 124.321C333.14 124.321 331.442 125.053 330.064 126.431C328.746 127.75 328.1 129.418 328.1 131.301ZM356.391 137.603L356.445 137.657L356.503 137.706C357.203 138.298 357.717 139.323 357.717 141.181C357.717 143.039 357.203 144.064 356.503 144.656C355.737 145.305 354.34 145.8 351.957 145.8H341.905V136.419L352.53 136.419C354.538 136.419 355.709 136.92 356.391 137.603Z" fill="#FFFAF5"/>
<path d="M174.769 88.7392V55.3442L167.664 55.3442C165.638 55.3442 163.893 56.1822 162.505 57.698L162.502 57.7008L162.499 57.7035C161.213 59.1196 160.558 60.831 160.558 62.7488L160.558 89.9139C160.558 96.5071 162.416 101.802 166.402 105.476C170.106 109.163 175.645 110.828 182.63 110.828C189.615 110.828 195.154 109.163 198.858 105.476C202.844 101.802 204.702 96.5071 204.702 89.9139V55.3442L190.637 55.3442L190.637 88.7392C190.637 92.5743 189.879 94.9037 188.768 96.1699C187.562 97.4351 185.631 98.2209 182.63 98.2209C179.52 98.2209 177.637 97.4304 176.545 96.2296C175.469 94.8364 174.769 92.4527 174.769 88.7392Z" fill="#FFFAF5"/>
<path d="M210.475 62.602V109.653H249.19V96.6057H224.54L224.54 55.491H217.581C215.61 55.491 213.88 56.2359 212.476 57.6407C211.134 58.9842 210.475 60.6822 210.475 62.602Z" fill="#FFFAF5"/>
<path d="M258.367 68.0978V109.653H272.432V68.0978L287.252 68.0978V55.491L250.507 55.491C248.536 55.491 246.806 56.2359 245.402 57.6407C244.06 58.9842 243.401 60.6822 243.401 62.602V68.0977L258.367 68.0978Z" fill="#FFFAF5"/>
<path fill-rule="evenodd" clip-rule="evenodd" d="M293.025 62.602V109.653H307.089V89.9766H316.271C318.757 89.9766 320.035 90.4618 320.622 90.9809C321.229 91.8404 321.748 93.4638 321.932 96.1672L322.077 101.541C322.08 102.255 322.191 103.418 322.381 104.942C322.503 106.236 322.859 107.474 323.443 108.644L323.947 109.653H358.435L361.663 99.2274H378.668L402.619 170.861C404.112 175.326 408.29 178.336 412.994 178.336H420L377.315 55.4911H367.802C366.295 55.4911 364.892 55.8408 363.699 56.6487C362.504 57.4578 361.662 58.6294 361.115 60.0282L361.104 60.0551L343.512 109.628L337.405 106.233C337.281 106.164 336.827 105.768 336.557 104.151C336.478 103.676 336.435 103.141 336.435 102.542V100.589L336.139 94.5177L336.139 94.5115C335.942 90.9562 335.396 88.0823 334.281 86.2074C333.708 85.1952 332.935 84.3421 331.996 83.632C333.269 82.7462 334.323 81.6452 335.126 80.3178C336.726 77.8978 337.462 74.939 337.462 71.5591C337.462 66.4952 335.973 62.3634 332.745 59.4788L332.742 59.4761C329.625 56.7036 325.041 55.491 319.352 55.491L300.13 55.491C298.16 55.491 296.43 56.2359 295.026 57.6407C293.684 58.9842 293.025 60.6822 293.025 62.602ZM322.024 69.0317L322.078 69.0854L322.136 69.1344C322.867 69.7538 323.398 70.8202 323.398 72.7338C323.398 74.6475 322.867 75.7139 322.136 76.3333C321.338 77.0086 319.893 77.5168 317.444 77.5168H307.089V67.8041H318.031C320.098 67.8041 321.313 68.3199 322.024 69.0317ZM365.625 87.0612L370.15 73.2904L374.674 87.0612L365.625 87.0612Z" fill="#FFFAF5"/>
<path d="M217.612 213.756V192.522H225.984C227.593 192.522 228.964 192.829 230.097 193.445C231.229 194.053 232.093 194.9 232.687 195.985C233.288 197.063 233.588 198.307 233.588 199.717C233.588 201.127 233.284 202.372 232.676 203.45C232.069 204.528 231.188 205.368 230.035 205.969C228.888 206.571 227.5 206.871 225.87 206.871H220.534V203.274H225.144C226.008 203.274 226.719 203.125 227.279 202.828C227.845 202.524 228.266 202.105 228.543 201.573C228.826 201.034 228.967 200.415 228.967 199.717C228.967 199.012 228.826 198.397 228.543 197.872C228.266 197.34 227.845 196.928 227.279 196.638C226.712 196.341 225.994 196.192 225.124 196.192H222.098V213.756H217.612Z" fill="#FFFAF5"/>
<path d="M251.819 213.756V192.522H256.305V210.054H265.402V213.756H251.819Z" fill="#FFFAF5"/>
<path d="M287.888 213.756H283.081L290.406 192.522H296.187L303.501 213.756H298.694L293.379 197.374H293.213L287.888 213.756ZM287.587 205.409H298.943V208.914H287.587V205.409Z" fill="#FFFAF5"/>
<path d="M317.963 192.522H322.988L327.826 201.667H328.034L332.872 192.522H337.897L330.158 206.249V213.756H325.703V206.249L317.963 192.522Z" fill="#FFFAF5"/>
<path d="M83.125 28.1439C84.7873 27.2844 85.4385 25.239 84.5796 23.5756C83.7207 21.9121 81.6769 21.2604 80.0147 22.1199C77.3756 23.4846 75.0967 25.4548 73.3642 27.8695C71.6317 30.2843 70.4948 33.0751 70.0463 36.0137C69.5979 38.9524 69.8507 41.9555 70.784 44.7777C71.7174 47.5999 73.3048 50.161 75.4166 52.2517C76.7467 53.5685 78.8917 53.557 80.2076 52.2259C81.5234 50.8948 81.5119 48.7482 80.1818 47.4313C78.83 46.0931 77.8139 44.4537 77.2165 42.6472C76.619 40.8407 76.4572 38.9184 76.7443 37.0373C77.0313 35.1563 77.7591 33.3699 78.8681 31.8242C79.977 30.2785 81.4358 29.0174 83.125 28.1439Z" fill="#FFFAF5"/>
<path fill-rule="evenodd" clip-rule="evenodd" d="M133.247 26.9907C136.622 36.165 136.499 45.7731 133.555 54.3503C141.189 44.5865 151.115 42.0527 159.913 39.8072L159.913 39.8071C162.297 39.1984 164.599 38.6109 166.75 37.9062C172.317 36.0821 178.597 30.6791 183.742 25.2581C186.248 22.6183 188.37 20.1 189.865 18.2409C190.611 17.3128 191.198 16.5527 191.596 16.0286C191.795 15.7667 191.946 15.5639 192.046 15.429C192.096 15.3615 192.133 15.311 192.157 15.2784L192.183 15.2434L192.188 15.2362C192.906 14.244 194.107 13.7214 195.322 13.8722C196.537 14.0231 197.574 14.8234 198.028 15.9612L198.12 16.2002C198.172 16.339 198.245 16.5356 198.333 16.7851C198.509 17.2839 198.749 17.9962 199.014 18.8838C199.544 20.6547 200.185 23.1467 200.635 26.0496C201.463 31.4027 201.7 38.5332 199.005 45.125C199.264 45.8689 199.594 46.8874 199.933 48.1173C200.083 48.6594 200.235 49.2455 200.384 49.8699H190.637C187.616 49.8699 185.167 52.3209 185.167 55.3443V58.8171C184.725 59.0076 184.272 59.1912 183.808 59.3676C182.575 59.8363 181.386 60.3088 180.24 60.7834V55.3443C180.24 54.7614 180.147 54.188 179.969 53.6441C180.447 53.4563 180.932 53.269 181.422 53.0825C187.277 50.8568 190.535 47.3708 192.35 43.5669C194.82 38.3911 194.793 32.2332 193.995 27.0791C193.849 26.1339 193.679 25.2372 193.499 24.4038C192.132 26.0351 190.475 27.9272 188.613 29.8886C183.42 35.3598 176.143 41.9031 168.84 44.2958C166.07 45.2033 163.369 45.9103 160.754 46.5944C150.345 49.3183 141.322 51.6798 134.913 64.8868L152.375 120.598C152.605 120.486 152.852 120.399 153.113 120.341C160.03 118.799 165.47 116.614 169.747 114.068C172.463 115.177 175.427 115.826 178.528 116.117C172.939 120.68 165.199 124.534 154.574 126.904C154.534 126.913 154.494 126.921 154.454 126.928C154.424 126.934 154.394 126.939 154.364 126.944L164.56 159.474C165.165 161.405 165.252 163.468 164.52 165.354C162.681 170.093 157.894 179.294 147.496 183.125C137.174 186.927 127.352 183.218 122.683 180.858C120.777 179.895 119.404 178.192 118.569 176.226L105.325 145.01C105.264 145.047 105.203 145.082 105.139 145.116C84.6901 155.933 69.81 153.194 59.9751 147.134C55.1747 144.177 51.7385 140.529 49.5072 137.64C48.602 136.469 47.8871 135.412 47.3526 134.56C36.8868 135.461 29.5068 129.41 24.9399 123.502C22.4739 120.312 20.7072 117.03 19.5601 114.568C19.0214 113.412 18.6129 112.422 18.3279 111.688C12.0054 108.418 7.56575 102.836 4.72838 98.2232C3.18968 95.7215 2.06318 93.4083 1.31909 91.7163C0.946133 90.8683 0.666807 90.1708 0.477809 89.6767C0.383257 89.4295 0.311146 89.2328 0.261069 89.0932L0.176348 88.8514C-0.215035 87.6905 0.0556666 86.4085 0.882869 85.5053C1.71007 84.6021 2.96288 84.2208 4.15252 84.5101L4.16111 84.5122L4.20335 84.5223C4.24252 84.5316 4.30352 84.546 4.38528 84.5649C4.54883 84.6028 4.79536 84.659 5.11645 84.7294C5.75887 84.8703 6.69841 85.0679 7.86794 85.2901C10.2107 85.7353 13.4574 86.2759 17.0755 86.6596C24.5054 87.4476 32.7868 87.4862 38.2071 85.2624C40.3007 84.4035 42.4335 83.3573 44.6432 82.2734L44.6438 82.2731C52.7961 78.2744 61.9947 73.7624 74.1327 76.2418C66.3339 71.6225 60.0153 64.3875 56.6404 55.2131C48.8528 34.0431 59.6886 10.5636 80.8429 2.77016C101.997 -5.02326 125.459 5.82063 133.247 26.9907ZM79.9253 85.1449L102.728 138.889C102.48 138.953 102.236 139.047 102 139.172C83.4617 148.978 71.1288 146.111 63.4973 141.409C59.5646 138.986 56.7042 135.964 54.8224 133.528C54.7072 133.379 54.5959 133.232 54.4884 133.089C56.8905 132.536 60.0477 131.858 63.4639 131.251C67.1455 130.596 71.0753 130.033 74.6593 129.789C78.3193 129.541 81.3152 129.65 83.2793 130.162C85.0746 130.63 86.9091 129.553 87.3767 127.756C87.8443 125.96 86.768 124.124 84.9727 123.656C81.9256 122.862 78.0431 122.821 74.2042 123.082C70.2893 123.348 66.0999 123.953 62.2885 124.631C58.468 125.311 54.9745 126.072 52.4387 126.662C51.1692 126.958 50.1361 127.211 49.4175 127.392C49.0582 127.482 48.7773 127.554 48.5846 127.604C48.5205 127.621 48.4662 127.635 48.422 127.646C40.2727 129.065 34.4015 124.754 30.2539 119.388C28.9315 117.678 27.8323 115.912 26.9477 114.295C30.6576 114.686 34.7241 114.24 39.1257 112.67C51.0191 108.427 60.1028 107.047 66.1289 106.707C69.1439 106.537 71.3999 106.627 72.8663 106.751C73.5996 106.814 74.1361 106.885 74.4717 106.936C74.6396 106.962 74.7573 106.983 74.8243 106.995C74.8578 107.002 74.8787 107.006 74.8868 107.007L74.8888 107.008C76.6951 107.397 78.4784 106.253 78.8767 104.445C79.2761 102.632 78.1312 100.838 76.3195 100.439L76.0595 100.387C75.921 100.361 75.7309 100.327 75.4897 100.29C75.0073 100.216 74.3206 100.127 73.4339 100.052C71.66 99.9016 69.0879 99.8062 65.7509 99.9944C59.073 100.371 49.3574 101.882 36.8698 106.337C30.9705 108.441 26.2314 107.902 22.3849 106.184C17.1512 103.846 13.1817 99.1405 10.4497 94.6989C9.94878 93.8844 9.49715 93.0914 9.09397 92.3403C11.192 92.695 13.6791 93.0604 16.3674 93.3455C23.8661 94.1408 33.6456 94.4003 40.7556 91.4833C43.4519 90.377 45.967 89.1621 48.4004 87.9866C58.0897 83.3061 66.4896 79.2485 79.9253 85.1449ZM105.176 68.918C120.527 63.2626 128.39 46.2242 122.739 30.8618C117.088 15.4994 100.062 7.63038 84.7112 13.2858C69.3602 18.9412 61.497 35.9796 67.1483 51.342C72.7995 66.7044 89.8251 74.5734 105.176 68.918ZM124.123 174.862C124.238 175.133 124.43 175.364 124.675 175.523C124.71 175.546 124.746 175.567 124.783 175.586C126.031 176.243 127.837 177.08 130.018 177.774C134.427 179.177 139.97 179.878 145.546 177.823C151.102 175.776 154.718 171.719 157.015 167.891C158.154 165.991 158.92 164.223 159.396 162.946C159.516 162.623 159.52 162.269 159.417 161.94L135.346 85.1428C132.865 77.2253 122.7 74.5527 115.256 78.2076C113.402 79.118 111.482 79.9419 109.5 80.6721C107.518 81.4023 98.9335 83.5037 87.3767 81.4009C86.2697 85.7672 88.9524 92.0368 91.9006 98.9266L91.9007 98.927L91.9009 98.9274C92.1725 99.5622 92.4464 100.202 92.7198 100.847L124.123 174.862Z" fill="#FFFAF5"/>
<path d="M201.368 55.3443C201.487 56.3322 201.576 57.3577 201.626 58.4093C201.977 65.8708 200.279 75.2659 191.728 81.371C191.873 82.3661 192.013 83.6347 192.083 85.1141C192.256 88.761 192.003 93.7677 190.265 99.1342C188.999 103.043 186.975 107.047 183.878 110.809C183.467 110.822 183.051 110.828 182.63 110.828C179.954 110.828 177.491 110.583 175.262 110.075C179.547 106.291 182.036 102.109 183.48 98.1987C186.002 98.0627 187.68 97.3113 188.768 96.1699C189.879 94.9037 190.637 92.5743 190.637 88.7392L190.637 73.3546C194.242 69.2397 195.158 63.8912 194.915 58.7258C194.86 57.5608 194.746 56.4258 194.593 55.3443H201.368Z" fill="#FFFAF5"/>
<path d="M191.179 55.3443L190.637 55.3442L190.637 55.7451C190.82 55.6131 191.001 55.4794 191.179 55.3443Z" fill="#FFFAF5"/>
<path d="M185.167 77.4249C184.534 77.7402 183.709 78.1567 182.739 78.6586C181.987 79.0472 181.146 79.4878 180.24 79.9728V87.6342C182.057 86.6172 183.744 85.7147 185.167 84.9723V77.4249Z" fill="#FFFAF5"/>
<path d="M174.848 90.7849C174.796 90.1531 174.769 89.472 174.769 88.7392L174.769 83.0119C174.489 83.1738 174.207 83.3378 173.924 83.5037C170.583 85.4609 167.001 87.718 163.848 90.0558C162.753 90.8682 161.678 91.7129 160.666 92.58C160.898 95.3634 161.51 97.8784 162.524 100.096C163.777 98.7032 165.598 97.1267 167.848 95.4578C170.003 93.8603 172.419 92.2733 174.848 90.7849Z" fill="#FFFAF5"/>
<path d="M157.64 102.572C156.905 101.001 156.341 99.3417 155.933 97.6152C154.981 99.1232 155.373 101.129 156.849 102.162C157.099 102.337 157.365 102.474 157.64 102.572Z" fill="#FFFAF5"/>
<path d="M160.558 71.4814C163.942 69.0278 168.592 66.1334 174.769 63.2063V55.813C169.009 58.3628 164.32 60.9537 160.558 63.3568V71.4814Z" fill="#FFFAF5"/>
<path d="M155.088 67.1759V75.9722C154.788 76.2567 154.521 76.5186 154.287 76.7555C153.769 77.2787 153.406 77.6808 153.184 77.9378C153.073 78.0663 152.997 78.1586 152.954 78.2117L152.931 78.2399L152.914 78.2615L152.913 78.263C151.79 79.7318 149.691 80.0177 148.217 78.8998C146.738 77.7787 146.447 75.6702 147.567 74.1903L147.732 73.9819C147.82 73.8723 147.943 73.7236 148.103 73.5389C148.422 73.1696 148.887 72.6563 149.514 72.0236C150.729 70.7961 152.55 69.1206 155.088 67.1759Z" fill="#FFFAF5"/>
</svg>
