<?xml version="1.0" encoding="UTF-8" standalone="no"?>
<!-- Uploaded to: SVG Repo, www.svgrepo.com, Transformed by: SVG Repo Tools -->

<svg
   fill="#000000"
   version="1.1"
   id="Capa_1"
   width="800px"
   height="800px"
   viewBox="0 0 97.541 97.54"
   xml:space="preserve"
   sodipodi:docname="CirclesLoaderIcon.svg"
   inkscape:version="1.2.1 (9c6d41e410, 2022-07-14)"
   xmlns:inkscape="http://www.inkscape.org/namespaces/inkscape"
   xmlns:sodipodi="http://sodipodi.sourceforge.net/DTD/sodipodi-0.dtd"
   xmlns="http://www.w3.org/2000/svg"
   xmlns:svg="http://www.w3.org/2000/svg"><defs
   id="defs59">
	
















		
		
	
			
			
			
			
			
			
			
			
		</defs><sodipodi:namedview
   id="namedview57"
   pagecolor="#505050"
   bordercolor="#ffffff"
   borderopacity="1"
   inkscape:showpageshadow="0"
   inkscape:pageopacity="0"
   inkscape:pagecheckerboard="1"
   inkscape:deskcolor="#505050"
   showgrid="false"
   inkscape:zoom="1.0375"
   inkscape:cx="313.73494"
   inkscape:cy="400.48193"
   inkscape:window-width="1920"
   inkscape:window-height="991"
   inkscape:window-x="-9"
   inkscape:window-y="-9"
   inkscape:window-maximized="1"
   inkscape:current-layer="Capa_1" />
<path
   d="m 70.063,27.182 c 1.398,1.175 3.174,1.821 4.996,1.821 2.312,0 4.488,-1.014 5.974,-2.782 2.76,-3.289 2.329,-8.211 -0.96,-10.973 -1.4,-1.175 -3.176,-1.822 -5,-1.822 -2.311,0 -4.487,1.014 -5.971,2.782 -2.761,3.29 -2.329,8.211 0.961,10.974 z"
   id="path2"
   style="fill:#ffffff" /><path
   d="m 88.445,36.096 c -0.483,0 -0.971,0.043 -1.448,0.127 -4.485,0.791 -7.493,5.086 -6.702,9.573 0.696,3.955 4.111,6.825 8.119,6.825 0.482,0 0.972,-0.043 1.451,-0.126 4.485,-0.792 7.492,-5.086 6.701,-9.571 -0.698,-3.956 -4.114,-6.828 -8.121,-6.828 z"
   id="path4"
   style="fill:#ffffff" /><path
   d="m 88.158,63.113 c -1.328,-0.768 -2.834,-1.172 -4.354,-1.172 -3.118,0 -6.022,1.675 -7.579,4.371 -1.165,2.019 -1.477,4.371 -0.872,6.625 0.605,2.254 2.052,4.139 4.069,5.304 1.329,0.769 2.835,1.174 4.357,1.174 3.116,0 6.02,-1.674 7.576,-4.369 2.406,-4.172 0.972,-9.525 -3.197,-11.933 z"
   id="path6"
   style="fill:#ffffff" /><path
   d="m 63.316,78.646 c -1.07,0 -2.13,0.188 -3.15,0.558 -2.31,0.841 -4.153,2.532 -5.193,4.761 -1.039,2.229 -1.148,4.729 -0.308,7.04 1.32,3.626 4.798,6.063 8.654,6.063 1.07,0 2.13,-0.188 3.147,-0.559 2.308,-0.841 4.15,-2.531 5.191,-4.764 1.04,-2.23 1.15,-4.73 0.312,-7.037 -1.318,-3.625 -4.797,-6.062 -8.653,-6.062 z"
   id="path8"
   style="fill:#ffffff" /><path
   d="m 39.903,78.757 c -1.074,-0.39 -2.188,-0.588 -3.31,-0.588 -4.054,0 -7.71,2.562 -9.097,6.375 -0.886,2.431 -0.771,5.06 0.322,7.403 1.092,2.344 3.031,4.121 5.462,5.006 1.072,0.391 2.187,0.587 3.312,0.587 4.056,0 7.711,-2.562 9.097,-6.372 0.884,-2.426 0.768,-5.055 -0.326,-7.4 -1.095,-2.348 -3.033,-4.127 -5.46,-5.011 z"
   id="path10"
   style="fill:#ffffff" /><path
   d="m 24.916,65.6 c -1.81,-3.133 -5.183,-5.078 -8.805,-5.078 -1.771,0 -3.522,0.472 -5.067,1.361 -2.35,1.357 -4.03,3.549 -4.731,6.166 -0.703,2.62 -0.343,5.357 1.014,7.706 1.81,3.134 5.184,5.08 8.806,5.08 1.77,0 3.521,-0.472 5.065,-1.362 4.848,-2.799 6.516,-9.023 3.718,-13.873 z"
   id="path12"
   style="fill:#ffffff" /><path
   d="m 11.495,54.991 c 5.158,0 9.555,-3.695 10.453,-8.786 0.492,-2.797 -0.133,-5.617 -1.762,-7.94 -1.627,-2.326 -4.063,-3.878 -6.861,-4.372 -0.62,-0.108 -1.247,-0.163 -1.86,-0.163 -5.158,0 -9.555,3.694 -10.453,8.785 -0.492,2.795 0.133,5.615 1.762,7.941 1.628,2.325 4.065,3.878 6.861,4.371 0.617,0.109 1.243,0.164 1.86,0.164 z"
   id="path14"
   style="fill:#ffffff" /><path
   d="m 24.849,32.319 c 2.599,0 5.131,-0.923 7.13,-2.598 2.268,-1.903 3.659,-4.58 3.918,-7.538 0.259,-2.958 -0.647,-5.836 -2.551,-8.104 -2.114,-2.52 -5.217,-3.965 -8.511,-3.965 -2.603,0 -5.135,0.922 -7.131,2.597 -2.271,1.906 -3.665,4.583 -3.923,7.537 -0.259,2.952 0.648,5.831 2.555,8.104 2.117,2.521 5.219,3.967 8.513,3.967 z"
   id="path16"
   style="fill:#ffffff" /><path
   id="circle20"
   d="m 62.031002,12.076 a 12.076,12.076 0 0 1 -12.076,12.076 12.076,12.076 0 0 1 -12.076,-12.076 12.076,12.076 0 0 1 12.076,-12.076 12.076,12.076 0 0 1 12.076,12.076 z"
   inkscape:label="path18"
   style="fill:#ffffff" />















</svg>
