<?xml version="1.0" encoding="UTF-8" standalone="no"?>
<svg
   xmlns:dc="http://purl.org/dc/elements/1.1/"
   xmlns:cc="http://creativecommons.org/ns#"
   xmlns:rdf="http://www.w3.org/1999/02/22-rdf-syntax-ns#"
   xmlns:svg="http://www.w3.org/2000/svg"
   xmlns="http://www.w3.org/2000/svg"
   xmlns:sodipodi="http://sodipodi.sourceforge.net/DTD/sodipodi-0.dtd"
   xmlns:inkscape="http://www.inkscape.org/namespaces/inkscape"
   enable-background="new 0 0 24 24"
   height="24px"
   viewBox="0 0 24 24"
   width="24px"
   fill="#000000"
   version="1.1"
   id="svg14"
   sodipodi:docname="admin_panel_settings_black_24dp.svg"
   inkscape:version="1.0.1 (3bc2e813f5, 2020-09-07)">
  <metadata
     id="metadata20">
    <rdf:RDF>
      <cc:Work
         rdf:about="">
        <dc:format>image/svg+xml</dc:format>
        <dc:type
           rdf:resource="http://purl.org/dc/dcmitype/StillImage" />
      </cc:Work>
    </rdf:RDF>
  </metadata>
  <defs
     id="defs18" />
  <sodipodi:namedview
     pagecolor="#ffffff"
     bordercolor="#666666"
     borderopacity="1"
     objecttolerance="10"
     gridtolerance="10"
     guidetolerance="10"
     inkscape:pageopacity="0"
     inkscape:pageshadow="2"
     inkscape:window-width="2560"
     inkscape:window-height="1406"
     id="namedview16"
     showgrid="false"
     inkscape:zoom="35.333333"
     inkscape:cx="12"
     inkscape:cy="12"
     inkscape:window-x="1909"
     inkscape:window-y="-11"
     inkscape:window-maximized="1"
     inkscape:current-layer="svg14" />
  <g
     id="g4">
    <rect
       fill="none"
       height="24"
       width="24"
       id="rect2" />
  </g>
  <g
     id="g12"
     style="fill:#ffffff">
    <g
       id="g10"
       style="fill:#ffffff">
      <path
         d="M17,11c0.34,0,0.67,0.04,1,0.09V6.27L10.5,3L3,6.27v4.91c0,4.54,3.2,8.79,7.5,9.82c0.55-0.13,1.08-0.32,1.6-0.55 C11.41,19.47,11,18.28,11,17C11,13.69,13.69,11,17,11z"
         id="path6"
         style="fill:#ffffff" />
      <path
         d="M17,13c-2.21,0-4,1.79-4,4c0,2.21,1.79,4,4,4s4-1.79,4-4C21,14.79,19.21,13,17,13z M17,14.38c0.62,0,1.12,0.51,1.12,1.12 s-0.51,1.12-1.12,1.12s-1.12-0.51-1.12-1.12S16.38,14.38,17,14.38z M17,19.75c-0.93,0-1.74-0.46-2.24-1.17 c0.05-0.72,1.51-1.08,2.24-1.08s2.19,0.36,2.24,1.08C18.74,19.29,17.93,19.75,17,19.75z"
         id="path8"
         style="fill:#ffffff" />
    </g>
  </g>
</svg>
