<?xml version="1.0" encoding="UTF-8" standalone="no"?>
<svg
   xmlns:dc="http://purl.org/dc/elements/1.1/"
   xmlns:cc="http://creativecommons.org/ns#"
   xmlns:rdf="http://www.w3.org/1999/02/22-rdf-syntax-ns#"
   xmlns:svg="http://www.w3.org/2000/svg"
   xmlns="http://www.w3.org/2000/svg"
   xmlns:sodipodi="http://sodipodi.sourceforge.net/DTD/sodipodi-0.dtd"
   xmlns:inkscape="http://www.inkscape.org/namespaces/inkscape"
   height="24px"
   viewBox="0 0 24 24"
   width="24px"
   fill="#FFFFFF"
   version="1.1"
   id="svg6"
   sodipodi:docname="keyboard_and_mouse_white_24dp.svg"
   inkscape:version="1.0.1 (3bc2e813f5, 2020-09-07)">
  <metadata
     id="metadata12">
    <rdf:RDF>
      <cc:Work
         rdf:about="">
        <dc:format>image/svg+xml</dc:format>
        <dc:type
           rdf:resource="http://purl.org/dc/dcmitype/StillImage" />
        <dc:title></dc:title>
      </cc:Work>
    </rdf:RDF>
  </metadata>
  <defs
     id="defs10" />
  <sodipodi:namedview
     pagecolor="#ffffff"
     bordercolor="#666666"
     borderopacity="1"
     objecttolerance="10"
     gridtolerance="10"
     guidetolerance="10"
     inkscape:pageopacity="0"
     inkscape:pageshadow="2"
     inkscape:window-width="2560"
     inkscape:window-height="1406"
     id="namedview8"
     showgrid="false"
     inkscape:pagecheckerboard="true"
     inkscape:zoom="8.9583333"
     inkscape:cx="-36.740872"
     inkscape:cy="31.093768"
     inkscape:window-x="1909"
     inkscape:window-y="-11"
     inkscape:window-maximized="1"
     inkscape:current-layer="svg6" />
  <path
     d="M20 5H4c-1.1 0-1.99.9-1.99 2L2 17c0 1.1.9 2 2 2h16c1.1 0 2-.9 2-2V7c0-1.1-.9-2-2-2zm-9 3h2v2h-2V8zm0 3h2v2h-2v-2zM8 8h2v2H8V8zm0 3h2v2H8v-2zm-1 2H5v-2h2v2zm0-3H5V8h2v2zm9 7H8v-2h8v2zm0-4h-2v-2h2v2zm0-3h-2V8h2v2zm3 3h-2v-2h2v2zm0-3h-2V8h2v2z"
     id="path2" />
  <path
     d="m 20.052333,1.727888 v 3.5705561 h 3.151815 c 0,-1.8370579 -1.373291,-3.3499291 -3.151815,-3.5705561 z M 16,8 c 0,1.9901459 1.611928,3.602074 3.602074,3.602074 1.990146,0 3.602074,-1.6119281 3.602074,-3.602074 V 6.198963 H 16 Z M 19.151815,1.727888 C 17.373291,1.948515 16,3.4613862 16,5.2984441 h 3.151815 z"
     id="path4"
     style="stroke:#999999;stroke-width:0.2;stroke-miterlimit:4;stroke-dasharray:none;stroke-opacity:1" />
</svg>
