<?xml version="1.0" encoding="UTF-8" standalone="no"?>
<!-- Created with Inkscape (http://www.inkscape.org/) -->

<svg
   width="512"
   height="512"
   viewBox="0 0 135.46666 135.46667"
   version="1.1"
   id="svg5"
   inkscape:version="1.1.1 (3bf5ae0d25, 2021-09-20)"
   sodipodi:docname="pumpkins WIP.svg"
   xmlns:inkscape="http://www.inkscape.org/namespaces/inkscape"
   xmlns:sodipodi="http://sodipodi.sourceforge.net/DTD/sodipodi-0.dtd"
   xmlns="http://www.w3.org/2000/svg"
   xmlns:svg="http://www.w3.org/2000/svg">
  <sodipodi:namedview
     id="namedview7"
     pagecolor="#ffffff"
     bordercolor="#666666"
     borderopacity="1.0"
     inkscape:pageshadow="2"
     inkscape:pageopacity="0.0"
     inkscape:pagecheckerboard="true"
     inkscape:document-units="px"
     showgrid="false"
     units="px"
     width="512px"
     inkscape:showpageshadow="false"
     borderlayer="true"
     inkscape:snap-global="false"
     inkscape:zoom="1.1494141"
     inkscape:cx="327.5582"
     inkscape:cy="258.82753"
     inkscape:window-width="1920"
     inkscape:window-height="1009"
     inkscape:window-x="2552"
     inkscape:window-y="350"
     inkscape:window-maximized="1"
     inkscape:current-layer="layer1" />
  <defs
     id="defs2" />
  <g
     inkscape:label="Layer 1"
     inkscape:groupmode="layer"
     id="layer1">
    <rect
       style="fill:#ffffff;fill-opacity:1;stroke:none;stroke-width:0.79375;stroke-miterlimit:4;stroke-dasharray:none;stroke-opacity:1;stop-color:#000000"
       id="rect26216"
       width="135.46666"
       height="135.46667"
       x="4.4408921e-16"
       y="0" />
    <path
       id="path843"
       style="fill:#000000;fill-opacity:1;stroke-width:0.264582px;-inkscape-stroke:none;stop-color:#000000"
       d="m 4.3784724,15.794657 c -0.376123,4.719546 3.832281,8.243627 6.8198286,8.758703 2.671488,3.827779 8.124236,4.095666 11.747258,2.308342 5.870454,3.820566 12.976917,-2.192529 13.436523,-7.09834 C 36.84169,14.85755 34.152325,8.0561842 20.854564,8.8860812 9.470417,2.3082322 4.7545964,11.075112 4.3784724,15.794657 Z"
       sodipodi:nodetypes="zcczcz" />
    <path
       style="font-variation-settings:normal;opacity:1;vector-effect:none;fill:#000000;fill-opacity:1;stroke:#000000;stroke-width:0.264582px;stroke-linecap:butt;stroke-linejoin:miter;stroke-miterlimit:4;stroke-dasharray:none;stroke-dashoffset:0;stroke-opacity:1;-inkscape-stroke:none;stop-color:#000000;stop-opacity:1"
       d="m 20.347986,9.8852549 0.01708,-6.1413827 1.592349,-1.007101 1.074478,0.747187 -2.026563,6.4537027 z"
       id="path1410" />
    <path
       id="path843-8"
       style="fill:#000000;fill-opacity:1;stroke-width:0.264582px;-inkscape-stroke:none;stop-color:#000000"
       d="m 34.633911,36.693042 0.596482,1.115682 -1.601601,2.84205 c 8.434384,0.125813 8.269626,6.652263 6.946048,9.490117 -1.343548,2.880673 -4.968309,3.544741 -6.883561,2.856005 -2.827905,1.350481 -6.101113,-0.299211 -7.624871,-2.542969 -4.693629,0.286715 -6.851922,-5.578474 -5.495432,-8.595571 1.339654,-2.979651 5.085526,-6.02078 12.393509,-1.386531 l 0.794513,-3.698268 z" />
    <path
       id="path1529"
       style="fill:#000000;fill-opacity:1;stroke-width:0.264582px;-inkscape-stroke:none;stop-color:#000000"
       d="m 131.92331,116.16017 c 0.71815,4.67972 -3.22299,8.50035 -6.1652,9.23121 -2.38621,4.01182 -7.80507,4.67531 -11.54841,3.15604 -5.57725,4.23713 -13.10195,-1.24355 -13.91691,-6.10299 -0.814957,-4.85942 1.37298,-11.83827 14.69588,-11.97707 10.87595,-7.38786 16.21648,1.01308 16.93464,5.69281 z"
       sodipodi:nodetypes="zcczcz" />
    <path
       style="font-variation-settings:normal;opacity:1;vector-effect:none;fill:#000000;fill-opacity:1;stroke:#000000;stroke-width:0.264582px;stroke-linecap:butt;stroke-linejoin:miter;stroke-miterlimit:4;stroke-dasharray:none;stroke-dashoffset:0;stroke-opacity:1;-inkscape-stroke:none;stop-color:#000000;stop-opacity:1"
       d="m 115.56653,111.42708 -0.4634,-6.1239 -1.66134,-0.88871 -1.01733,0.82331 2.49027,6.28934 z"
       id="path1531" />
    <path
       id="path1533"
       style="fill:#000000;fill-opacity:1;stroke-width:0.264582px;-inkscape-stroke:none;stop-color:#000000"
       d="m 49.100295,38.709401 c -0.436856,4.71431 3.859961,8.96994 7.184567,9.42153 1.751318,1.7073 7.175211,3.91996 9.657771,1.73712 4.364151,2.28905 10.896441,-2.22062 11.419176,-7.12012 0.522742,-4.89947 0.02879,-11.53955 -13.278557,-10.88093 -11.298512,-6.72388 -14.546091,2.12808 -14.982957,6.8424 z"
       sodipodi:nodetypes="zcczcz" />
    <path
       style="font-variation-settings:normal;opacity:1;vector-effect:none;fill:#000000;fill-opacity:1;stroke:#000000;stroke-width:0.264582px;stroke-linecap:butt;stroke-linejoin:miter;stroke-miterlimit:4;stroke-dasharray:none;stroke-dashoffset:0;stroke-opacity:1;-inkscape-stroke:none;stop-color:#000000;stop-opacity:1"
       d="m 63.827865,33.619921 0.09616,-6.14065 c 0.734898,-0.60015 1.941675,-0.60852 2.669952,-0.22555 l -1.659578,6.42147 z"
       id="path1535"
       sodipodi:nodetypes="ccccc" />
    <path
       id="path25753"
       style="fill:#000000;fill-opacity:1;stroke-width:0.264582px;-inkscape-stroke:none;stop-color:#000000"
       d="m 81.545233,7.6463901 c 0.34626,-0.048791 0.718502,-0.00259 1.012125,0.1762342 l 0.419469,2.7099867 c 6.519235,-5.1118677 9.341434,0.194798 10.032555,3.1441 0.695808,2.96934 -1.669289,6.064876 -3.750623,6.647143 -0.966395,1.244289 -4.231426,3.135764 -6.008547,1.962625 -2.582049,1.846632 -7.148823,-0.452802 -7.91581,-3.532705 -0.740555,-2.973736 -1.018976,-7.066473 6.657859,-8.026509 l -1.15816,-2.8122252 c 0.188472,-0.1350942 0.441843,-0.2306925 0.711151,-0.2686525 z" />
    <path
       id="path1533-7"
       style="fill:#000000;fill-opacity:1;stroke-width:0.264582px;-inkscape-stroke:none;stop-color:#000000"
       d="m 51.495361,72.327087 c 0.34968,-7.73e-4 0.71205,0.09611 0.97833,0.313571 l 0.0433,2.741917 c 7.15953,-4.168065 9.22616,1.475919 9.50567,4.492192 0.2814,3.036765 -2.48643,5.778141 -4.62801,6.069037 -1.12813,1.099771 -4.622,2.524898 -6.22116,1.118803 -2.8112,1.474511 -7.01889,-1.430341 -7.35561,-4.586397 -0.32512,-3.047265 -0.0388,-7.139457 7.69714,-7.036047 l -0.76095,-2.94464 c 0.20524,-0.107929 0.46934,-0.167823 0.74131,-0.168436 z" />
    <path
       id="path2119"
       style="fill:#000000;fill-opacity:1;stroke-width:0.264582px;-inkscape-stroke:none;stop-color:#000000"
       d="m 68.869934,122.30523 c -1.683912,5.69105 -5.452867,11.70615 -10.457562,8.19044 -2.216387,1.46776 -7.525833,-0.50439 -8.514732,-1.94633 -4.667811,1.34153 -7.521544,-6.31525 -5.829296,-12.25121 1.692231,-5.93593 4.26404,-11.62151 15.173395,-6.71098 12.139368,-0.54454 11.312109,7.027 9.628195,12.71808 z"
       sodipodi:nodetypes="zcczcz" />
    <path
       style="font-variation-settings:normal;opacity:1;vector-effect:none;fill:#000000;fill-opacity:1;stroke:#000000;stroke-width:0.264582px;stroke-linecap:butt;stroke-linejoin:miter;stroke-miterlimit:4;stroke-dasharray:none;stroke-dashoffset:0;stroke-opacity:1;-inkscape-stroke:none;stop-color:#000000;stop-opacity:1"
       d="m 58.882208,111.38896 3.896339,-5.34808 c -0.196839,-0.736 -1.152263,-1.09807 -1.979894,-0.98043 l -2.833231,6.05105 z"
       id="path2121"
       sodipodi:nodetypes="ccccc" />
    <path
       id="path2458"
       style="fill:#000000;fill-opacity:1;stroke-width:0.264582px;-inkscape-stroke:none;stop-color:#000000"
       d="m 73.394226,73.56539 c -0.442181,6.683468 1.196382,14.52516 7.869351,12.759678 1.772666,2.420436 8.16481,2.408274 9.775493,1.268297 4.417346,3.245182 10.43205,-3.745378 10.96116,-10.69139 0.52911,-6.94597 0.0291,-13.970768 -13.440414,-13.037044 -12.639084,-5.322457 -14.723399,3.016975 -15.16559,9.700459 z"
       sodipodi:nodetypes="zcczcz" />
    <path
       style="font-variation-settings:normal;vector-effect:none;fill:#000000;fill-opacity:1;stroke:#000000;stroke-width:0.264582px;stroke-linecap:butt;stroke-linejoin:miter;stroke-miterlimit:4;stroke-dasharray:none;stroke-dashoffset:0;stroke-opacity:1;-inkscape-stroke:none;stop-color:#000000"
       d="m 88.236023,65.913079 -2.034201,-7.185332 c 0.496137,-0.702251 1.649199,-0.712046 2.47942,-0.263922 l 0.633861,7.513927 z"
       id="path2460"
       sodipodi:nodetypes="ccccc" />
    <path
       id="path25616"
       style="fill:#000000;fill-opacity:1;stroke-width:0.264582px;-inkscape-stroke:none;stop-color:#000000"
       d="m 108.99862,38.327696 c -0.24602,-6.26e-4 -0.47613,0.08247 -0.60806,0.269214 l 0.63297,2.236041 c -5.54638,-2.10632 -6.48456,1.705625 -6.68784,4.778187 -0.20904,3.159554 0.56555,6.866775 3.72014,6.032157 0.83801,1.144241 3.85991,1.138417 4.62134,0.599503 2.08827,1.534132 4.93164,-1.770571 5.18177,-5.054242 0.24652,-3.236266 0.0202,-6.50852 -6.08224,-6.179711 l -0.214,-2.536771 c -0.17171,-0.09268 -0.37273,-0.14385 -0.56408,-0.144378 z" />
    <path
       id="path2458-1"
       style="fill:#000000;fill-opacity:1;stroke-width:0.264582px;-inkscape-stroke:none;stop-color:#000000"
       d="m 15.795899,114.82899 c 0.24602,-6.3e-4 0.47613,0.0825 0.60806,0.26921 l -0.63297,2.23604 c 5.54638,-2.10632 6.48456,1.70563 6.68784,4.77819 0.20904,3.15955 -0.56555,6.86677 -3.72014,6.03215 -0.83801,1.14424 -3.85991,1.13842 -4.62134,0.59951 -2.08827,1.53413 -4.9316298,-1.77058 -5.1817728,-5.05424 -0.24652,-3.23627 -0.0202,-6.50852 6.0822428,-6.17972 l 0.214,-2.53677 c 0.17172,-0.0927 0.37274,-0.14385 0.56408,-0.14437 z" />
    <path
       style="font-variation-settings:normal;vector-effect:none;fill:#ffffff;fill-opacity:1;stroke:none;stroke-width:0.264583px;stroke-linecap:butt;stroke-linejoin:miter;stroke-miterlimit:4;stroke-dasharray:none;stroke-dashoffset:0;stroke-opacity:1;-inkscape-stroke:none;stop-color:#000000"
       d="m 76.681171,73.288268 c 10.755743,4.133168 15.986318,2.931607 22.11552,0.133445 -3.564901,5.765471 -7.344638,8.771681 -13.254156,8.322753 -5.909521,-0.448925 -8.861364,-8.456198 -8.861364,-8.456198 z"
       id="path2839" />
    <path
       style="fill:#000000;stroke-width:0.264583px;-inkscape-stroke:none;stop-color:#000000"
       d="m 79.165681,73.586411 -0.388474,2.29785 2.43461,0.695603 0.75357,-1.681042 1.333241,0.811536 -0.173903,1.043405 1.796977,0.347802 0.173899,-1.275273 6.260433,-0.11594 -0.05796,1.217308 2.144778,-0.173903 0.347802,-2.144775 1.796977,-0.115927 -0.173903,1.739008 1.507141,-0.869505 0.05796,-1.391207 -1.333242,-1.275273 -7.973155,2.288717 z"
       id="path872"
       sodipodi:nodetypes="ccccccccccccccccccc" />
    <path
       style="fill:#000000;stroke-width:0.264583px;-inkscape-stroke:none;stop-color:#000000"
       d="m 79.994511,79.521251 1.391206,-1.739008 1.101373,0.985436 -0.753571,1.796977 1.101373,0.405766 0.463736,-1.623073 1.449171,0.521703 -0.05796,2.260709 2.318678,0.05796 -0.05796,-2.202744 1.391207,-0.289835 0.405767,1.739007 2.956315,-0.347802 -0.57967,-2.144774 2.434612,-1.449175 1.10137,2.028845 -1.50714,3.825817 -9.390644,0.05796 -3.478017,-1.796973 -0.347801,-2.492581"
       id="path987" />
    <path
       style="fill:#ffffff;fill-opacity:1;stroke:none;stroke-width:0.264582px;stroke-linecap:butt;stroke-linejoin:miter;stroke-opacity:1"
       d="m 79.172107,67.68927 6.013578,2.867297 -5.035082,0.596876 z"
       id="path2469"
       sodipodi:nodetypes="cccc" />
    <path
       style="fill:#ffffff;fill-opacity:1;stroke:none;stroke-width:0.264582px;stroke-linecap:butt;stroke-linejoin:miter;stroke-opacity:1"
       d="m 95.97698,69.021529 -5.6139,1.934714 4.968469,0.971266 z"
       id="path2551"
       sodipodi:nodetypes="cccc" />
    <path
       style="fill:#ffffff;fill-opacity:1;stroke-width:0.264582px;-inkscape-stroke:none;stop-color:#000000"
       d="m 86.940185,70.486683 1.265646,0.199838 -0.599518,3.589624 z"
       id="path2765"
       sodipodi:nodetypes="cccc" />
    <path
       style="font-variation-settings:normal;vector-effect:none;fill:#ffffff;fill-opacity:1;stroke:none;stroke-width:0.264583px;stroke-linecap:butt;stroke-linejoin:miter;stroke-miterlimit:4;stroke-dasharray:none;stroke-dashoffset:0;stroke-opacity:1;-inkscape-stroke:none;stop-color:#000000"
       d="M 28.245366,24.295218 C 19.182388,19.985207 14.646799,19.798945 9.2764821,20.407339 12.565198,17.592856 15.928077,16.456143 20.980279,17.740777 c 5.052205,1.284633 7.265087,6.554441 7.265087,6.554441 z"
       id="path2839-3" />
    <path
       style="fill:#000000;stroke-width:0.264583px;-inkscape-stroke:none;stop-color:#000000"
       d="m 24.988142,23.690071 0.359384,-1.299502 -1.74269,-0.832899 -0.60342,0.869848 -0.939795,-0.712172 0.161375,-0.590505 -1.291864,-0.516276 -0.169204,0.728386 -4.545502,-1.00917 0.08314,-0.713883 -1.561786,-0.265944 -0.324709,1.215481 -1.30752,-0.240528 0.184865,-1.00414 -1.122696,0.257499 -0.089,0.817291 0.924143,0.987931 5.861331,0.01209 z"
       id="path872-6"
       sodipodi:nodetypes="ccccccccccccccccccc" />
    <path
       style="fill:#000000;stroke-width:0.264583px;-inkscape-stroke:none;stop-color:#000000"
       d="m 24.585792,19.755555 -1.029671,0.843517 -0.80111,-0.73904 0.562825,-0.966129 -0.804558,-0.393802 -0.349416,0.902599 -1.058697,-0.510903 0.05587,-1.338407 -1.698537,-0.354825 0.02937,1.319896 -1.021054,-0.01957 -0.286961,-1.091754 -2.168143,-0.201249 0.411964,1.35744 -1.792448,0.526766 -0.794897,-1.360465 1.127026,-2.070347 6.880818,1.262716 2.537637,1.550684 0.240005,1.532554"
       id="path987-0" />
    <path
       style="fill:#ffffff;fill-opacity:1;stroke:none;stroke-width:0.264582px;stroke-linecap:butt;stroke-linejoin:miter;stroke-opacity:1"
       d="m 27.125579,17.310376 -4.038811,-3.308912 3.853823,0.511218 z"
       id="path2469-2"
       sodipodi:nodetypes="cccc" />
    <path
       style="fill:#ffffff;fill-opacity:1;stroke:none;stroke-width:0.264582px;stroke-linecap:butt;stroke-linejoin:miter;stroke-opacity:1"
       d="m 13.527212,14.260209 4.286139,-1.414026 -3.848858,-0.814108 z"
       id="path2551-1"
       sodipodi:nodetypes="cccc" />
    <path
       style="fill:#ffffff;fill-opacity:1;stroke-width:0.264582px;-inkscape-stroke:none;stop-color:#000000"
       d="m 19.510835,13.76463 0.905703,0.410122 -1.063952,2.570581 z"
       id="path2765-6"
       sodipodi:nodetypes="cccc" />
    <path
       id="path2454"
       style="fill:#000000;fill-opacity:1;stroke-width:0.264582px;-inkscape-stroke:none;stop-color:#000000"
       d="m 33.542994,82.008552 c 0.442181,6.683468 -1.196382,14.525159 -7.869352,12.759678 -1.772666,2.42044 -8.16481,2.40827 -9.775493,1.268301 C 11.480803,99.281698 5.4660969,92.291149 4.9369879,85.345137 4.4078749,78.399167 4.9078479,71.374369 18.377403,72.308093 c 12.639085,-5.322457 14.7234,3.016975 15.165591,9.700459 z"
       sodipodi:nodetypes="zcczcz" />
    <path
       style="font-variation-settings:normal;vector-effect:none;fill:#000000;fill-opacity:1;stroke:#000000;stroke-width:0.264582px;stroke-linecap:butt;stroke-linejoin:miter;stroke-miterlimit:4;stroke-dasharray:none;stroke-dashoffset:0;stroke-opacity:1;-inkscape-stroke:none;stop-color:#000000"
       d="m 18.701196,74.356241 2.034201,-7.185332 c -0.496137,-0.702251 -1.649199,-0.712046 -2.47942,-0.263922 l -0.633861,7.513927 z"
       id="path2456"
       sodipodi:nodetypes="ccccc" />
    <path
       style="fill:#ffffff;fill-opacity:1;stroke:none;stroke-width:0.264583px;stroke-linecap:butt;stroke-linejoin:miter;stroke-opacity:1"
       d="m 10.824081,80.721127 5.087064,1.601483 -4.61604,1.036254 z"
       id="path2517" />
    <path
       style="font-variation-settings:normal;vector-effect:none;fill:#ffffff;fill-opacity:1;stroke:none;stroke-width:0.264582px;stroke-linecap:butt;stroke-linejoin:miter;stroke-miterlimit:4;stroke-dasharray:none;stroke-dashoffset:0;stroke-opacity:1;-inkscape-stroke:none;stop-color:#000000"
       d="m 25.708457,78.46021 -4.61604,2.637737 4.992859,-0.56523 z"
       id="path2722" />
    <path
       style="fill:#ffffff;fill-opacity:1;stroke-width:0.264582px;-inkscape-stroke:none;stop-color:#000000"
       d="m 10.635671,91.224977 c 2.213816,-2.543535 15.308297,-7.6306 17.757627,-3.108764 -6.688549,8.43134 -13.753918,-0.894945 -17.757627,3.108764 z"
       id="path1182"
       sodipodi:nodetypes="ccc" />
    <path
       style="fill:#000000;fill-opacity:1;stroke-width:0.264582px;-inkscape-stroke:none;stop-color:#000000"
       d="m 26.64796,86.18286 c 0,0.166531 -1.465485,1.865162 -1.465485,1.865162 l -1.298953,-2.298147 -1.898467,0.233145 -0.333066,2.364761 -1.865161,-1.831856 -1.465485,0.532903 -0.233146,2.331453 -2.364758,-1.532099 -1.398873,0.566211 0.199839,1.565404 -1.998387,-0.599516 c 0,0 1.065805,-1.931776 1.532096,-1.998388 0.466291,-0.06661 4.862746,-0.965887 4.862746,-0.965887 l 0.899273,-0.266452 c 0,0 2.964276,-1.065808 3.230727,-1.132422 0.266451,-0.06661 3.29734,0.166534 3.29734,0.166534 z"
       id="path3093" />
    <path
       style="fill:#ffffff;fill-opacity:1;stroke-width:0.264582px;-inkscape-stroke:none;stop-color:#000000"
       d="m 17.795245,84.253812 1.507279,2.119611 c 0,0 0.282614,-2.355122 0.09421,-2.355122 -0.18841,0 -1.601484,0.235511 -1.601484,0.235511 z"
       id="path2272" />
    <path
       style="fill:#000000;fill-opacity:1;stroke-width:0.264582px;-inkscape-stroke:none;stop-color:#000000"
       d="m 26.081749,91.012297 -2.398067,-2.497984 -0.932579,3.963469 -2.93097,-3.630404 -1.099113,3.197421 -2.764436,-2.731132 -1.165727,1.931775 1.665324,1.13242 5.062583,0.666131 c 0,0 2.930969,-0.03331 3.430566,-0.333066 0.499597,-0.299757 1.132419,-1.69863 1.132419,-1.69863 z"
       id="path4575" />
    <path
       id="path2115"
       style="fill:#000000;fill-opacity:1;stroke-width:0.264582px;-inkscape-stroke:none;stop-color:#000000"
       d="m 100.9121,22.257164 c 0.82988,4.661209 6.10198,7.623971 9.42723,7.177093 2.1416,1.181322 7.95821,1.875261 9.77248,-0.888132 4.81513,1.048826 9.91643,-5.032678 9.1202,-9.895222 -0.79621,-4.862526 -3.03459,-11.133432 -15.69,-6.966945 -12.67777,-3.484411 -13.45979,5.911994 -12.62991,10.573206 z"
       sodipodi:nodetypes="zcczcz" />
    <path
       style="font-variation-settings:normal;vector-effect:none;fill:#000000;fill-opacity:1;stroke:#000000;stroke-width:0.264582px;stroke-linecap:butt;stroke-linejoin:miter;stroke-miterlimit:4;stroke-dasharray:none;stroke-dashoffset:0;stroke-opacity:1;-inkscape-stroke:none;stop-color:#000000"
       d="m 113.76096,13.441801 -1.53689,-5.945997 c 0.54928,-0.77366 1.71057,-1.101975 2.51437,-0.926012 l 0.10404,6.631645 z"
       id="path2117"
       sodipodi:nodetypes="ccccc" />
    <path
       style="fill:#ffffff;fill-opacity:1;stroke:none;stroke-width:0.264583px;stroke-linecap:butt;stroke-linejoin:miter;stroke-opacity:1"
       d="m 105.54147,20.586681 4.40787,-2.975622 -5.27587,0.780484 z"
       id="path4770"
       sodipodi:nodetypes="cccc" />
    <path
       style="font-variation-settings:normal;vector-effect:none;fill:#ffffff;fill-opacity:1;stroke:none;stroke-width:0.264582px;stroke-linecap:butt;stroke-linejoin:miter;stroke-miterlimit:4;stroke-dasharray:none;stroke-dashoffset:0;stroke-opacity:1;-inkscape-stroke:none;stop-color:#000000"
       d="m 120.694,20.20029 -4.94081,-2.546563 5.30003,0.337702 z"
       id="path4772"
       sodipodi:nodetypes="cccc" />
    <path
       style="fill:#ffffff;fill-opacity:1;stroke-width:0.264582px;-inkscape-stroke:none;stop-color:#000000"
       d="m 104.83307,21.548548 c 6.66129,3.863549 14.65484,2.464678 18.38517,-0.932583 -1.49866,4.674303 -3.25131,6.891762 -8.99664,6.891762 -5.74534,0 -8.05068,-1.993309 -9.38853,-5.959179 z"
       id="path4942"
       sodipodi:nodetypes="cczc" />
    <path
       style="fill:#ffffff;fill-opacity:1;stroke-width:0.264582px;-inkscape-stroke:none;stop-color:#000000"
       d="m 112.57885,20.083062 -0.46629,1.59871 0.86597,0.799354 0.59952,-1.465482 z"
       id="path6151" />
    <path
       style="fill:#000000;fill-opacity:1;stroke-width:0.264582px;-inkscape-stroke:none;stop-color:#000000"
       d="m 106.94286,22.520034 -0.42392,1.413073 2.16671,0.612331 0.51813,-1.36597 0.80074,0.518126 0.0942,1.271767 2.40222,0.09421 -0.18841,-1.460177 2.73195,0.09421 -0.18841,1.507278 3.06166,-0.706535 -0.37682,-1.177563 2.26091,-1.083355 0.47103,1.460175 1.46018,-0.753639 -0.65944,-1.460175 -2.77904,0.0471 -5.13417,1.507279 -5.22837,-1.695688 z"
       id="path7479" />
    <path
       style="fill:#000000;fill-opacity:1;stroke-width:0.264582px;-inkscape-stroke:none;stop-color:#000000"
       d="m 107.97911,26.983726 c 0,-0.188409 0.80074,-1.601483 0.80074,-1.601483 l 0.94205,0.423924 0.23551,1.695688 2.73195,0.706535 c 0,0 -0.32972,-1.601483 0.0942,-1.601483 0.42392,0 1.88409,-0.235511 1.88409,-0.235511 l 0.37682,2.166713 3.25007,-0.800743 -0.42392,-1.789893 1.97831,-0.847844 1.13046,1.460177 -2.26092,2.260917 -4.23923,0.37682 -3.81529,-0.141309 z"
       id="path9078" />
    <path
       style="fill:#ffffff;fill-opacity:1;stroke-width:0.264582px;-inkscape-stroke:none;stop-color:#000000"
       d="m 50.109245,113.41313 3.264035,3.33065 -4.52968,-0.53291 z"
       id="path10992" />
    <path
       style="fill:#ffffff;fill-opacity:1;stroke-width:0.264582px;-inkscape-stroke:none;stop-color:#000000"
       d="m 64.497639,116.21087 -6.661292,1.79854 6.594681,1.33226 z"
       id="path10994"
       sodipodi:nodetypes="cccc" />
    <path
       style="fill:#ffffff;fill-opacity:1;stroke-width:0.264582px;-inkscape-stroke:none;stop-color:#000000"
       d="m 48.299268,121.06276 c 2.869574,2.71935 8.257727,3.86832 13.774101,3.17318 -6.256307,6.11806 -12.106816,2.60861 -13.774101,-3.17318 z"
       id="path11208"
       sodipodi:nodetypes="ccc" />
    <path
       style="fill:#000000;fill-opacity:1;stroke:none;stroke-width:0.79375;stroke-miterlimit:4;stroke-dasharray:none;stroke-opacity:1;stop-color:#000000"
       d="m 49.623666,121.67599 0.584739,2.44222 1.083358,-1.17756 0.42392,1.69569 0.894948,-1.13046 0.471025,1.69569 0.942049,-1.03625 0.800742,1.50728 1.130459,-1.22467 1.271765,1.50728 0.423923,-1.64859 1.130459,1.64859 0.989153,-1.31887 0.565229,0.89495 c 0,0 0.803109,-1.42213 0.803109,-1.61054 0,-0.18841 -1.368338,-0.46197 -1.368338,-0.46197 0,0 -6.358832,-1.50728 -6.782755,-1.50728 -0.423921,0 -3.363785,-0.27551 -3.363785,-0.27551 z"
       id="path11980"
       sodipodi:nodetypes="ccccccccccccccscsc" />
    <path
       style="fill:#ffffff;fill-opacity:1;stroke-width:0.264582px;-inkscape-stroke:none;stop-color:#000000"
       d="m 55.17183,116.3441 -0.333066,6.39484 1.79855,-5.79533 z"
       id="path9627" />
    <path
       style="fill:#000000;fill-opacity:1;stroke:none;stroke-width:0.79375;stroke-miterlimit:4;stroke-dasharray:none;stroke-opacity:1;stop-color:#000000"
       d="m 49.676262,124.97047 1.032499,-1.13242 0.29976,2.19823 1.199033,-1.49879 0.399677,2.73113 1.298951,-1.93178 0.532905,2.69783 1.465485,-2.39807 c 0,0 1.199031,2.79774 1.199031,2.53129 0,-0.26645 0.799356,-2.53129 0.799356,-2.53129 0,0 1.0325,1.59871 1.0325,1.43218 0,-0.16653 0.66613,-1.86516 0.66613,-1.86516 l 1.698631,1.46548 c 0,0 -2.664518,2.59791 -2.897664,2.59791 -0.233146,0 -5.695405,0.33306 -5.695405,0.33306 0,0 -2.364761,-2.83105 -2.497987,-2.99758 -0.133225,-0.16653 -0.532902,-1.63202 -0.532902,-1.63202 z"
       id="path12167" />
    <path
       style="fill:#ffffff;fill-opacity:1;stroke:none;stroke-width:0.793749;stroke-miterlimit:4;stroke-dasharray:none;stroke-opacity:1;stop-color:#000000"
       d="m 123.33059,121.20557 c -3.93098,-1.57241 -8.03668,-0.87356 -9.52172,2.62065 4.54247,3.05744 7.86198,2.70801 9.52172,-2.62065 z"
       id="path12556" />
    <path
       style="fill:#000000;fill-opacity:1;stroke:none;stroke-width:0.79375;stroke-miterlimit:4;stroke-dasharray:none;stroke-opacity:1;stop-color:#000000"
       d="m 112.49277,120.49183 c 3.46387,1.46548 3.53048,4.19661 1.13242,6.195 -2.39807,1.99839 -1.13242,-6.195 -1.13242,-6.195 z"
       id="path14387" />
    <path
       style="fill:#000000;fill-opacity:1;stroke:none;stroke-width:0.79375;stroke-miterlimit:4;stroke-dasharray:none;stroke-opacity:1;stop-color:#000000"
       d="m 124.05442,117.59849 c -3.98199,1.70099 -3.24786,5.60968 -0.99111,6.57182 2.87151,1.22423 0.99111,-6.57182 0.99111,-6.57182 z"
       id="path15992"
       sodipodi:nodetypes="csc" />
    <path
       style="fill:#ffffff;fill-opacity:1;stroke:none;stroke-width:0.79375;stroke-miterlimit:4;stroke-dasharray:none;stroke-opacity:1;stop-color:#000000"
       d="m 117.74416,119.80831 1.55438,-0.65944 c 0,0 -2.68484,-2.07251 -2.44933,-1.78989 0.23551,0.28261 0.89495,2.44933 0.89495,2.44933 z"
       id="path16301"
       sodipodi:nodetypes="ccsc" />
    <path
       style="fill:#ffffff;fill-opacity:1;stroke:none;stroke-width:0.79375;stroke-miterlimit:4;stroke-dasharray:none;stroke-opacity:1;stop-color:#000000"
       d="m 125.04504,115.33357 -3.9566,-1.78989 -0.94205,3.39138 3.43848,0.70653 z"
       id="path17564"
       sodipodi:nodetypes="ccccc" />
    <path
       style="fill:#ffffff;fill-opacity:1;stroke:none;stroke-width:0.79375;stroke-miterlimit:4;stroke-dasharray:none;stroke-opacity:1;stop-color:#000000"
       d="m 111.75521,120.86118 -2.96874,-1.43351 1.65742,-3.10513 2.97677,1.86043 z"
       id="path18722"
       sodipodi:nodetypes="ccccc" />
    <path
       style="fill:#ffffff;fill-opacity:1;stroke:none;stroke-width:0.79375;stroke-miterlimit:4;stroke-dasharray:none;stroke-opacity:1;stop-color:#000000"
       d="m 69.827939,38.644975 -2.469808,-1.432485 -0.822004,2.920926 2.63668,0.944639 z"
       id="path17564-3"
       sodipodi:nodetypes="ccccc" />
    <path
       style="fill:#ffffff;fill-opacity:1;stroke:none;stroke-width:0.79375;stroke-miterlimit:4;stroke-dasharray:none;stroke-opacity:1;stop-color:#000000"
       d="m 58.697717,38.483222 -2.558166,-0.351661 0.382209,-3.091108 2.91152,0.825279 z"
       id="path18722-4"
       sodipodi:nodetypes="ccccc" />
    <path
       style="fill:#000000;fill-opacity:1;stroke:none;stroke-width:0.79375;stroke-miterlimit:4;stroke-dasharray:none;stroke-opacity:1;stop-color:#000000"
       d="m 120.93448,120.21966 c 0,0 0,0.99919 -0.16653,0.99919 -0.16653,0 -0.99919,-0.0333 -0.99919,-0.0333 l 0.13322,-1.16573 -0.99919,0.13323 0.13323,0.96588 -1.16573,0.23315 -0.36637,-0.83266 -0.83266,0.19983 c 0,0 0.5329,0.83267 0.33306,0.83267 -0.19984,0 -0.93258,0.39967 -0.93258,0.39967 l -0.59952,-0.79935 v -0.56621 c 0,0 3.89686,-1.06581 4.13,-1.09911 0.23315,-0.0333 1.43218,0.26645 1.43218,0.26645 z"
       id="path18856" />
    <path
       style="fill:#000000;fill-opacity:1;stroke:none;stroke-width:0.79375;stroke-miterlimit:4;stroke-dasharray:none;stroke-opacity:1;stop-color:#000000"
       d="m 115.90521,125.34885 c -0.0999,-0.16653 0.29976,-1.0325 0.29976,-1.0325 l 0.89927,0.29976 -0.13323,1.19904 0.73275,0.13322 0.0999,-1.36556 h 1.29895 l 0.16653,1.63201 1.32515,-0.57527 -0.5329,-1.39887 0.73274,-0.4996 1.0325,1.23234 c 0,0 -0.29975,1.43218 -0.73274,1.46548 -0.43298,0.0333 -4.22282,0.40874 -4.22282,0.40874 l -1.16572,-0.96588 z"
       id="path20143"
       sodipodi:nodetypes="ccccccccccccsccc" />
    <path
       style="fill:#ffffff;fill-opacity:1;stroke:none;stroke-width:0.79375;stroke-miterlimit:4;stroke-dasharray:none;stroke-opacity:1;stop-color:#000000"
       d="m 73.69371,41.709655 c -1.057995,3.54022 -2.604299,6.51075 -12.166962,4.150603 -9.562664,-2.360147 -8.016359,-4.964445 -7.65013,-7.283901 -0.366229,3.377451 18.108021,8.545358 19.817092,3.133298 z"
       id="path21218"
       sodipodi:nodetypes="cscc" />
    <path
       style="fill:#ffffff;fill-opacity:1;stroke:none;stroke-width:0.79375;stroke-miterlimit:4;stroke-dasharray:none;stroke-opacity:1;stop-color:#000000"
       d="m 62.950806,41.790872 -0.244152,-1.627688 -0.935921,1.342843 z"
       id="path23755" />
    <path
       style="fill:#000000;fill-opacity:1;stroke:none;stroke-width:0.79375;stroke-miterlimit:4;stroke-dasharray:none;stroke-opacity:1;stop-color:#000000"
       d="m 54.730985,39.756262 -0.406921,0.813845 1.993916,1.180071 0.284845,-0.77315 1.546304,0.651074 -0.488307,1.09869 2.197378,0.610383 0.488307,-0.935921 2.156685,0.691766 -0.122076,1.057998 2.44153,0.284845 0.08139,-1.139381 h 2.522916 v 1.261457 l 1.627685,0.04069 0.08139,-1.017305 1.831147,-0.244152 0.366231,1.017305 1.017305,-0.447615 0.08138,-1.709073 H 62.29973 Z"
       id="path24180" />
    <path
       style="fill:#000000;fill-opacity:1;stroke:none;stroke-width:0.79375;stroke-miterlimit:4;stroke-dasharray:none;stroke-opacity:1;stop-color:#000000"
       d="m 54.812369,44.151018 0.895228,-1.383533 1.912532,0.691766 -0.56969,1.709071 1.993919,0.651076 0.406921,-1.424228 2.848451,0.773152 v 1.220766 l 2.522916,0.610383 c 0,0 -0.447614,-0.895228 -0.244152,-0.895228 0.203462,0 2.848454,0.04069 2.848454,0.04069 l -0.04069,1.098688 1.627687,-0.04069 0.122076,-1.831147 1.953226,-0.447614 0.325535,1.87184 c 0,0 -7.690821,1.424225 -7.934975,1.302149 -0.244153,-0.122076 -6.388672,-1.302149 -6.673517,-1.586995 -0.284845,-0.284845 -1.709071,-2.278761 -1.709071,-2.278761 z"
       id="path25506" />
    <path
       id="path25893"
       style="fill:#000000;fill-opacity:1;stroke-width:0.264582px;-inkscape-stroke:none;stop-color:#000000"
       d="m 117.69936,78.798869 -0.95794,0.826378 0.47187,3.227959 c -7.91488,-2.917084 -10.1092,3.231627 -9.89525,6.355643 0.21725,3.171153 3.36033,5.094855 5.39513,5.141295 2.15268,2.277455 5.80022,1.915845 8.0292,0.370543 4.27619,1.956162 8.40011,-2.739792 8.21991,-6.042893 -0.17799,-3.262104 -2.57888,-7.447267 -11.06479,-5.752553 l 0.58924,-3.736474 z" />
    <path
       id="path26123"
       style="fill:#000000;fill-opacity:1;stroke-width:0.264582px;-inkscape-stroke:none;stop-color:#000000"
       d="m 84.80077,98.388689 c 0.208854,-0.02405 0.412199,0.02452 0.542083,0.170477 l -0.323731,1.959294 c 4.508459,-2.318865 5.669561,0.82844 6.13592,3.41814 0.479567,2.66301 0.176222,5.88513 -2.582356,5.47797 -0.602223,1.05178 -3.16889,1.33572 -3.866994,0.95089 -1.626633,1.50239 -4.357074,-1.03205 -4.883401,-3.79654 -0.518726,-2.72456 -0.639374,-5.52491 4.574075,-5.82909 l -0.06079,-2.174613 c 0.136951,-0.09512 0.302758,-0.157789 0.465198,-0.176531 z" />
  </g>
</svg>
