<?xml version="1.0" encoding="UTF-8" standalone="no"?>
<svg
   xmlns:dc="http://purl.org/dc/elements/1.1/"
   xmlns:cc="http://creativecommons.org/ns#"
   xmlns:rdf="http://www.w3.org/1999/02/22-rdf-syntax-ns#"
   xmlns:svg="http://www.w3.org/2000/svg"
   xmlns="http://www.w3.org/2000/svg"
   xmlns:sodipodi="http://sodipodi.sourceforge.net/DTD/sodipodi-0.dtd"
   xmlns:inkscape="http://www.inkscape.org/namespaces/inkscape"
   height="24px"
   viewBox="0 0 24 24"
   width="24px"
   fill="#000000"
   version="1.1"
   id="svg6"
   sodipodi:docname="phonelink_setup_black_24dp.svg"
   inkscape:version="1.0.1 (3bc2e813f5, 2020-09-07)">
  <metadata
     id="metadata12">
    <rdf:RDF>
      <cc:Work
         rdf:about="">
        <dc:format>image/svg+xml</dc:format>
        <dc:type
           rdf:resource="http://purl.org/dc/dcmitype/StillImage" />
        <dc:title></dc:title>
      </cc:Work>
    </rdf:RDF>
  </metadata>
  <defs
     id="defs10" />
  <sodipodi:namedview
     pagecolor="#ffffff"
     bordercolor="#666666"
     borderopacity="1"
     objecttolerance="10"
     gridtolerance="10"
     guidetolerance="10"
     inkscape:pageopacity="0"
     inkscape:pageshadow="2"
     inkscape:window-width="1825"
     inkscape:window-height="1046"
     id="namedview8"
     showgrid="false"
     inkscape:pagecheckerboard="true"
     inkscape:zoom="35.333333"
     inkscape:cx="12"
     inkscape:cy="12"
     inkscape:window-x="-11"
     inkscape:window-y="-11"
     inkscape:window-maximized="1"
     inkscape:current-layer="svg6" />
  <path
     d="M0 0h24v24H0z"
     fill="none"
     id="path2" />
  <path
     d="M10.82 12.49c.02-.16.04-.32.04-.49 0-.17-.02-.33-.04-.49l1.08-.82c.1-.07.12-.21.06-.32l-1.03-1.73c-.06-.11-.2-.15-.31-.11l-1.28.5c-.27-.2-.56-.36-.87-.49l-.2-1.33c0-.12-.11-.21-.24-.21H5.98c-.13 0-.24.09-.26.21l-.2 1.32c-.31.12-.6.3-.87.49l-1.28-.5c-.12-.05-.25 0-.31.11l-1.03 1.73c-.06.12-.03.25.07.33l1.08.82c-.02.16-.03.33-.03.49 0 .17.02.33.04.49l-1.09.83c-.1.07-.12.21-.06.32l1.03 1.73c.06.11.2.15.31.11l1.28-.5c.27.2.56.36.87.49l.2 1.32c.01.12.12.21.25.21h2.06c.13 0 .24-.09.25-.21l.2-1.32c.31-.12.6-.3.87-.49l1.28.5c.12.05.25 0 .31-.11l1.03-1.73c.06-.11.04-.24-.06-.32l-1.1-.83zM7 13.75c-.99 0-1.8-.78-1.8-1.75s.81-1.75 1.8-1.75 1.8.78 1.8 1.75S8 13.75 7 13.75zM18 1.01L8 1c-1.1 0-2 .9-2 2v3h2V5h10v14H8v-1H6v3c0 1.1.9 2 2 2h10c1.1 0 2-.9 2-2V3c0-1.1-.9-1.99-2-1.99z"
     id="path4"
     style="fill:#ffffff" />
</svg>
