<?xml version="1.0" encoding="utf-8"?>
<!-- Generator: Adobe Illustrator 26.0.1, SVG Export Plug-In . SVG Version: 6.00 Build 0)  -->
<svg version="1.1" id="Layer_1" xmlns="http://www.w3.org/2000/svg" xmlns:xlink="http://www.w3.org/1999/xlink" x="0px" y="0px"
	 viewBox="0 0 1920 1080" style="enable-background:new 0 0 1920 1080;" xml:space="preserve">
<style type="text/css">
	.st0{fill:url(#SVGID_1_);}
	.st1{fill:#FFFFFF;}
</style>
<linearGradient id="SVGID_1_" gradientUnits="userSpaceOnUse" x1="-69.354" y1="535.7021" x2="1979.438" y2="544.2565">
	<stop  offset="0" style="stop-color:#183A67"/>
	<stop  offset="0.5307" style="stop-color:#528CB2"/>
	<stop  offset="1" style="stop-color:#1E4473"/>
</linearGradient>
<rect x="-63.5" y="-73.5" class="st0" width="2047" height="1227"/>
<g>
	<g>
		<path class="st1" d="M778.84,615.19h-11.05v0.57c2.11,0.34,2.79,1.59,2.79,4.39v32.63c0,3.02-1.02,4.16-2.79,4.39v0.57h13.16
			v-0.57c-1.71-0.23-2.79-0.91-2.79-4.56v-34.11c0.74-0.11,2.39-0.11,2.9-0.11c3.76,0,8.77,2.62,8.77,8.49
			c0,5.3-4.04,8.14-8.26,8.14c-0.97,0-1.14,0-1.59-0.11l1.71,3.42c0.23,0.06,1.14,0.17,2.28,0.17c8.14,0,13.73-4.73,13.73-11.62
			C797.69,614.05,781.57,615.19,778.84,615.19z"/>
		<path class="st1" d="M989.98,654.43h-4.67c-2.22,0-3.3-0.51-3.3-2.79v-31.61c0-3.76,1.71-4.27,2.68-4.27v-0.57h-13.27v0.57
			c1.88,0,3.02,1.59,3.02,4.39v32.63c0,3.02-1.03,4.27-2.68,4.39v0.57h26.37l2.85-6.55l-0.57-0.29
			C998.87,653.58,994.88,654.43,989.98,654.43z"/>
		<path class="st1" d="M1209.73,654.14l-14.81-38.96h-8.03v0.57c0.4,0,2.39,0.4,1.42,3.02l-13.21,35.65
			c-0.57,1.6-1.77,2.73-3.02,2.73v0.57h7.97v-0.57c-1.31,0-1.88-1.42-1.37-2.85l3.99-11.05h14.98l3.93,10.88
			c0.57,1.59,0.34,3.02-1.59,3.02v0.57h12.81v-0.57C1211.21,657.16,1210.36,655.85,1209.73,654.14z M1183.82,640.08l6.27-17.37
			l6.44,17.37H1183.82z"/>
		<path class="st1" d="M1407.21,615.76c1.65,0,2.79,1.48,1.48,3.93l-8.77,16.57l-9.45-17.14c-0.8-1.48-0.23-3.36,1.54-3.36v-0.57
			H1378v0.57c0.74,0,1.94,0.4,2.79,1.88l13.1,22.72v13.21c0,2.28-1.6,3.47-2.73,3.59v0.57h13.1v-0.57c-1.88,0-2.91-1.88-2.91-3.53
			v-12.87l11.62-21.47c1.2-2.28,1.94-3.3,3.76-3.53v-0.57h-9.51V615.76z"/>
		<path class="st1" d="M825.54,553.39v-92.22c0-16.42,1.86-16.63,7.39-17.24l1.7-0.19v-5.55h-48.87v5.58l1.73,0.16
			c6.39,0.59,8.51,3.06,8.51,16.47v76.76c0,12.45-7.24,35.99-34.63,35.99c-19.55,0-30.77-12.48-30.77-34.25V457.3
			c0-8.12,1.15-12.66,7.21-13.38l1.68-0.2v-5.54h-48.48v5.64l1.79,0.11c4.63,0.28,8.45,1.49,8.45,13.56V536
			c0,40.08,29.25,54.31,54.31,54.31c23.07,0,35.7-8.8,42.58-17.84c0.46,5.28,1.52,10.19,2.18,12.57l0.39,1.4h35.26v-5.67l-1.83-0.08
			C827.23,580.39,825.54,575.03,825.54,553.39z"/>
		<path class="st1" d="M881.4,567.12V422.27l-37.57,8.04l1.05,5.79l1.85-0.3c2.58-0.42,4.37-0.17,5.46,0.76
			c2.37,2.02,2.57,7.88,2.57,14.76v115.23c0,10.12-0.6,13.7-7.3,14.14l-1.79,0.12v5.63h45.58v-5.75h-1.91
			C885.94,580.68,881.4,579.28,881.4,567.12z"/>
		<path class="st1" d="M960.98,570.38c-5.38,3.65-10.77,5.66-15.17,5.66c-3.11,0-5.39-0.79-6.99-2.42
			c-3.53-3.59-3.41-10.82-3.31-17.2c0.02-1.04,0.03-2.06,0.03-3.03v-54.35h24.94v-13.1h-24.94v-38.23l-25.86,17.47v20.76h-15.85
			v13.1h14.89v60.54c0,20.41,9.23,30.33,28.2,30.33c8.45,0,20.18-1.74,26.25-5.07l0.8-0.44l2.43-13.6l-4.77-0.87L960.98,570.38z"/>
		<path class="st1" d="M1025.08,482.08c-11.53,0-18.83,7.05-22.84,12.71v-11.98l-34.48,7.03l1.05,5.76l1.8-0.24
			c2.01-0.27,3.3-0.04,4.19,0.73c1.84,1.61,2.74,6,2.74,13.42v57.04c0,12.16-3.05,12.97-7.67,14.2l-1.42,0.38v5.31h45.58v-5.41
			l-1.54-0.3c-5.54-1.08-8.12-5.4-8.12-13.59v-39.64c0-13.17,6.45-26.51,18.78-26.51c5.23,0,8.66,2.24,10.18,6.64l0.44,1.28h5.98
			v-22.5l-0.91-0.56C1034.72,483.31,1030.22,482.08,1025.08,482.08z"/>
		<path class="st1" d="M1125.97,555.91v-33.25c0-15.7,0-39.42-41.93-39.42c-19.45,0-33.06,9.15-33.19,9.24l-0.73,0.51l-1.77,21.23
			l5.42,0.83l1.07-1.47c7.65-10.67,16.76-16.08,27.07-16.08c11.71,0,17.04,8.03,17.04,15.49v13.37c-39,0.35-58.78,11.46-58.78,33.03
			c0,18.19,13.8,29.94,35.17,29.94c11.96,0,21.75-5.25,27.12-11c0.48,2.24,0.88,4.6,1.15,6.46l0.23,1.64h33.53v-5.6l-1.75-0.15
			C1128.41,580.09,1125.97,573.83,1125.97,555.91z M1071.42,546.48c5.87-5.85,17.13-6.27,25.48-6.27c0.71,0,1.39,0,2.05,0.01v12.6
			c0,6.14-3.16,22.07-17.62,22.07c-8.99,0-13.95-6.19-13.95-17.42C1067.39,552.77,1068.71,549.18,1071.42,546.48z"/>
		<path class="st1" d="M1203.64,500.49c-1.85-1.14-3.59-2.22-5.04-3.2c-2.86-1.94-5.53-3.66-8.11-5.33
			c-12.39-7.99-19.86-12.82-19.86-22.87c0-9.08,6.2-18.78,23.61-18.78c14.69,0,25.27,8.19,28.3,21.9l0.33,1.5h5.96v-35.33h-5.49
			l-0.57,0.67c-0.31,0.36-1.58,0.52-3.81,0.5l-0.54,0c-1.77,0-4.01-0.5-6.86-1.13c-4.82-1.07-11.42-2.54-20.4-2.54
			c-25.71,0-43.67,16.85-43.67,40.96c0,24.28,15.38,33.91,31.67,44.11c1.84,1.15,3.7,2.32,5.55,3.51
			c17.75,11.47,29.48,19.04,29.48,31.46c0,10.64-11.22,18.97-25.54,18.97c-18.28,0-33.8-12.56-36.82-24.28l-0.37-1.43h-6.01
			l5.39,37.27h5.58l0.49-0.73c0.8-0.43,3.81-0.43,5.45-0.43c0.53,0,1.85,0.41,3.25,0.84c4.16,1.28,11.12,3.42,21.69,3.42
			c47.16,0,50.83-31.21,50.83-40.77C1238.11,521.85,1216.53,508.48,1203.64,500.49z"/>
		<path class="st1" d="M1311.49,570.38c-5.38,3.65-10.77,5.66-15.17,5.66c-3.1,0-5.39-0.79-6.99-2.42
			c-3.53-3.59-3.41-10.82-3.31-17.2c0.02-1.04,0.03-2.06,0.03-3.03v-54.35h24.94v-13.1h-24.94v-38.23l-25.86,17.47v20.76h-15.85
			v13.1h14.89v60.54c0,20.41,9.23,30.33,28.2,30.33c8.45,0,20.18-1.74,26.25-5.07l0.8-0.44l2.43-13.6l-4.77-0.87L1311.49,570.38z"/>
		<path class="st1" d="M1379.89,578.33c0.48,2.24,0.88,4.6,1.15,6.46l0.24,1.64h33.53v-5.6l-1.75-0.15
			c-7.22-0.6-9.66-6.85-9.66-24.78v-33.25c0-15.7,0-39.42-41.93-39.42c-19.45,0-33.06,9.15-33.19,9.24l-0.73,0.51l-1.77,21.23
			l5.42,0.83l1.07-1.47c7.65-10.67,16.76-16.08,27.07-16.08c11.71,0,17.04,8.03,17.04,15.49v13.37c-39,0.35-58.78,11.46-58.78,33.03
			c0,18.19,13.8,29.94,35.16,29.94C1364.73,589.33,1374.52,584.09,1379.89,578.33z M1348.85,546.48c5.87-5.85,17.13-6.27,25.48-6.27
			c0.71,0,1.39,0,2.05,0.01v12.6c0,6.14-3.16,22.07-17.62,22.07c-8.99,0-13.95-6.19-13.95-17.42
			C1344.82,552.77,1346.14,549.18,1348.85,546.48z"/>
		<path class="st1" d="M1492.59,485.84c-4.12-2.53-8.62-3.76-13.76-3.76c-11.53,0-18.83,7.05-22.84,12.71v-11.98l-34.48,7.03
			l1.05,5.76l1.81-0.24c2.01-0.27,3.3-0.04,4.19,0.73c1.84,1.61,2.74,6,2.74,13.42v57.04c0,12.16-3.05,12.97-7.67,14.2l-1.42,0.38
			v5.31h45.58v-5.41l-1.54-0.3c-5.54-1.08-8.12-5.4-8.12-13.59v-39.64c0-13.17,6.45-26.51,18.78-26.51c5.23,0,8.66,2.24,10.18,6.64
			l0.44,1.28h5.98v-22.5L1492.59,485.84z"/>
	</g>
	<path class="st1" d="M652.64,517.93L464.72,409.46c-16.99-9.82-38.22,2.43-38.22,22.03v217.02c0,19.6,21.23,31.85,38.22,22.03
		l102.98-59.45c-0.09-0.58-0.22-1.15-0.4-1.73c-1.42-0.09-2.96-0.75-4.03-1.86l-9.6-9.6c-0.44-2.61,0.31-5.35,2.3-7.3
		c1.81-1.86,4.56-2.74,7.3-2.21l9.47,9.51c1.99,1.95,2.52,4.82,1.55,7.3c0.18,0.58,0.35,1.19,0.53,1.77l77.81-44.9
		C669.62,552.25,669.62,527.75,652.64,517.93z M484.45,547.79c-9.16-9.16-10.26-23.14-2.39-30.97c7.96-7.96,21.85-6.9,31.1,2.39
		c4.16,4.25,6.68,9.51,7.34,14.64c-5.49,0.53-10.62,2.92-14.55,6.77c-3.89,3.89-6.33,9.16-6.77,14.6
		C493.96,554.46,488.74,552.08,484.45,547.79z M553.55,588.17c-1.95,1.99-3.05,4.38-3.27,6.99l-44.32-35.48
		c-0.75-5.22,1.02-10.44,4.82-14.29c3.72-3.72,9.07-5.44,14.29-4.78l35.48,44.41C557.93,585.25,555.41,586.31,553.55,588.17z"/>
</g>
</svg>
