<?xml version="1.0" encoding="UTF-8" standalone="no"?>
<svg
   xmlns:dc="http://purl.org/dc/elements/1.1/"
   xmlns:cc="http://creativecommons.org/ns#"
   xmlns:rdf="http://www.w3.org/1999/02/22-rdf-syntax-ns#"
   xmlns:svg="http://www.w3.org/2000/svg"
   xmlns="http://www.w3.org/2000/svg"
   xmlns:sodipodi="http://sodipodi.sourceforge.net/DTD/sodipodi-0.dtd"
   xmlns:inkscape="http://www.inkscape.org/namespaces/inkscape"
   enable-background="new 0 0 24 24"
   height="24px"
   viewBox="0 0 24 24"
   width="24px"
   fill="#000000"
   version="1.1"
   id="svg14"
   sodipodi:docname="touch_app_white_24dp.svg"
   inkscape:version="1.0.1 (3bc2e813f5, 2020-09-07)">
  <metadata
     id="metadata20">
    <rdf:RDF>
      <cc:Work
         rdf:about="">
        <dc:format>image/svg+xml</dc:format>
        <dc:type
           rdf:resource="http://purl.org/dc/dcmitype/StillImage" />
        <dc:title></dc:title>
      </cc:Work>
    </rdf:RDF>
  </metadata>
  <defs
     id="defs18" />
  <sodipodi:namedview
     pagecolor="#ffffff"
     bordercolor="#666666"
     borderopacity="1"
     objecttolerance="10"
     gridtolerance="10"
     guidetolerance="10"
     inkscape:pageopacity="0"
     inkscape:pageshadow="2"
     inkscape:window-width="1825"
     inkscape:window-height="1046"
     id="namedview16"
     showgrid="false"
     inkscape:pagecheckerboard="true"
     inkscape:zoom="35.833333"
     inkscape:cx="12"
     inkscape:cy="12"
     inkscape:window-x="-11"
     inkscape:window-y="-11"
     inkscape:window-maximized="1"
     inkscape:current-layer="svg14" />
  <g
     id="g4">
    <rect
       fill="none"
       height="24"
       width="24"
       x="0"
       id="rect2" />
  </g>
  <g
     id="g12"
     style="fill:#ffffff">
    <g
       id="g10"
       style="fill:#ffffff">
      <g
         id="g8"
         style="fill:#ffffff">
        <path
           d="M9,11.24V7.5C9,6.12,10.12,5,11.5,5S14,6.12,14,7.5v3.74c1.21-0.81,2-2.18,2-3.74C16,5.01,13.99,3,11.5,3S7,5.01,7,7.5 C7,9.06,7.79,10.43,9,11.24z M18.84,15.87l-4.54-2.26c-0.17-0.07-0.35-0.11-0.54-0.11H13v-6C13,6.67,12.33,6,11.5,6 S10,6.67,10,7.5v10.74c-3.6-0.76-3.54-0.75-3.67-0.75c-0.31,0-0.59,0.13-0.79,0.33l-0.79,0.8l4.94,4.94 C9.96,23.83,10.34,24,10.75,24h6.79c0.75,0,1.33-0.55,1.44-1.28l0.75-5.27c0.01-0.07,0.02-0.14,0.02-0.2 C19.75,16.63,19.37,16.09,18.84,15.87z"
           id="path6"
           style="fill:#ffffff" />
      </g>
    </g>
  </g>
</svg>
