<?xml version="1.0" encoding="UTF-8" standalone="no"?>
<!-- Uploaded to: SVG Repo, www.svgrepo.com, Generator: SVG Repo Mixer Tools -->

<svg
   version="1.1"
   id="_x32_"
   viewBox="0 0 64 64"
   xml:space="preserve"
   sodipodi:docname="DuetIcon.svg"
   inkscape:version="1.2.1 (9c6d41e410, 2022-07-14)"
   width="64"
   height="64"
   inkscape:export-filename="DuetIcon.png"
   inkscape:export-xdpi="96"
   inkscape:export-ydpi="96"
   xmlns:inkscape="http://www.inkscape.org/namespaces/inkscape"
   xmlns:sodipodi="http://sodipodi.sourceforge.net/DTD/sodipodi-0.dtd"
   xmlns="http://www.w3.org/2000/svg"
   xmlns:svg="http://www.w3.org/2000/svg"><defs
   id="defs25">
	
		
	
	
	
	
	
	
	
</defs><sodipodi:namedview
   id="namedview23"
   pagecolor="#505050"
   bordercolor="#ffffff"
   borderopacity="1"
   inkscape:showpageshadow="0"
   inkscape:pageopacity="0"
   inkscape:pagecheckerboard="1"
   inkscape:deskcolor="#505050"
   showgrid="false"
   inkscape:zoom="12.96875"
   inkscape:cx="13.262651"
   inkscape:cy="14.303614"
   inkscape:window-width="2560"
   inkscape:window-height="1411"
   inkscape:window-x="1911"
   inkscape:window-y="-9"
   inkscape:window-maximized="1"
   inkscape:current-layer="_x32_" />
<style
   type="text/css"
   id="style2">
	.st0{fill:#000000;}
</style>

<g
   id="g341"
   transform="matrix(1.2123116,0,0,1.2123116,0.12941682,12.652722)"
   style="stroke-width:0.824869"><g
     id="g145"
     style="stroke-width:0.824869"><rect
       x="-23.323025"
       y="-21.817644"
       transform="rotate(-135)"
       class="st0"
       width="1.5106549"
       height="4.0754828"
       id="rect4"
       style="fill:#ffffff;stroke-width:0.824859" /><polygon
       class="st0"
       points="17.133,511.66 0.17,494.699 46.394,448.809 63.188,465.945 "
       id="polygon6"
       style="fill:#ffffff;stroke-width:13.2309"
       transform="matrix(0.06234449,0,0,0.06234449,-0.00349666,-0.00129226)" /><path
       class="st0"
       d="M 16.435624,9.2003808 2.7068055,25.713691 6.2019,29.208785 22.715211,15.479905 Z M 6.2019,29.208849 22.715211,15.479968"
       id="path8"
       style="fill:#ffffff;stroke-width:0.824869" /><path
       class="st0"
       d="M 2.7173417,25.703155 16.447033,9.2098572 22.704612,15.490317 6.2028353,29.188586 Z"
       id="path10"
       style="fill:#ffffff;stroke-width:0.824869" /><path
       class="st0"
       d="m 17.029704,7.5125283 7.373359,7.3733587 c 1.840534,0.0212 3.682876,-0.64963 5.126338,-1.987667 L 19.017309,2.38619 C 17.679334,3.8295897 17.00857,5.6719943 17.029704,7.5125283 Z"
       id="path12"
       style="fill:#ffffff;stroke-width:0.824869" /><path
       class="st0"
       d="M 24.403126,14.871048 17.040241,7.5019921 C 17.022847,5.6168193 17.727277,3.8000384 19.028219,2.3965393 L 29.518803,12.908693 c -1.379746,1.258112 -3.166539,1.962854 -5.030889,1.962854 z"
       id="path14"
       style="fill:#ffffff;stroke-width:0.824869" /><path
       class="st0"
       d="M 29.740874,2.1747799 C 27.262867,-0.30328898 23.474816,-0.66176981 20.608341,1.0835019 L 30.832089,11.307188 C 32.577361,8.4407132 32.21888,4.6527241 29.740874,2.1747799 Z"
       id="path16"
       style="fill:#ffffff;stroke-width:0.824869" /><path
       class="st0"
       d="m 20.619002,1.0729034 c 1.160293,-0.68479196 2.498269,-1.05935767 3.866481,-1.05935767 1.981743,0 3.84441,0.77126372 5.244854,2.17158337 2.424889,2.4250761 2.875515,6.1635636 1.098822,9.0979319 z"
       id="path18"
       style="fill:#ffffff;stroke-width:0.824869" /></g><g
     id="g217"
     transform="translate(20.66506)"
     style="stroke-width:0.824869"><rect
       x="-23.323025"
       y="-21.817644"
       transform="rotate(-135)"
       class="st0"
       width="1.5106549"
       height="4.0754828"
       id="rect201"
       style="fill:#ffffff;stroke-width:0.824859" /><polygon
       class="st0"
       points="0.17,494.699 46.394,448.809 63.188,465.945 17.133,511.66 "
       id="polygon203"
       style="fill:#ffffff;stroke-width:13.2309"
       transform="matrix(0.06234449,0,0,0.06234449,-0.00349666,-0.00129226)" /><path
       class="st0"
       d="M 16.435624,9.2003808 2.7068055,25.713691 6.2019,29.208785 22.715211,15.479905 Z M 6.2019,29.208849 22.715211,15.479968"
       id="path205"
       style="fill:#ffffff;stroke-width:0.824869" /><path
       class="st0"
       d="M 2.7173417,25.703155 16.447033,9.2098572 22.704612,15.490317 6.2028353,29.188586 Z"
       id="path207"
       style="fill:#ffffff;stroke-width:0.824869" /><path
       class="st0"
       d="m 17.029704,7.5125283 7.373359,7.3733587 c 1.840534,0.0212 3.682876,-0.64963 5.126338,-1.987667 L 19.017309,2.38619 C 17.679334,3.8295897 17.00857,5.6719943 17.029704,7.5125283 Z"
       id="path209"
       style="fill:#ffffff;stroke-width:0.824869" /><path
       class="st0"
       d="M 24.403126,14.871048 17.040241,7.5019921 C 17.022847,5.6168193 17.727277,3.8000384 19.028219,2.3965393 L 29.518803,12.908693 c -1.379746,1.258112 -3.166539,1.962854 -5.030889,1.962854 z"
       id="path211"
       style="fill:#ffffff;stroke-width:0.824869" /><path
       class="st0"
       d="M 29.740874,2.1747799 C 27.262867,-0.30328898 23.474816,-0.66176981 20.608341,1.0835019 L 30.832089,11.307188 C 32.577361,8.4407132 32.21888,4.6527241 29.740874,2.1747799 Z"
       id="path213"
       style="fill:#ffffff;stroke-width:0.824869" /><path
       class="st0"
       d="m 20.619002,1.0729034 c 1.160293,-0.68479196 2.498269,-1.05935767 3.866481,-1.05935767 1.981743,0 3.84441,0.77126372 5.244854,2.17158337 2.424889,2.4250761 2.875515,6.1635636 1.098822,9.0979319 z"
       id="path215"
       style="fill:#ffffff;stroke-width:0.824869" /></g></g></svg>
