<?xml version="1.0" encoding="UTF-8" standalone="no"?>
<!-- Created with Inkscape (http://www.inkscape.org/) -->

<svg
   version="1.1"
   id="svg2"
   width="750"
   height="750"
   viewBox="0 0 750 750"
   sodipodi:docname="LeadingPlayerCrown.svg"
   inkscape:version="1.2.1 (9c6d41e410, 2022-07-14)"
   xmlns:inkscape="http://www.inkscape.org/namespaces/inkscape"
   xmlns:sodipodi="http://sodipodi.sourceforge.net/DTD/sodipodi-0.dtd"
   xmlns="http://www.w3.org/2000/svg"
   xmlns:svg="http://www.w3.org/2000/svg">
  <defs
     id="defs6">
    <clipPath
       clipPathUnits="userSpaceOnUse"
       id="clipPath15362">
      <g
         id="g15366"
         style="stroke-width:1">
        <path
           d="M 0,660 H 660 V 0 H 0 Z"
           id="path15364"
           style="stroke-width:1" />
      </g>
    </clipPath>
    <clipPath
       clipPathUnits="userSpaceOnUse"
       id="clipPath15368">
      <g
         id="g15372"
         style="stroke-width:1">
        <path
           d="M 0,660 H 660 V 0 H 0 Z"
           id="path15370"
           style="stroke-width:1" />
      </g>
    </clipPath>
    <clipPath
       clipPathUnits="userSpaceOnUse"
       id="clipPath15374">
      <g
         id="g15378"
         style="stroke-width:1">
        <path
           d="M 0,660 H 660 V 0 H 0 Z"
           id="path15376"
           style="stroke-width:1" />
      </g>
    </clipPath>
    <clipPath
       clipPathUnits="userSpaceOnUse"
       id="clipPath15380">
      <g
         id="g15384"
         style="stroke-width:1">
        <path
           d="M 0,660 H 660 V 0 H 0 Z"
           id="path15382"
           style="stroke-width:1" />
      </g>
    </clipPath>
    <clipPath
       clipPathUnits="userSpaceOnUse"
       id="clipPath15386">
      <g
         id="g15390"
         style="stroke-width:1">
        <path
           d="M 0,660 H 660 V 0 H 0 Z"
           id="path15388"
           style="stroke-width:1" />
      </g>
    </clipPath>
    <clipPath
       clipPathUnits="userSpaceOnUse"
       id="clipPath15392">
      <g
         id="g15396"
         style="stroke-width:1">
        <path
           d="M 0,660 H 660 V 0 H 0 Z"
           id="path15394"
           style="stroke-width:1" />
      </g>
    </clipPath>
    <clipPath
       clipPathUnits="userSpaceOnUse"
       id="clipPath15398">
      <g
         id="g15402"
         style="stroke-width:1">
        <path
           d="M 0,660 H 660 V 0 H 0 Z"
           id="path15400"
           style="stroke-width:1" />
      </g>
    </clipPath>
    <clipPath
       clipPathUnits="userSpaceOnUse"
       id="clipPath15404">
      <g
         id="g15408"
         style="stroke-width:1">
        <path
           d="M 0,660 H 660 V 0 H 0 Z"
           id="path15406"
           style="stroke-width:1" />
      </g>
    </clipPath>
    <clipPath
       clipPathUnits="userSpaceOnUse"
       id="clipPath15410">
      <g
         id="g15414"
         style="stroke-width:1">
        <path
           d="M 0,660 H 660 V 0 H 0 Z"
           id="path15412"
           style="stroke-width:1" />
      </g>
    </clipPath>
    <clipPath
       clipPathUnits="userSpaceOnUse"
       id="clipPath15416">
      <g
         id="g15420"
         style="stroke-width:1">
        <path
           d="M 0,660 H 660 V 0 H 0 Z"
           id="path15418"
           style="stroke-width:1" />
      </g>
    </clipPath>
    <clipPath
       clipPathUnits="userSpaceOnUse"
       id="clipPath15422">
      <g
         id="g15426"
         style="stroke-width:1">
        <path
           d="M 0,660 H 660 V 0 H 0 Z"
           id="path15424"
           style="stroke-width:1" />
      </g>
    </clipPath>
    <clipPath
       clipPathUnits="userSpaceOnUse"
       id="clipPath15428">
      <g
         id="g15432"
         style="stroke-width:1">
        <path
           d="M 0,660 H 660 V 0 H 0 Z"
           id="path15430"
           style="stroke-width:1" />
      </g>
    </clipPath>
    <clipPath
       clipPathUnits="userSpaceOnUse"
       id="clipPath15434">
      <g
         id="g15438"
         style="stroke-width:1">
        <path
           d="M 0,660 H 660 V 0 H 0 Z"
           id="path15436"
           style="stroke-width:1" />
      </g>
    </clipPath>
    <clipPath
       clipPathUnits="userSpaceOnUse"
       id="clipPath15440">
      <g
         id="g15444"
         style="stroke-width:1">
        <path
           d="M 0,660 H 660 V 0 H 0 Z"
           id="path15442"
           style="stroke-width:1" />
      </g>
    </clipPath>
    <clipPath
       clipPathUnits="userSpaceOnUse"
       id="clipPath15446">
      <g
         id="g15450"
         style="stroke-width:1">
        <path
           d="M 0,660 H 660 V 0 H 0 Z"
           id="path15448"
           style="stroke-width:1" />
      </g>
    </clipPath>
    <clipPath
       clipPathUnits="userSpaceOnUse"
       id="clipPath15452">
      <g
         id="g15456"
         style="stroke-width:1">
        <path
           d="M 0,660 H 660 V 0 H 0 Z"
           id="path15454"
           style="stroke-width:1" />
      </g>
    </clipPath>
    <clipPath
       clipPathUnits="userSpaceOnUse"
       id="clipPath15458">
      <g
         id="g15462"
         style="stroke-width:1">
        <path
           d="M 0,660 H 660 V 0 H 0 Z"
           id="path15460"
           style="stroke-width:1" />
      </g>
    </clipPath>
    <clipPath
       clipPathUnits="userSpaceOnUse"
       id="clipPath15464">
      <g
         id="g15468"
         style="stroke-width:1">
        <path
           d="M 0,660 H 660 V 0 H 0 Z"
           id="path15466"
           style="stroke-width:1" />
      </g>
    </clipPath>
    <clipPath
       clipPathUnits="userSpaceOnUse"
       id="clipPath15470">
      <g
         id="g15474"
         style="stroke-width:1">
        <path
           d="M 0,660 H 660 V 0 H 0 Z"
           id="path15472"
           style="stroke-width:1" />
      </g>
    </clipPath>
    <clipPath
       clipPathUnits="userSpaceOnUse"
       id="clipPath15476">
      <g
         id="g15480"
         style="stroke-width:1">
        <path
           d="M 0,660 H 660 V 0 H 0 Z"
           id="path15478"
           style="stroke-width:1" />
      </g>
    </clipPath>
    <clipPath
       clipPathUnits="userSpaceOnUse"
       id="clipPath15482">
      <g
         id="g15486"
         style="stroke-width:1">
        <path
           d="M 0,660 H 660 V 0 H 0 Z"
           id="path15484"
           style="stroke-width:1" />
      </g>
    </clipPath>
    <clipPath
       clipPathUnits="userSpaceOnUse"
       id="clipPath15488">
      <g
         id="g15492"
         style="stroke-width:1">
        <path
           d="M 0,660 H 660 V 0 H 0 Z"
           id="path15490"
           style="stroke-width:1" />
      </g>
    </clipPath>
    <clipPath
       clipPathUnits="userSpaceOnUse"
       id="clipPath15494">
      <g
         id="g15498"
         style="stroke-width:1">
        <path
           d="M 0,660 H 660 V 0 H 0 Z"
           id="path15496"
           style="stroke-width:1" />
      </g>
    </clipPath>
    <clipPath
       clipPathUnits="userSpaceOnUse"
       id="clipPath15500">
      <g
         id="g15504"
         style="stroke-width:1">
        <path
           d="M 0,660 H 660 V 0 H 0 Z"
           id="path15502"
           style="stroke-width:1" />
      </g>
    </clipPath>
    <clipPath
       clipPathUnits="userSpaceOnUse"
       id="clipPath15506">
      <g
         id="g15510"
         style="stroke-width:1">
        <path
           d="M 0,660 H 660 V 0 H 0 Z"
           id="path15508"
           style="stroke-width:1" />
      </g>
    </clipPath>
    <clipPath
       clipPathUnits="userSpaceOnUse"
       id="clipPath15512">
      <g
         id="g15516"
         style="stroke-width:1">
        <path
           d="M 0,660 H 660 V 0 H 0 Z"
           id="path15514"
           style="stroke-width:1" />
      </g>
    </clipPath>
    <clipPath
       clipPathUnits="userSpaceOnUse"
       id="clipPath15518">
      <g
         id="g15522"
         style="stroke-width:1">
        <path
           d="M 0,660 H 660 V 0 H 0 Z"
           id="path15520"
           style="stroke-width:1" />
      </g>
    </clipPath>
    <clipPath
       clipPathUnits="userSpaceOnUse"
       id="clipPath15524">
      <g
         id="g15528"
         style="stroke-width:1">
        <path
           d="M 0,660 H 660 V 0 H 0 Z"
           id="path15526"
           style="stroke-width:1" />
      </g>
    </clipPath>
    <clipPath
       clipPathUnits="userSpaceOnUse"
       id="clipPath15530">
      <g
         id="g15534"
         style="stroke-width:1">
        <path
           d="M 0,660 H 660 V 0 H 0 Z"
           id="path15532"
           style="stroke-width:1" />
      </g>
    </clipPath>
    <clipPath
       clipPathUnits="userSpaceOnUse"
       id="clipPath15536">
      <g
         id="g15540"
         style="stroke-width:1">
        <path
           d="M 0,660 H 660 V 0 H 0 Z"
           id="path15538"
           style="stroke-width:1" />
      </g>
    </clipPath>
    <clipPath
       clipPathUnits="userSpaceOnUse"
       id="clipPath15542">
      <g
         id="g15546"
         style="stroke-width:1">
        <path
           d="M 0,660 H 660 V 0 H 0 Z"
           id="path15544"
           style="stroke-width:1" />
      </g>
    </clipPath>
    <clipPath
       clipPathUnits="userSpaceOnUse"
       id="clipPath15548">
      <g
         id="g15552"
         style="stroke-width:1">
        <path
           d="M 0,660 H 660 V 0 H 0 Z"
           id="path15550"
           style="stroke-width:1" />
      </g>
    </clipPath>
    <clipPath
       clipPathUnits="userSpaceOnUse"
       id="clipPath15554">
      <g
         id="g15558"
         style="stroke-width:1">
        <path
           d="M 0,660 H 660 V 0 H 0 Z"
           id="path15556"
           style="stroke-width:1" />
      </g>
    </clipPath>
    <clipPath
       clipPathUnits="userSpaceOnUse"
       id="clipPath15560">
      <g
         id="g15564"
         style="stroke-width:1">
        <path
           d="M 0,660 H 660 V 0 H 0 Z"
           id="path15562"
           style="stroke-width:1" />
      </g>
    </clipPath>
    <clipPath
       clipPathUnits="userSpaceOnUse"
       id="clipPath15566">
      <g
         id="g15570"
         style="stroke-width:1">
        <path
           d="M 0,660 H 660 V 0 H 0 Z"
           id="path15568"
           style="stroke-width:1" />
      </g>
    </clipPath>
    <clipPath
       clipPathUnits="userSpaceOnUse"
       id="clipPath15572">
      <g
         id="g15576"
         style="stroke-width:1">
        <path
           d="M 0,660 H 660 V 0 H 0 Z"
           id="path15574"
           style="stroke-width:1" />
      </g>
    </clipPath>
    <clipPath
       clipPathUnits="userSpaceOnUse"
       id="clipPath15578">
      <g
         id="g15582"
         style="stroke-width:1">
        <path
           d="M 0,660 H 660 V 0 H 0 Z"
           id="path15580"
           style="stroke-width:1" />
      </g>
    </clipPath>
    <clipPath
       clipPathUnits="userSpaceOnUse"
       id="clipPath15584">
      <g
         id="g15588"
         style="stroke-width:1">
        <path
           d="M 0,660 H 660 V 0 H 0 Z"
           id="path15586"
           style="stroke-width:1" />
      </g>
    </clipPath>
    <clipPath
       clipPathUnits="userSpaceOnUse"
       id="clipPath15590">
      <g
         id="g15594"
         style="stroke-width:1">
        <path
           d="M 0,660 H 660 V 0 H 0 Z"
           id="path15592"
           style="stroke-width:1" />
      </g>
    </clipPath>
    <clipPath
       clipPathUnits="userSpaceOnUse"
       id="clipPath15596">
      <g
         id="g15600"
         style="stroke-width:1">
        <path
           d="M 0,660 H 660 V 0 H 0 Z"
           id="path15598"
           style="stroke-width:1" />
      </g>
    </clipPath>
    <clipPath
       clipPathUnits="userSpaceOnUse"
       id="clipPath15602">
      <g
         id="g15606"
         style="stroke-width:1">
        <path
           d="M 0,660 H 660 V 0 H 0 Z"
           id="path15604"
           style="stroke-width:1" />
      </g>
    </clipPath>
    <clipPath
       clipPathUnits="userSpaceOnUse"
       id="clipPath15608">
      <g
         id="g15612"
         style="stroke-width:1">
        <path
           d="M 0,660 H 660 V 0 H 0 Z"
           id="path15610"
           style="stroke-width:1" />
      </g>
    </clipPath>
    <clipPath
       clipPathUnits="userSpaceOnUse"
       id="clipPath15614">
      <g
         id="g15618"
         style="stroke-width:1">
        <path
           d="M 0,660 H 660 V 0 H 0 Z"
           id="path15616"
           style="stroke-width:1" />
      </g>
    </clipPath>
    <clipPath
       clipPathUnits="userSpaceOnUse"
       id="clipPath15620">
      <g
         id="g15624"
         style="stroke-width:1">
        <path
           d="M 0,660 H 660 V 0 H 0 Z"
           id="path15622"
           style="stroke-width:1" />
      </g>
    </clipPath>
    <clipPath
       clipPathUnits="userSpaceOnUse"
       id="clipPath15626">
      <g
         id="g15630"
         style="stroke-width:1">
        <path
           d="M 0,660 H 660 V 0 H 0 Z"
           id="path15628"
           style="stroke-width:1" />
      </g>
    </clipPath>
    <clipPath
       clipPathUnits="userSpaceOnUse"
       id="clipPath15632">
      <g
         id="g15636"
         style="stroke-width:1">
        <path
           d="M 0,660 H 660 V 0 H 0 Z"
           id="path15634"
           style="stroke-width:1" />
      </g>
    </clipPath>
    <clipPath
       clipPathUnits="userSpaceOnUse"
       id="clipPath15638">
      <g
         id="g15642"
         style="stroke-width:1">
        <path
           d="M 0,660 H 660 V 0 H 0 Z"
           id="path15640"
           style="stroke-width:1" />
      </g>
    </clipPath>
    <clipPath
       clipPathUnits="userSpaceOnUse"
       id="clipPath15644">
      <g
         id="g15648"
         style="stroke-width:1">
        <path
           d="M 0,660 H 660 V 0 H 0 Z"
           id="path15646"
           style="stroke-width:1" />
      </g>
    </clipPath>
    <clipPath
       clipPathUnits="userSpaceOnUse"
       id="clipPath15650">
      <g
         id="g15654"
         style="stroke-width:1">
        <path
           d="M 0,660 H 660 V 0 H 0 Z"
           id="path15652"
           style="stroke-width:1" />
      </g>
    </clipPath>
    <clipPath
       clipPathUnits="userSpaceOnUse"
       id="clipPath15656">
      <g
         id="g15660"
         style="stroke-width:1">
        <path
           d="M 0,660 H 660 V 0 H 0 Z"
           id="path15658"
           style="stroke-width:1" />
      </g>
    </clipPath>
    <clipPath
       clipPathUnits="userSpaceOnUse"
       id="clipPath15662">
      <g
         id="g15666"
         style="stroke-width:1">
        <path
           d="M 0,660 H 660 V 0 H 0 Z"
           id="path15664"
           style="stroke-width:1" />
      </g>
    </clipPath>
    <clipPath
       clipPathUnits="userSpaceOnUse"
       id="clipPath15668">
      <g
         id="g15672"
         style="stroke-width:1">
        <path
           d="M 0,660 H 660 V 0 H 0 Z"
           id="path15670"
           style="stroke-width:1" />
      </g>
    </clipPath>
    <clipPath
       clipPathUnits="userSpaceOnUse"
       id="clipPath15674">
      <g
         id="g15678"
         style="stroke-width:1">
        <path
           d="M 0,660 H 660 V 0 H 0 Z"
           id="path15676"
           style="stroke-width:1" />
      </g>
    </clipPath>
    <clipPath
       clipPathUnits="userSpaceOnUse"
       id="clipPath15680">
      <g
         id="g15684"
         style="stroke-width:1">
        <path
           d="M 0,660 H 660 V 0 H 0 Z"
           id="path15682"
           style="stroke-width:1" />
      </g>
    </clipPath>
    <clipPath
       clipPathUnits="userSpaceOnUse"
       id="clipPath15686">
      <g
         id="g15690"
         style="stroke-width:1">
        <path
           d="M 0,660 H 660 V 0 H 0 Z"
           id="path15688"
           style="stroke-width:1" />
      </g>
    </clipPath>
  </defs>
  <sodipodi:namedview
     id="namedview4"
     pagecolor="#505050"
     bordercolor="#ffffff"
     borderopacity="1"
     inkscape:showpageshadow="0"
     inkscape:pageopacity="0"
     inkscape:pagecheckerboard="1"
     inkscape:deskcolor="#505050"
     showgrid="false"
     inkscape:zoom="0.91363636"
     inkscape:cx="255.02488"
     inkscape:cy="297.16418"
     inkscape:window-width="2560"
     inkscape:window-height="1411"
     inkscape:window-x="1911"
     inkscape:window-y="-9"
     inkscape:window-maximized="1"
     inkscape:current-layer="g10">
    <inkscape:page
       x="0"
       y="0"
       id="page8"
       width="750"
       height="750" />
  </sodipodi:namedview>
  <g
     id="g10"
     inkscape:groupmode="layer"
     inkscape:label="Page 1"
     transform="matrix(1.3333333,0,0,-1.3333333,-73.166665,736.21865)">
    <g
       id="g15720"
       transform="translate(5.7845072,-89.845506)">
      <path
         d="m 122.892,268.324 h 414.897 v -65.345 c 0,-18.491 -15.131,-33.624 -33.622,-33.624 H 156.514 c -18.492,0 -33.622,15.133 -33.622,33.624 z"
         style="fill:#f39c0f;fill-opacity:1;fill-rule:evenodd;stroke:none"
         id="path22"
         clip-path="url(#clipPath15680)" />
      <path
         d="m 537.789,223.469 v -20.49 c 0,-4.305 -0.821,-8.428 -2.311,-12.219 H 125.204 c -1.491,3.791 -2.312,7.914 -2.312,12.219 v 20.49 z"
         style="fill:#df8c16;fill-opacity:1;fill-rule:evenodd;stroke:none"
         id="path24"
         clip-path="url(#clipPath15674)" />
      <path
         d="m 532.557,284.028 -24.06,111.984 c -2.641,12.293 -10.205,21.735 -21.625,26.996 -11.422,5.262 -23.512,4.874 -34.573,-1.108 L 334.622,358.254 Z m -404.432,0 24.06,111.984 c 2.64,12.293 10.203,21.735 21.625,26.996 11.42,5.262 23.512,4.874 34.573,-1.108 l 117.675,-63.646 z"
         style="fill:#df8c16;fill-opacity:1;fill-rule:evenodd;stroke:none"
         id="path26"
         clip-path="url(#clipPath15668)" />
      <path
         d="m 468.477,329.46 -12.076,56.206 c -0.855,3.982 -2.96,6.609 -6.66,8.314 -3.695,1.702 -7.071,1.593 -10.647,-0.342 l -58.046,-31.393 z m -276.272,0 87.428,32.785 -58.045,31.393 c -3.578,1.935 -6.955,2.044 -10.648,0.342 -3.699,-1.705 -5.805,-4.332 -6.661,-8.314 z"
         style="fill:#b06f1d;fill-opacity:1;fill-rule:evenodd;stroke:none"
         id="path28"
         clip-path="url(#clipPath15662)" />
      <path
         d="M 585.885,337.154 556.449,227.295 c -3.633,-13.554 -15.5,-22.66 -29.531,-22.66 H 133.764 c -14.033,0 -25.9,9.106 -29.532,22.66 L 74.796,337.154 c -2.165,8.079 0.322,16.159 6.653,21.622 6.332,5.464 14.689,6.741 22.364,3.416 l 34.33,-14.869 c 27.869,-12.072 58.643,-6.207 80.119,15.269 l 73.505,73.504 c 21.245,21.246 55.902,21.246 77.147,0 l 73.506,-73.504 c 21.475,-21.476 52.25,-27.341 80.117,-15.269 l 34.332,14.869 c 7.674,3.325 16.031,2.048 22.361,-3.416 6.333,-5.463 8.82,-13.543 6.655,-21.622"
         style="fill:#fab40a;fill-opacity:1;fill-rule:evenodd;stroke:none"
         id="path30"
         clip-path="url(#clipPath15656)" />
      <path
         d="m 241.435,363.14 c 5.85,5.851 15.339,5.851 21.191,0 5.85,-5.852 5.85,-15.34 0,-21.191 l -11.861,-11.862 c -5.852,-5.851 -15.338,-5.851 -21.19,0 -5.852,5.852 -5.852,15.34 0,21.192 z m 151.96,25.851 -35.792,35.793 c -7.504,7.504 -17.392,11.255 -27.263,11.255 -9.871,0 -19.758,-3.751 -27.262,-11.255 l -35.792,-35.793 c -5.852,-5.85 -5.852,-15.338 0,-21.191 5.852,-5.851 15.339,-5.851 21.191,0 l 35.792,35.792 c 1.649,1.65 3.854,2.475 6.071,2.475 2.218,0 4.422,-0.824 6.071,-2.475 L 372.204,367.8 c 5.85,-5.851 15.339,-5.851 21.191,0 5.85,5.853 5.85,15.341 0,21.191 m 37.711,-37.712 c 5.852,-5.852 5.852,-15.34 0,-21.192 -5.852,-5.851 -15.338,-5.851 -21.191,0 l -11.86,11.862 c -5.852,5.851 -5.852,15.339 0,21.191 5.852,5.851 15.341,5.851 21.19,0 z"
         style="fill:#f9de1c;fill-opacity:1;fill-rule:evenodd;stroke:none"
         id="path32"
         clip-path="url(#clipPath15650)" />
      <path
         d="m 330.34,347.335 v 0 c 26.815,0 48.754,-21.938 48.754,-48.753 v -23.37 c 0,-26.816 -21.939,-48.756 -48.754,-48.756 -26.815,0 -48.753,21.94 -48.753,48.756 v 23.37 c 0,26.815 21.938,48.753 48.753,48.753"
         style="fill:#f39c0f;fill-opacity:1;fill-rule:evenodd;stroke:none"
         id="path34"
         clip-path="url(#clipPath15644)" />
      <path
         d="m 330.34,335.814 v 0 c 20.479,0 37.233,-16.753 37.233,-37.232 v -23.37 c 0,-20.48 -16.754,-37.232 -37.233,-37.232 -20.476,0 -37.233,16.752 -37.233,37.232 v 23.37 c 0,20.479 16.757,37.232 37.233,37.232"
         style="fill:#e11c40;fill-opacity:1;fill-rule:evenodd;stroke:none"
         id="path36"
         clip-path="url(#clipPath15638)" />
      <path
         d="m 362.538,317.22 -12.289,-12.289 2.811,-19.149 14.513,3.841 v 8.959 c 0,6.779 -1.837,13.147 -5.035,18.638 m -68.097,-51.859 13.214,13.214 -0.031,12.512 -14.517,-4.51 v -11.365 c 0,-3.407 0.468,-6.711 1.334,-9.851 m 24.321,-25.527 c -7.878,2.6 -14.617,7.767 -19.208,14.502 l 12.287,12.284 12.192,-8.675 z m 18.924,95.246 c 6.688,-1.351 12.743,-4.511 17.624,-8.941 l -12.894,-12.895 -9.247,3.324 z"
         style="fill:#ee2552;fill-opacity:1;fill-rule:evenodd;stroke:none"
         id="path38"
         clip-path="url(#clipPath15632)" />
      <path
         d="m 330.34,316.743 v 0 c 12.496,0 22.72,-10.222 22.72,-22.717 v -14.259 c 0,-12.496 -10.224,-22.717 -22.72,-22.717 -12.493,0 -22.716,10.221 -22.716,22.717 v 14.259 c 0,12.495 10.223,22.717 22.716,22.717"
         style="fill:#ef2e5e;fill-opacity:1;fill-rule:evenodd;stroke:none"
         id="path40"
         clip-path="url(#clipPath15626)" />
      <path
         d="M 350.249,304.931 311.841,266.62 c 3.115,-4.363 7.731,-7.587 13.076,-8.91 l 28.143,28.072 v 8.244 c 0,3.945 -1.022,7.664 -2.811,10.905 m -17.08,11.637 c 3.359,-0.423 6.499,-1.587 9.247,-3.324 l -34.761,-34.669 c -0.021,0.395 -0.031,0.793 -0.031,1.192 v 11.32 z"
         style="fill:#f03a6f;fill-opacity:1;fill-rule:evenodd;stroke:none"
         id="path42"
         clip-path="url(#clipPath15620)" />
      <path
         d="m 149.478,324.029 v 0 c 16.474,0 29.954,-13.478 29.954,-29.953 v -14.359 c 0,-16.475 -13.48,-29.953 -29.954,-29.953 -16.475,0 -29.955,13.478 -29.955,29.953 v 14.359 c 0,16.475 13.48,29.953 29.955,29.953"
         style="fill:#f39c0f;fill-opacity:1;fill-rule:evenodd;stroke:none"
         id="path44"
         clip-path="url(#clipPath15614)" />
      <path
         d="m 149.478,316.952 v 0 c 12.582,0 22.875,-10.293 22.875,-22.876 v -14.359 c 0,-12.581 -10.293,-22.875 -22.875,-22.875 -12.582,0 -22.876,10.294 -22.876,22.875 v 14.359 c 0,12.583 10.294,22.876 22.876,22.876"
         style="fill:#4ba5ce;fill-opacity:1;fill-rule:evenodd;stroke:none"
         id="path46"
         clip-path="url(#clipPath15608)" />
      <path
         d="m 169.259,305.528 -7.549,-7.549 1.725,-11.767 8.918,2.359 v 5.505 c 0,4.165 -1.128,8.078 -3.094,11.452 m -41.838,-31.864 8.119,8.117 -0.02,7.692 -8.918,-2.773 v -6.983 c 0,-2.094 0.286,-4.121 0.819,-6.053 m 14.944,-15.681 c -4.842,1.595 -8.981,4.771 -11.802,8.909 l 7.549,7.547 7.49,-5.33 z m 11.625,58.518 c 4.11,-0.831 7.829,-2.772 10.828,-5.495 l -7.922,-7.921 -5.682,2.042 z"
         style="fill:#62c5ea;fill-opacity:1;fill-rule:evenodd;stroke:none"
         id="path48"
         clip-path="url(#clipPath15602)" />
      <path
         d="m 149.478,305.235 v 0 c 7.676,0 13.957,-6.282 13.957,-13.958 v -8.76 c 0,-7.679 -6.281,-13.959 -13.957,-13.959 -7.677,0 -13.958,6.28 -13.958,13.959 v 8.76 c 0,7.676 6.281,13.958 13.958,13.958"
         style="fill:#62c5ea;fill-opacity:1;fill-rule:evenodd;stroke:none"
         id="path50"
         clip-path="url(#clipPath15596)" />
      <path
         d="m 161.71,297.979 -23.598,-23.54 c 1.913,-2.678 4.748,-4.662 8.033,-5.476 l 17.29,17.249 v 5.065 c 0,2.424 -0.626,4.71 -1.725,6.702 m -10.496,7.148 c 2.066,-0.261 3.994,-0.977 5.682,-2.042 L 135.54,281.781 c -0.014,0.245 -0.02,0.49 -0.02,0.736 v 6.956 z"
         style="fill:#7bd5f5;fill-opacity:1;fill-rule:evenodd;stroke:none"
         id="path52"
         clip-path="url(#clipPath15590)" />
      <path
         d="m 511.664,324.029 v 0 c 16.475,0 29.956,-13.478 29.956,-29.953 v -14.359 c 0,-16.475 -13.481,-29.953 -29.956,-29.953 -16.474,0 -29.953,13.478 -29.953,29.953 v 14.359 c 0,16.475 13.479,29.953 29.953,29.953"
         style="fill:#f39c0f;fill-opacity:1;fill-rule:evenodd;stroke:none"
         id="path54"
         clip-path="url(#clipPath15584)" />
      <path
         d="m 511.664,316.952 v 0 c 12.583,0 22.876,-10.293 22.876,-22.876 v -14.359 c 0,-12.581 -10.293,-22.875 -22.876,-22.875 -12.58,0 -22.875,10.294 -22.875,22.875 v 14.359 c 0,12.583 10.295,22.876 22.875,22.876"
         style="fill:#87b027;fill-opacity:1;fill-rule:evenodd;stroke:none"
         id="path56"
         clip-path="url(#clipPath15578)" />
      <path
         d="m 531.446,305.528 -7.55,-7.549 1.727,-11.767 8.917,2.359 v 5.505 c 0,4.165 -1.127,8.078 -3.094,11.452 m -41.839,-31.864 8.12,8.117 -0.019,7.692 -8.919,-2.773 v -6.983 c 0,-2.094 0.286,-4.121 0.818,-6.053 m 14.945,-15.681 c -4.842,1.595 -8.982,4.771 -11.8,8.909 l 7.547,7.547 7.491,-5.33 z m 11.626,58.518 c 4.109,-0.831 7.83,-2.772 10.828,-5.495 l -7.924,-7.921 -5.681,2.042 z"
         style="fill:#9ac421;fill-opacity:1;fill-rule:evenodd;stroke:none"
         id="path58"
         clip-path="url(#clipPath15572)" />
      <path
         d="m 511.664,305.235 v 0 c 7.677,0 13.959,-6.282 13.959,-13.958 v -8.76 c 0,-7.679 -6.282,-13.959 -13.959,-13.959 -7.676,0 -13.956,6.28 -13.956,13.959 v 8.76 c 0,7.676 6.28,13.958 13.956,13.958"
         style="fill:#9ac421;fill-opacity:1;fill-rule:evenodd;stroke:none"
         id="path60"
         clip-path="url(#clipPath15566)" />
      <path
         d="m 523.896,297.979 -23.597,-23.54 c 1.912,-2.678 4.75,-4.662 8.033,-5.476 l 17.291,17.249 v 5.065 c 0,2.424 -0.626,4.71 -1.727,6.702 m -10.495,7.148 c 2.068,-0.261 3.995,-0.977 5.681,-2.042 l -21.355,-21.304 c -0.013,0.245 -0.019,0.49 -0.019,0.736 v 6.956 z"
         style="fill:#adda1a;fill-opacity:1;fill-rule:evenodd;stroke:none"
         id="path62"
         clip-path="url(#clipPath15560)" />
      <path
         d="m 330.34,444.415 c 29.674,0 53.875,24.202 53.875,53.874 0,29.673 -24.201,53.875 -53.875,53.875 -29.671,0 -53.872,-24.202 -53.872,-53.875 0,-29.672 24.201,-53.874 53.872,-53.874"
         style="fill:#fab40a;fill-opacity:1;fill-rule:evenodd;stroke:none"
         id="path66"
         clip-path="url(#clipPath15548)" />
      <path
         d="m 324.409,542.473 c 17.563,0 28.583,-14.237 24.612,-31.8 -3.966,-17.562 -21.422,-31.799 -38.984,-31.799 -17.562,0 -28.584,14.237 -24.613,31.799 3.967,17.563 21.423,31.8 38.985,31.8"
         style="fill:#f9de1c;fill-opacity:1;fill-rule:evenodd;stroke:none"
         id="path68"
         clip-path="url(#clipPath15542)" />
      <path
         d="m 91.753,336.025 c 20.312,0 36.878,16.566 36.878,36.878 0,20.312 -16.566,36.878 -36.878,36.878 -20.312,0 -36.878,-16.566 -36.878,-36.878 0,-20.312 16.566,-36.878 36.878,-36.878"
         style="fill:#fab40a;fill-opacity:1;fill-rule:evenodd;stroke:none"
         id="path70"
         clip-path="url(#clipPath15536)" />
      <path
         d="m 87.692,403.147 c 12.023,0 19.566,-9.745 16.85,-21.768 -2.718,-12.022 -14.666,-21.768 -26.687,-21.768 -12.022,0 -19.567,9.746 -16.85,21.768 2.718,12.023 14.665,21.768 26.687,21.768"
         style="fill:#f9de1c;fill-opacity:1;fill-rule:evenodd;stroke:none"
         id="path72"
         clip-path="url(#clipPath15530)" />
      <path
         d="m 568.928,336.025 c 20.311,0 36.878,16.566 36.878,36.878 0,20.312 -16.567,36.878 -36.878,36.878 -20.312,0 -36.878,-16.566 -36.878,-36.878 0,-20.312 16.566,-36.878 36.878,-36.878"
         style="fill:#fab40a;fill-opacity:1;fill-rule:evenodd;stroke:none"
         id="path74"
         clip-path="url(#clipPath15524)" />
      <path
         d="m 564.867,403.147 c 12.022,0 19.567,-9.745 16.848,-21.768 -2.716,-12.022 -14.664,-21.768 -26.686,-21.768 -12.023,0 -19.566,9.746 -16.85,21.768 2.718,12.023 14.667,21.768 26.688,21.768"
         style="fill:#f9de1c;fill-opacity:1;fill-rule:evenodd;stroke:none"
         id="path76"
         clip-path="url(#clipPath15518)" />
      <path
         d="m 497.735,493.64 c 22.936,0 41.528,-18.593 41.528,-41.528 0,-22.936 -18.592,-41.528 -41.528,-41.528 -22.934,0 -41.528,18.592 -41.528,41.528 0,22.935 18.594,41.528 41.528,41.528 m -334.79,0 c 22.936,0 41.528,-18.593 41.528,-41.528 0,-22.936 -18.592,-41.528 -41.528,-41.528 -22.935,0 -41.528,18.592 -41.528,41.528 0,22.935 18.593,41.528 41.528,41.528"
         style="fill:#df8c16;fill-opacity:1;fill-rule:evenodd;stroke:none"
         id="path78"
         clip-path="url(#clipPath15512)" />
    </g>
  </g>
</svg>
