<?xml version="1.0" encoding="UTF-8" standalone="no"?>
<svg
   xmlns:dc="http://purl.org/dc/elements/1.1/"
   xmlns:cc="http://creativecommons.org/ns#"
   xmlns:rdf="http://www.w3.org/1999/02/22-rdf-syntax-ns#"
   xmlns:svg="http://www.w3.org/2000/svg"
   xmlns="http://www.w3.org/2000/svg"
   xmlns:sodipodi="http://sodipodi.sourceforge.net/DTD/sodipodi-0.dtd"
   xmlns:inkscape="http://www.inkscape.org/namespaces/inkscape"
   width="337"
   height="77"
   viewBox="0 0 89.164586 20.372917"
   version="1.1"
   id="svg5772"
   inkscape:version="1.0.1 (3bc2e813f5, 2020-09-07)"
   sodipodi:docname="banners-1640595-4.svg">
  <defs
     id="defs5766" />
  <sodipodi:namedview
     id="base"
     pagecolor="#ffffff"
     bordercolor="#666666"
     borderopacity="1.0"
     inkscape:pageopacity="0.0"
     inkscape:pageshadow="2"
     inkscape:zoom="0.35"
     inkscape:cx="168.25265"
     inkscape:cy="38.024772"
     inkscape:document-units="mm"
     inkscape:current-layer="layer1"
     inkscape:document-rotation="0"
     showgrid="false"
     fit-margin-top="0"
     fit-margin-left="0"
     fit-margin-right="0"
     fit-margin-bottom="0"
     units="px"
     inkscape:window-width="1436"
     inkscape:window-height="1020"
     inkscape:window-x="192"
     inkscape:window-y="0"
     inkscape:window-maximized="0" />
  <metadata
     id="metadata5769">
    <rdf:RDF>
      <cc:Work
         rdf:about="">
        <dc:format>image/svg+xml</dc:format>
        <dc:type
           rdf:resource="http://purl.org/dc/dcmitype/StillImage" />
        <dc:title></dc:title>
      </cc:Work>
    </rdf:RDF>
  </metadata>
  <g
     inkscape:label="Ebene 1"
     inkscape:groupmode="layer"
     id="layer1"
     transform="translate(-61.316487,-138.10595)">
    <g
       id="g5582"
       transform="matrix(0.26458199,0,0,0.26458199,54.91863,36.65939)">
      <path
         d="m 192.24,383.85 -1.031,-0.003 -13.061,0.1 c -30.411,0.378 -62.271,1.72 -75.876,2.294 l -6.704,0.264 c -13.207,0.088 -21.644,2.64 -25.071,7.588 -2.18,3.144 -2.333,7.327 -0.455,12.434 l 0.952,2.669 c 0.048,0.135 0.021,0.284 -0.067,0.398 -0.09,0.114 -0.231,0.17 -0.375,0.155 -2.429,-0.27 -5.691,-1.658 -9.468,-3.264 -7.278,-3.097 -16.336,-6.949 -23.315,-4.181 -12.088,4.799 -11.719,11.47 -9.764,17.361 4.464,13.453 1.052,20.54 -1.438,25.72 -1.052,2.188 -1.961,4.078 -1.961,5.909 0,2.736 2.024,4.479 3.722,5.461 5.129,2.962 13.884,3.1 18.737,0.299 1.565,-0.905 3.434,-2.558 3.434,-5.297 0,-0.554 -0.123,-1.087 -0.368,-1.591 -0.861,-2.074 -1.278,-4.216 -1.324,-6.759 -0.003,-0.141 0.066,-0.275 0.182,-0.354 0.116,-0.079 0.266,-0.097 0.396,-0.044 5.759,2.341 11.226,5.892 15.617,8.748 l 0.091,0.059 c 6.827,4.436 21.87,7.614 28.658,2.912 6.718,-4.655 4.134,-9.313 1.143,-14.71 l -0.758,-1.374 c -0.073,-0.138 -0.065,-0.302 0.02,-0.431 0.083,-0.129 0.235,-0.202 0.391,-0.188 l 6.884,0.598 c 0.27,0.018 3.792,-0.111 8.669,-0.287 16.542,-0.601 55.283,-2.004 82.144,-2.004 26.861,0 65.602,1.403 82.146,2.004 4.877,0.176 8.396,0.305 8.669,0.287 l 7.131,-0.612 c 0.157,-0.015 0.312,0.056 0.396,0.188 0.084,0.132 0.093,0.296 0.012,0.434 l -1.441,2.461 c -2.991,4.96 -5.354,8.883 0.849,13.178 6.842,4.743 22.679,1.907 29.391,-2.455 l 1.756,-1.151 c 4.181,-2.742 8.92,-5.854 13.956,-7.916 0.13,-0.056 0.278,-0.041 0.394,0.041 0.116,0.076 0.185,0.208 0.185,0.349 -0.021,2.663 -0.44,4.887 -1.321,7.008 -0.253,0.524 -0.376,1.058 -0.376,1.611 0,2.127 1.108,3.847 3.294,5.109 4.856,2.801 14.396,2.593 19.635,-0.431 1.531,-0.885 3.356,-2.414 3.356,-4.673 0,-1.061 -0.755,-2.476 -1.708,-4.271 -2.637,-4.951 -7.048,-13.239 -2.358,-27.372 1.942,-5.854 2.628,-13.187 -9.416,-17.965 -6.976,-2.769 -16.055,1.137 -23.35,4.274 -3.972,1.708 -7.399,3.182 -9.864,3.346 -0.141,0.009 -0.278,-0.047 -0.363,-0.158 -0.085,-0.111 -0.111,-0.255 -0.064,-0.387 l 1.38,-3.984 c 1.826,-4.969 1.738,-8.792 -0.269,-11.689 -3.224,-4.655 -11.517,-6.961 -25.345,-7.052 l -6.701,-0.264 c -13.607,-0.574 -45.466,-1.916 -75.875,-2.294 -0.003,0 -13.063,-0.1 -13.063,-0.1 z"
         id="path4"
         style="fill:#f58220" />
      <path
         d="m 94.159,438.2 c -0.393,-0.729 -0.658,-1.189 -0.658,-1.189 -4.436,-0.404 -24.191,-1.21 -23.991,4.837 0.202,6.05 15.122,4.233 20.563,3.63 5.232,-0.583 6.184,1.447 7.682,4.292 0.31,-1.163 0.257,-2.341 -0.042,-3.542 -0.252,-0.835 -0.573,-1.717 -0.939,-2.599 -0.536,-1.172 -1.196,-2.373 -1.885,-3.615 l -0.758,-1.374 c -0.073,-0.138 -0.065,-0.302 0.02,-0.431 0.002,-0.003 0.006,-0.006 0.008,-0.009 z"
         fill="#da741c"
         id="path62" />
      <path
         d="m 36.043,441.09 c -2.918,1.113 -5.612,3.311 -7.661,6.809 -1.435,2.443 -2.71,8.262 10.292,9.117 12.39,0.814 12.196,-8.502 7.453,-9.671 -2.944,-0.727 -9.17,-0.422 -10.438,4.266 -1.266,-4.055 -0.534,-8.875 0.354,-10.521 z"
         fill="#da741c"
         id="path64" />
      <path
         d="m 75.624,448.11 c 6.611,1.049 16.215,-1.479 17.312,0.105 1.399,2.019 -7.283,8.936 -20.842,5.092 -4.758,-1.348 -9.88,-5.505 -16.939,-9.882 13.834,-21.879 -9.895,-31.91 -0.791,-39.275 5.549,1.983 12.17,5.625 17.484,5.666 6.19,13.849 -8.078,15.946 -7.029,29.795 0.525,6.935 4.196,7.451 10.805,8.499 z"
         fill="#da741c"
         id="path66" />
      <path
         d="m 73.527,440.2 c 6.618,-2.49 16.859,-0.976 21.42,3.68 l -3.605,-6.261 c -9.632,-2.496 -20.014,-0.261 -21.678,3.185 -0.211,0.375 -0.261,0.738 -0.293,1.052 -0.133,1.289 1.34,2.669 3.381,3.094 2.039,0.425 3.604,0.612 3.775,0.047 0.171,-0.558 -6.062,-3.519 -3,-4.797 z"
         fill="#9e5309"
         id="path68" />
      <path
         d="m 90.882,447.43 c -1.018,0.094 -30.264,5.666 -25.434,-13.485 2.423,-9.606 11.681,-12.729 6.399,-24.129 -2.763,0.211 -5.14,-0.63 -5.14,-0.63 9.092,7.553 -6.249,18.809 -3.207,32.763 1.303,5.979 8.083,11.323 18.809,8.865 5.241,-1.201 10.608,-1.992 8.294,1.339 5.092,-2.778 2.315,-4.908 0.279,-4.723 z"
         fill="#9e5309"
         id="path70" />
      <path
         d="m 35.167,452.41 0.625,2.238 1.374,-0.141 c 1.125,-4.055 9.395,-6.902 11.894,-2.285 0.039,-7.013 -12.295,-7.581 -13.893,0.188 z"
         fill="#9e5309"
         id="path72" />
      <path
         d="m 48.8,445.54 c -0.299,-2.194 -0.033,-3.097 -0.033,-3.097 -7.011,-3.583 -12.258,-1.854 -12.258,-1.854 -4.239,1.099 -9.8,7.245 -8.804,11.033 0.498,-2.294 4.538,-5.933 7.182,-4.538 0.044,-0.814 0.123,-1.57 0.22,-2.294 4.76,-3.75 10.261,-2.584 13.693,0.75 z"
         fill="#9e5309"
         id="path74" />
      <path
         d="m 82.963,389.5 c -6.776,0.987 -11.661,5.08 -11.802,10.444 -0.141,5.364 7.126,14.71 2.485,21.738 -4.658,7.058 -9.599,14.115 -6.353,19.764 0.393,-2.089 1.295,-3.571 2.447,-4.579 -3.396,-3.396 12.834,-9.993 4.327,-31.274 3.532,-3.106 -0.703,-11.154 8.896,-16.093 z"
         fill="#fdbb63"
         id="path76" />
      <path
         d="m 71.794,436.32 c -0.741,-3.668 12.666,-10.849 4.772,-30.8 3.528,-3.138 -0.705,-11.268 8.893,-16.257 -0.565,0.082 -1.113,0.196 -1.652,0.322 -8.831,5.013 -4.855,12.864 -8.31,15.935 8.171,20.651 -6.482,27.618 -4.643,31.175 z"
         fill="#fdbb63"
         id="path78" />
      <g
         fill="#fdbb63"
         id="g84">
        <path
           d="m 32.451,414.55 c 0.402,8.464 6.624,13.465 4.271,23.271 -1.777,0.51 -3.562,1.488 -5.382,3.252 1.724,-6.677 0.921,-13.028 -1.344,-20.947 -1.428,-5.44 -2.253,-9.688 8.17,-15.176 -4.706,3.943 -1.513,6.342 -5.715,9.6 z"
           id="path80" />
        <path
           d="m 34.468,414.55 c 0.397,8.347 6.451,13.327 4.362,22.869 -0.352,0.038 -0.703,0.091 -1.053,0.155 1.966,-9.428 -3.923,-14.736 -4.317,-23.024 3.699,-2.865 1.061,-5.35 5.1,-9.407 0.721,-0.442 1.506,-0.894 2.377,-1.351 -5.632,4.301 -2.266,7.5 -6.469,10.758 z"
           id="path82" />
      </g>
      <path
         d="m 290.9,437.01 c 0,0 -6.047,10.482 -4.434,13.104 1.611,-3.026 2.42,-5.244 7.861,-4.638 5.443,0.604 20.363,2.42 20.565,-3.63 0.203,-6.046 -19.557,-5.241 -23.992,-4.836 z"
         fill="#da741c"
         id="path86" />
      <path
         d="m 348.35,441.09 c 2.917,1.113 5.612,3.311 7.661,6.809 1.435,2.443 2.71,8.262 -10.293,9.117 -12.389,0.814 -12.196,-8.502 -7.453,-9.671 2.945,-0.727 9.171,-0.422 10.438,4.266 1.268,-4.055 0.535,-8.875 -0.353,-10.521 z"
         fill="#da741c"
         id="path88" />
      <path
         d="m 308.77,448.11 c -6.609,1.049 -16.214,-1.479 -17.31,0.105 -1.89,2.728 14.213,15.51 36.645,-4.881 15.124,-14.443 -18.693,-29.569 5.777,-40.784 -2.938,1.049 -20.076,7.371 -21.334,7.266 -6.19,13.849 8.077,15.946 7.028,29.795 -0.523,6.935 -4.196,7.451 -10.806,8.499 z"
         fill="#da741c"
         id="path90" />
      <path
         d="m 348.37,446.08 c -2.21,-4.207 -9.973,-3.448 -12.215,-1.245 -0.091,-0.838 0.47,-2.394 0.47,-2.394 7.224,-3.375 10.988,-1.86 10.988,-1.86 0.537,1.784 0.848,4.764 0.757,5.499 z"
         fill="#9e5309"
         id="path92" />
      <path
         d="m 289.64,443.71 3.331,-6.738 c 13.688,-2.235 24.472,1.178 21.013,6.712 -1.288,-4.993 -18.716,-5.716 -24.344,0.026 z"
         fill="#9e5309"
         id="path94" />
      <path
         d="m 322.33,407.14 c 0,0 -6.445,2.889 -9.208,2.678 -5.281,11.399 3.779,14.871 6.018,24.521 1.044,4.503 2.001,13.389 -13.692,14.177 0,0 -10.342,-0.99 -11.358,-1.084 -2.037,-0.185 -4.814,1.945 0.277,4.723 -2.314,-3.331 3.142,-2.036 9.27,-0.832 6.129,1.204 15.812,0.46 18.961,-8.666 3.085,-8.951 -10.465,-23.793 -0.268,-35.517 z"
         fill="#9e5309"
         id="path96" />
      <path
         d="m 349.32,452.41 -0.624,2.238 -1.375,-0.141 c -1.125,-4.055 -9.395,-6.902 -11.894,-2.285 -1.722,-6.89 12.021,-6.785 13.893,0.188 z"
         fill="#9e5309"
         id="path98" />
      <path
         d="m 356.55,451.52 c -1.955,-4.213 -4.893,0.478 -7.096,-3.718 0.524,-2.73 -0.183,-5.748 -0.841,-7.146 3.73,1.099 8.813,7.076 7.937,10.864 z"
         fill="#9e5309"
         id="path100" />
      <path
         d="m 301.38,389.5 c 6.775,0.987 11.66,5.08 11.803,10.444 0.141,5.364 -6.673,15.322 -2.033,22.354 4.659,7.058 9.146,13.5 5.9,19.148 -0.393,-2.089 -1.297,-3.571 -2.448,-4.579 3.396,-3.396 -12.833,-9.993 -4.328,-31.274 -3.53,-3.106 0.706,-11.154 -8.894,-16.093 z"
         fill="#fdbb63"
         id="path102" />
      <path
         d="m 312.55,436.08 c 0.741,-3.633 -12.667,-10.737 -4.774,-30.486 -3.528,-3.105 0.706,-11.153 -8.893,-16.093 0.566,0.082 1.114,0.193 1.653,0.319 8.832,4.963 4.856,12.732 8.311,15.773 -8.171,20.443 6.481,27.337 4.641,30.855 z"
         fill="#fdbb63"
         id="path104" />
      <g
         fill="#fdbb63"
         id="g110">
        <path
           d="m 352.35,414.71 c -0.403,8.297 -6.624,13.201 -4.271,22.813 1.776,0.498 3.562,1.459 5.382,3.188 -1.725,-6.545 -0.922,-12.771 1.345,-20.537 1.427,-5.332 2.251,-9.498 -8.171,-14.877 4.707,3.867 1.512,6.22 5.715,9.413 z"
           id="path106" />
        <path
           d="m 350.33,414.71 c -0.396,8.183 -6.451,13.066 -4.362,22.421 0.354,0.035 0.703,0.088 1.054,0.152 -1.966,-9.246 3.923,-14.449 4.318,-22.573 -3.7,-2.812 -1.062,-5.244 -5.1,-9.223 -0.722,-0.437 -1.507,-0.876 -2.379,-1.324 5.633,4.216 2.268,7.354 6.469,10.547 z"
           id="path108" />
      </g>
      <path
         d="m 299.34,428.73 c -4.229,0.337 -8.957,0.876 -14.517,1.266 -1.04,0.073 -42.408,-2.142 -86.418,-2.347 -1.865,-0.009 -3.846,-0.015 -5.943,-0.015 h -0.39 c -2.097,0 -4.077,0.006 -5.941,0.015 -44.012,0.205 -85.38,2.42 -86.419,2.347 -5.558,-0.39 -10.287,-0.929 -14.517,-1.266 -16.447,-1.315 -18.613,5.704 -20.065,9.047 l 0.456,2.543 c 1.45,-3.34 3.609,-9.267 19.718,-8.566 4.228,0.182 8.985,0.85 14.393,1.254 1.108,0.085 56.704,-2.338 92.572,-2.35 35.868,0.012 91.463,2.435 92.572,2.35 5.406,-0.404 10.163,-1.072 14.392,-1.254 16.109,-0.7 18.267,5.227 19.717,8.566 l 0.457,-2.543 c -1.453,-3.343 -3.621,-10.363 -20.067,-9.047 z"
         fill="#ffce71"
         id="path486" />
      <path
         d="m 315.39,403.97 c 0.203,-0.665 0.372,-1.312 0.502,-1.939 -1.779,-6.75 -10.6,-9.967 -26.979,-10.075 -2.189,0 -43.589,-2.074 -82.573,-2.555 -3.686,-0.064 -8.024,-0.103 -13.069,-0.103 -0.343,0 -0.687,0.003 -1.031,0.003 -0.344,0 -0.688,-0.003 -1.031,-0.003 -5.043,0 -9.382,0.038 -13.067,0.103 -38.985,0.48 -80.385,2.555 -82.573,2.555 -16.436,0.108 -25.215,4.022 -26.93,11.191 0.121,0.612 0.284,1.242 0.475,1.884 2.526,-6.229 11.184,-9.615 26.455,-9.718 2.188,0 43.588,-2.074 82.573,-2.555 3.686,-0.064 8.024,-0.103 13.067,-0.103 0.343,0 0.688,0.003 1.031,0.003 0.345,0 0.688,-0.003 1.031,-0.003 5.045,0 9.384,0.038 13.069,0.103 38.984,0.48 80.384,2.555 82.573,2.555 15.186,0.099 23.872,2.873 26.477,8.657 z"
         fill="#ffce71"
         id="path488" />
      <g
         fill="#ffdb98"
         id="g506">
        <path
           d="m 309.86,429.27 c -0.392,-0.094 -0.799,-0.179 -1.225,-0.255 0.935,1.559 1.891,2.848 2.631,3.938 0.514,0.17 0.991,0.354 1.434,0.548 -0.73,-1.138 -1.793,-2.523 -2.84,-4.231 z"
           id="path490" />
        <path
           d="m 74.446,429.32 c -1.075,1.749 -2.16,3.152 -2.886,4.304 0.448,-0.208 0.932,-0.407 1.455,-0.589 0.741,-1.096 1.714,-2.402 2.664,-3.984 -0.427,0.082 -0.841,0.17 -1.233,0.269 z"
           id="path492" />
        <path
           d="m 66.629,434.67 c -0.352,1.377 -0.478,2.716 -0.293,3.999 0.628,-1.251 1.532,-2.625 3.147,-3.82 0.503,-1.245 1.822,-2.839 3.193,-4.98 -3.235,1.195 -4.971,3.043 -6.047,4.801 z"
           id="path494" />
        <path
           d="m 311.6,429.78 c 1.321,2.074 2.606,3.639 3.169,4.872 1.65,1.143 2.607,2.47 3.267,3.706 0.141,-1.354 -0.047,-2.763 -0.474,-4.213 -1.126,-1.637 -2.891,-3.289 -5.962,-4.365 z"
           id="path496" />
        <path
           d="m 77.762,397.81 c 0.372,-0.135 0.762,-0.264 1.157,-0.39 0.309,-1.277 0.797,-2.581 1.658,-3.832 -0.454,0.114 -0.884,0.246 -1.312,0.375 -0.791,1.266 -1.225,2.572 -1.503,3.847 z"
           id="path498" />
        <path
           d="m 308.04,397.93 c 2.108,0.803 3.808,1.79 5.095,2.974 0.037,-0.331 0.056,-0.653 0.049,-0.958 -0.026,-0.987 -0.216,-1.928 -0.544,-2.815 -1.524,-1.251 -3.54,-2.271 -6.062,-3.062 0.773,1.271 1.195,2.583 1.462,3.861 z"
           id="path500" />
        <path
           d="m 71.161,399.95 c -0.015,0.542 0.05,1.125 0.167,1.743 1.236,-1.271 2.859,-2.358 4.878,-3.258 0.232,-1.271 0.593,-2.587 1.281,-3.873 -2.588,0.979 -4.63,2.218 -6.111,3.718 -0.12,0.542 -0.2,1.096 -0.215,1.67 z"
           id="path502" />
        <path
           d="m 306.48,397.4 c -0.312,-1.274 -0.803,-2.572 -1.662,-3.82 -0.415,-0.103 -0.838,-0.202 -1.274,-0.296 0.911,1.23 1.445,2.514 1.787,3.779 0.395,0.106 0.776,0.22 1.149,0.337 z"
           id="path504" />
      </g>
      <path
         d="m 311.72,413.69 -0.255,2.253 c -0.047,0.132 -0.021,0.272 0.064,0.387 0.085,0.111 0.223,0.167 0.363,0.158 2.465,-0.164 5.893,-1.641 9.864,-3.349 7.295,-3.135 16.375,-7.04 23.35,-4.271 9.637,3.823 11.122,9.281 10.336,14.312 1.688,-5.684 1.711,-12.51 -9.706,-17.039 -6.976,-2.769 -16.055,1.137 -23.35,4.271 -3.972,1.708 -7.399,3.182 -9.864,3.349 -0.101,0.006 -0.725,-0.012 -0.802,-0.071 z"
         fill="#ffce71"
         id="path508" />
      <g
         fill="#ffdb98"
         id="g514">
        <path
           d="m 347.44,406.88 c -0.436,-0.202 -0.891,-0.398 -1.365,-0.595 1.031,1.336 1.34,2.569 1.6,3.741 0.449,0.229 0.876,0.46 1.278,0.697 -0.244,-1.154 -0.476,-2.393 -1.513,-3.843 z"
           id="path510" />
        <path
           d="m 355.58,414.42 c -0.951,-2.499 -3.026,-4.907 -6.948,-6.967 0.907,1.415 0.964,2.646 1.301,3.867 3.163,2.098 4.737,4.471 5.358,6.899 0.287,-1.309 0.443,-2.563 0.289,-3.799 z"
           id="path512" />
      </g>
      <path
         d="m 322.38,410.41 c -3.972,1.708 -7.399,3.182 -9.864,3.349 -0.102,0.006 -0.726,-0.012 -0.803,-0.07 l -0.255,2.253 c -0.047,0.132 -0.021,0.272 0.064,0.387 0.085,0.111 0.223,0.167 0.363,0.158 2.465,-0.164 5.893,-1.641 9.864,-3.349 0.971,-0.416 1.975,-0.847 3,-1.274 0.123,-0.967 0.42,-1.919 0.933,-2.854 -1.128,0.468 -2.236,0.943 -3.302,1.4 z"
         fill="#dab162"
         id="path516" />
      <path
         d="m 311.53,416.33 c 0.085,0.111 0.223,0.167 0.363,0.158 1.819,-0.12 4.167,-0.961 6.868,-2.077 0.178,-0.94 0.434,-1.875 0.803,-2.798 -2.774,1.151 -5.183,2.021 -7.041,2.147 -0.087,0.006 -0.56,-0.006 -0.74,-0.047 -0.191,0.896 -0.279,1.74 -0.285,2.543 0.012,0.024 0.016,0.051 0.032,0.074 z"
         fill="#a7894b"
         id="path518" />
      <path
         d="m 39.11,409.86 c 7.223,-2.771 16.6,1.084 24.133,4.178 3.908,1.608 7.285,2.994 9.799,3.264 0.149,0.018 0.296,-0.041 0.39,-0.155 0.092,-0.111 0.12,-0.261 0.068,-0.398 l -0.823,-2.229 c -2.473,-0.354 -5.705,-1.676 -9.434,-3.208 -7.533,-3.097 -16.91,-6.949 -24.133,-4.178 -9.677,3.709 -11.64,8.54 -11.098,13.263 0.497,-3.813 3.282,-7.54 11.098,-10.537 z"
         fill="#ffce71"
         id="path520" />
      <path
         d="m 73.042,417.3 c 0.121,0.012 0.232,-0.032 0.323,-0.105 0.02,-0.231 0.037,-0.463 0.041,-0.7 l -0.729,-1.978 c -2.473,-0.354 -5.705,-1.676 -9.434,-3.208 -3.396,-1.395 -7.169,-2.941 -10.949,-3.967 -0.154,0.882 -0.046,1.808 0.243,2.789 3.698,1.028 7.381,2.54 10.706,3.905 3.908,1.609 7.285,2.994 9.799,3.264 z"
         fill="#dab162"
         id="path522" />
      <path
         d="m 72.677,414.52 c -0.949,-0.138 -2.014,-0.416 -3.171,-0.797 0.153,0.879 0.149,1.793 0.021,2.739 1.301,0.425 2.484,0.732 3.516,0.841 0.138,0.015 0.267,-0.038 0.36,-0.132 0.018,-0.196 0.027,-0.396 0.033,-0.595 z"
         fill="#a7894b"
         id="path524" />
      <g
         fill="#ffdb98"
         id="g530">
        <path
           d="m 34.555,412 c 0.457,-1.055 0.522,-2.089 0.867,-3.205 -3.117,1.649 -5.064,3.457 -6.184,5.344 -0.12,0.873 -0.091,1.761 0.034,2.663 1.017,-1.682 2.696,-3.299 5.283,-4.802 z"
           id="path526" />
        <path
           d="m 36.436,408.29 c -0.438,1.131 -0.541,2.15 -0.811,3.126 0.403,-0.208 0.823,-0.416 1.265,-0.618 0.246,-0.99 0.387,-2.013 0.832,-3.097 -0.451,0.194 -0.875,0.39 -1.286,0.589 z"
           id="path528" />
      </g>
      <path
         d="m 93.237,449.2 c -3.776,4.755 -17.555,4.825 -26.966,-0.536 -6.272,-3.574 -16.169,-12.126 -26.899,-12.401 -5.008,-0.05 -8.991,3.475 -11.259,7.573 l 1.271,-4.269 c 2.46,-2.979 5.895,-5.64 9.808,-5.59 10.731,0.278 20.515,8.52 26.711,12.22 10.058,6.009 21.879,6.431 26.845,1.532 z"
         fill="#ffce71"
         id="path532" />
      <path
         d="m 48.803,444.67 c -2.584,-3.645 -11.078,-3.788 -13.913,-0.381 l -0.135,3.041 c 2.023,-4.277 11.688,-4.418 14.476,-0.486 z"
         fill="#ffce71"
         id="path534" />
      <path
         d="m 48.8,445.54 c -0.051,-0.372 -0.08,-0.694 -0.103,-0.993 -2.629,-3.431 -10.598,-3.606 -13.583,-0.483 -0.034,0.308 -0.049,0.571 -0.049,0.759 4.77,-3.792 10.294,-2.626 13.735,0.717 z"
         fill="#a7894b"
         id="path536" />
      <path
         d="m 291.54,448.45 c 3.721,4.846 17.388,5.095 26.75,-0.19 6.238,-3.521 16.099,-12.012 26.745,-12.152 4.966,0.015 8.898,3.618 11.128,7.781 l -1.239,-4.321 c -2.424,-3.035 -5.818,-5.763 -9.7,-5.763 -10.646,0.141 -20.392,8.323 -26.558,11.974 -9.798,5.804 -20.749,6.431 -25.802,1.758 -0.888,0.046 -1.324,0.913 -1.324,0.913 z"
         fill="#ffce71"
         id="path538" />
      <path
         d="m 349.43,446.81 0.334,-2.326 c -2.103,-4.14 -11.253,-4.116 -14.133,-0.328 -0.04,0.762 -0.11,1.494 -0.223,2.194 2.995,-3.653 11.946,-3.629 14.022,0.46 z"
         fill="#ffce71"
         id="path540" />
      <path
         d="m 348.07,442.7 c -3.144,-2.033 -8.952,-1.737 -11.739,0.721 -0.119,0.475 -0.222,1.025 -0.179,1.418 1.98,-1.945 8.26,-2.76 11.225,-0.026 0.363,0.202 0.703,0.425 1.002,0.683 -0.019,-0.689 -0.126,-1.738 -0.309,-2.796 z"
         fill="#a7894b"
         id="path542" />
      <g
         fill="#ffdb98"
         id="g548">
        <path
           d="m 346.63,433.92 c -0.357,-0.059 -0.721,-0.091 -1.089,-0.105 0.025,0.744 0.102,1.518 0.237,2.323 0.366,0.029 0.726,0.067 1.078,0.135 -0.126,-0.812 -0.21,-1.6 -0.226,-2.353 z"
           id="path544" />
        <path
           d="m 353.26,439.9 c -0.207,-0.891 -0.371,-1.775 -0.488,-2.657 -1.526,-1.418 -3.285,-2.566 -5.207,-3.105 0.039,0.762 0.135,1.553 0.291,2.379 2.067,0.603 3.887,1.825 5.404,3.383 z"
           id="path546" />
      </g>
      <path
         d="m 318.29,448.26 c 3.186,-1.799 7.316,-4.89 12.012,-7.506 0.683,-1.022 1.154,-2.048 1.45,-3.07 -5.155,2.666 -9.67,6.073 -13.086,8.095 -9.672,5.73 -20.452,6.396 -25.586,1.919 -0.421,0.023 -0.775,0.073 -1.049,0.161 l -0.491,0.592 c 3.721,4.845 17.388,5.094 26.75,-0.191 z"
         fill="#dab162"
         id="path550" />
      <path
         d="m 319.87,447.31 c 0.964,-1.049 1.79,-2.317 2.417,-3.85 -1.31,0.867 -2.525,1.664 -3.624,2.314 -9.771,5.789 -20.672,6.41 -25.743,1.781 -0.574,0.179 -1.067,0.524 -1.299,0.987 0.589,0.729 1.403,1.354 2.4,1.866 0.928,-0.917 5.08,0.018 9.611,0.908 1.278,0.249 2.711,0.416 4.207,0.439 3.606,-0.557 7.274,-1.711 10.447,-3.501 0.505,-0.281 1.035,-0.601 1.584,-0.944 z"
         fill="#a7894b"
         id="path552" />
      <g
         fill="#ffdb98"
         id="g558">
        <path
           d="m 353.26,439.9 c -0.207,-0.891 -0.371,-1.775 -0.488,-2.657 -1.526,-1.418 -3.285,-2.566 -5.207,-3.105 0.039,0.762 0.135,1.553 0.291,2.379 2.067,0.603 3.887,1.825 5.404,3.383 z"
           id="path554" />
        <path
           d="m 346.63,433.92 c -0.357,-0.059 -0.721,-0.091 -1.089,-0.105 0.025,0.744 0.102,1.518 0.237,2.323 0.366,0.029 0.726,0.067 1.078,0.135 -0.126,-0.812 -0.21,-1.6 -0.226,-2.353 z"
           id="path556" />
      </g>
      <path
         d="m 318.29,448.26 c 3.186,-1.799 7.316,-4.89 12.012,-7.506 0.683,-1.022 1.154,-2.048 1.45,-3.07 -5.155,2.666 -9.67,6.073 -13.086,8.095 -9.672,5.73 -20.452,6.396 -25.586,1.919 -0.421,0.023 -0.775,0.073 -1.049,0.161 l -0.491,0.592 c 3.721,4.845 17.388,5.094 26.75,-0.191 z"
         fill="#dab162"
         id="path560" />
      <path
         d="m 319.87,447.31 c 0.964,-1.049 1.79,-2.317 2.417,-3.85 -1.31,0.867 -2.525,1.664 -3.624,2.314 -9.771,5.789 -20.672,6.41 -25.743,1.781 -0.574,0.179 -1.067,0.524 -1.299,0.987 0.589,0.729 1.403,1.354 2.4,1.866 0.928,-0.917 5.08,0.018 9.611,0.908 1.278,0.249 2.711,0.416 4.207,0.439 3.606,-0.557 7.274,-1.711 10.447,-3.501 0.505,-0.281 1.035,-0.601 1.584,-0.944 z"
         fill="#a7894b"
         id="path562" />
      <path
         d="m 66.271,448.66 c 8.988,5.121 21.953,5.285 26.391,1.146 0.275,-0.401 0.414,-0.773 0.414,-1.09 l -0.18,-0.542 c -0.087,-0.105 -0.211,-0.188 -0.372,-0.255 -5.085,4.679 -16.702,4.201 -26.621,-1.726 -2.482,-1.482 -5.549,-3.694 -9.013,-5.83 -0.283,0.565 -0.595,1.14 -0.929,1.72 3.992,2.399 7.513,4.983 10.31,6.577 z"
         fill="#dab162"
         id="path564" />
      <g
         fill="#a7894b"
         id="g570">
        <path
           d="m 65.903,446.19 c -0.237,-0.141 -0.483,-0.296 -0.73,-0.448 2.708,3.961 8.233,6.688 15.962,5.291 -4.806,-0.258 -10.234,-1.857 -15.232,-4.843 z"
           id="path566" />
        <path
           d="m 92.662,449.81 c 0.275,-0.401 0.414,-0.773 0.414,-1.09 l -0.18,-0.542 c -0.087,-0.105 -0.211,-0.188 -0.372,-0.255 -0.841,0.773 -1.874,1.392 -3.034,1.881 1.049,0.076 1.681,0.401 1.646,1.087 0.583,-0.32 1.095,-0.68 1.526,-1.081 z"
           id="path568" />
      </g>
      <g
         fill="#ffdb98"
         id="g576">
        <path
           d="m 37.235,434.18 c -1.874,0.401 -3.604,1.383 -5.132,2.643 -0.086,0.817 -0.206,1.638 -0.366,2.461 1.511,-1.324 3.277,-2.317 5.247,-2.763 0.14,-0.812 0.222,-1.591 0.251,-2.341 z"
           id="path572" />
        <path
           d="m 39.043,436.27 c 0.124,-0.794 0.196,-1.556 0.217,-2.294 -0.022,0 -0.046,-0.003 -0.067,-0.003 -0.345,-0.003 -0.686,0.018 -1.024,0.056 -0.01,0.744 -0.079,1.518 -0.191,2.317 0.348,-0.043 0.703,-0.07 1.065,-0.076 z"
           id="path574" />
      </g>
      <g
         fill="#4a1d00"
         id="g892">
        <path
           d="m 26.979,450.59 c 0.978,-5.578 6.913,-11.08 12.393,-11.08 10.73,0.275 20.657,8.777 26.899,12.401 7.034,4.087 20.938,5.467 27.78,0.885 6.703,-4.488 2.117,-8.092 -1.41,-14.801 l 1.624,0.006 c 3.263,6.123 7.523,11.657 -0.281,17.068 -6.958,4.819 -22.158,1.62 -29.125,-2.906 -6.876,-4.468 -16.848,-10.98 -25.84,-11.147 -4.429,0 -9.729,3.829 -11.311,9.223 z"
           id="path886" />
        <path
           d="m 50.54,450.07 c -0.946,-2.247 -1.327,-4.497 -1.327,-7.157 l -1.135,-0.735 c 0,1.975 0.548,4.963 1.922,7.541 z"
           id="path888" />
        <path
           d="m 38.502,404.01 c 12.023,-4.98 27.223,7.901 33.92,6.357 l -0.428,-1.031 c -6.27,0.858 -22.884,-11.988 -34.383,-7.424 -11.25,4.465 -12.413,10.635 -10.008,17.886 6.354,19.148 -3.422,25.201 -3.422,31.494 0,10.354 26.732,11.282 26.732,0.463 0,-6.126 -12.679,-7.107 -15.17,-2.197 -0.747,-4.02 -0.337,-7.462 1.085,-8.965 l -0.902,0.258 c -1.975,3.006 -2.124,9.533 -0.848,12.352 l 1.557,-0.598 c 0.17,-6.527 13.585,-6.255 13.585,-1.028 0,8.165 -17.143,8.124 -22.322,3.229 -1.484,-1.403 -1.916,-2.314 -1.916,-4.421 0,-4.181 9.516,-9.448 2.593,-30.313 -2.343,-7.062 -0.538,-11.726 9.927,-16.062 z"
           id="path890" />
      </g>
      <g
         fill="#4a1d00"
         id="g900">
        <path
           d="m 357.2,450.85 c 0.158,-5.663 -6.712,-12 -13.102,-11.824 -10.731,0.278 -19.648,9.264 -25.89,12.888 -7.033,4.087 -20.938,5.467 -27.781,0.885 -6.703,-4.488 -2.116,-8.092 1.412,-14.801 l -1.343,-0.064 c -3.264,6.123 -8.54,11.273 -0.735,16.682 6.958,4.822 22.891,2.077 29.857,-2.449 6.879,-4.468 16.063,-11.042 25.058,-11.212 4.429,0 11.809,5.525 11.739,9.943 z"
           id="path894" />
        <path
           d="m 333.94,450.07 c 0.946,-2.247 1.327,-4.497 1.327,-7.157 l 1.399,-0.858 c 0,1.978 -0.416,4.562 -1.79,7.137 z"
           id="path896" />
        <path
           d="m 356.6,420.25 c 2.405,-7.251 1.591,-14.024 -9.658,-18.489 -11.502,-4.564 -28.189,8.432 -34.457,7.573 l -0.43,1.031 c 6.697,1.544 21.896,-11.338 33.919,-6.357 10.466,4.336 12.271,9 9.93,16.061 -6.924,20.865 2.592,26.133 2.592,30.313 0,2.106 -0.434,3.018 -1.916,4.421 -5.182,4.896 -22.262,4.896 -22.045,-3.264 0.129,-4.796 12.548,-5.238 12.718,1.289 l 2.186,0.003 c 1.276,-2.818 1.679,-8.745 -0.297,-11.751 l -1.493,-0.489 c 1.424,1.5 1.834,4.945 1.086,8.965 -2.492,-4.91 -15.17,-3.926 -15.17,2.197 0,10.819 27.123,9.193 27.123,0.006 -10e-4,-4.295 -10.443,-12.361 -4.088,-31.509 z"
           id="path898" />
      </g>
      <path
         d="m 308.1,448.96 c 9.253,0 15.769,-7.482 9.818,-18.844 -5.951,-11.362 -7.896,-11.423 -3.006,-24.732 4.818,-13.104 -3.411,-19.157 -26.004,-19.304 -2.189,0 -43.579,-2.074 -82.562,-2.558 -3.691,-0.062 -8.024,-0.1 -13.081,-0.1 -0.341,0 -0.688,0.003 -1.031,0.003 -0.343,0 -0.689,-0.003 -1.031,-0.003 -5.057,0 -9.39,0.038 -13.081,0.1 -38.98,0.483 -80.371,2.558 -82.56,2.558 -22.594,0.146 -30.737,7.482 -25.921,20.587 4.892,13.307 2.859,12.088 -3.091,23.449 -5.95,11.361 1.251,19.216 10.506,19.216 10.819,0 14.979,-2.783 15.816,-0.498 0.642,1.749 -5.739,6.393 -16.212,4.893 l -0.243,0.738 c 11.112,1.67 18.524,-3.352 17.103,-6.126 -1.291,-2.52 -3.336,-0.709 -14.489,-0.709 -11.151,0 -17.373,-6.885 -11.423,-17.9 5.949,-11.019 9.062,-10.137 3.738,-24.305 -5.046,-13.43 3.337,-17.329 24.087,-17.473 1.075,0 61.154,-1.939 96.801,-1.975 35.648,0.035 95.727,1.975 96.802,1.975 20.748,0.144 29.134,4.043 24.086,17.473 -5.323,14.168 -2.212,13.286 3.74,24.305 5.948,11.016 -0.272,17.9 -11.425,17.9 -11.153,0 -13.198,-1.811 -14.488,0.709 -1.473,2.871 7.424,8.481 19.178,5.769 l 0.021,-0.741 c -11.14,2.44 -19.214,-2.728 -18.552,-4.532 0.839,-2.286 5.682,0.125 16.504,0.125 z"
         fill="#4a1d00"
         id="path902" />
      <path
         d="m 306.31,436.09 c -7.04,-0.873 -11.823,0.056 -23.24,0.855 -1.005,0.067 -40.489,-2.036 -82.958,-2.279 -0.814,-0.006 -1.688,-0.009 -2.552,-0.012 -0.359,0 -0.718,-0.003 -1.08,-0.006 -1.356,-0.003 -2.764,-0.006 -4.239,-0.006 -1.474,0 -2.881,0.003 -4.239,0.006 -0.361,0.003 -0.724,0.006 -1.085,0.006 -0.861,0.003 -1.731,0.006 -2.545,0.012 -42.469,0.243 -81.955,2.347 -82.958,2.279 -11.419,-0.8 -16.201,-1.729 -23.241,-0.855 -9.885,1.228 -13.807,9.07 -0.316,10.576 l 0.243,-0.463 c -6.781,-1.014 -11.378,-4.075 -5.486,-6.905 6.809,-3.272 13.61,-1.392 28.783,-0.258 1.087,0.082 55.727,-2.291 90.845,-2.291 35.118,0 89.757,2.373 90.846,2.291 15.174,-1.134 21.912,-2.886 28.782,0.258 5.06,2.312 1.508,5.979 -4.658,6.727 l 0.066,0.58 c 12.055,-0.774 8.733,-9.311 -0.968,-10.515 z"
         fill="#4a1d00"
         id="path904" />
    </g>
  </g>
</svg>
