<?xml version="1.0" encoding="UTF-8" standalone="no"?>
<svg
   xmlns:dc="http://purl.org/dc/elements/1.1/"
   xmlns:cc="http://creativecommons.org/ns#"
   xmlns:rdf="http://www.w3.org/1999/02/22-rdf-syntax-ns#"
   xmlns:svg="http://www.w3.org/2000/svg"
   xmlns="http://www.w3.org/2000/svg"
   xmlns:sodipodi="http://sodipodi.sourceforge.net/DTD/sodipodi-0.dtd"
   xmlns:inkscape="http://www.inkscape.org/namespaces/inkscape"
   width="371"
   height="87"
   viewBox="0 0 98.160415 23.01875"
   version="1.1"
   id="svg3631"
   inkscape:version="1.0.1 (3bc2e813f5, 2020-09-07)"
   sodipodi:docname="banners-1640595-3.svg">
  <defs
     id="defs3625" />
  <sodipodi:namedview
     id="base"
     pagecolor="#ffffff"
     bordercolor="#666666"
     borderopacity="1.0"
     inkscape:pageopacity="0.0"
     inkscape:pageshadow="2"
     inkscape:zoom="0.35"
     inkscape:cx="-474.87743"
     inkscape:cy="527.78601"
     inkscape:document-units="mm"
     inkscape:current-layer="layer1"
     inkscape:document-rotation="0"
     showgrid="false"
     fit-margin-top="0"
     fit-margin-left="0"
     fit-margin-right="0"
     fit-margin-bottom="0"
     units="px"
     inkscape:window-width="1436"
     inkscape:window-height="1020"
     inkscape:window-x="128"
     inkscape:window-y="0"
     inkscape:window-maximized="0" />
  <metadata
     id="metadata3628">
    <rdf:RDF>
      <cc:Work
         rdf:about="">
        <dc:format>image/svg+xml</dc:format>
        <dc:type
           rdf:resource="http://purl.org/dc/dcmitype/StillImage" />
        <dc:title></dc:title>
      </cc:Work>
    </rdf:RDF>
  </metadata>
  <g
     inkscape:label="Ebene 1"
     inkscape:groupmode="layer"
     id="layer1"
     transform="translate(-231.47799,-8.5232854)">
    <g
       id="g3535"
       transform="matrix(0.26458199,0,0,0.26458199,228.811,-25.148477)">
      <path
         d="m 191.3,127.82 -23.887,-0.038 c -76.198,0 -86.639,6.712 -91.655,9.939 -1.518,0.977 -2.616,1.682 -4.912,1.682 -10.922,0.085 -17.687,2.128 -20.676,6.247 -2.173,2.994 -2.384,7.115 -0.645,12.595 0,0.008 1.082,3.638 1.082,3.638 0.049,0.159 0.02,0.326 -0.079,0.457 -0.095,0.129 -0.25,0.208 -0.414,0.211 -2.165,0.027 -5.223,-1.43 -8.762,-3.116 -6.086,-2.898 -13.659,-6.507 -19.573,-3.788 -10.202,4.692 -10.322,11.007 -8.635,16.904 4.043,14.109 0.683,22.115 -1.391,27.02 -0.736,1.741 -1.151,3.106 -1.151,4.144 0,4.488 5.971,7.172 11.745,7.172 4.465,0 9.931,-1.926 9.931,-6.909 0,-0.574 -0.11,-1.119 -0.33,-1.617 -0.729,-2.059 -1.331,-4.016 -1.371,-6.523 -0.003,-0.18 0.087,-0.347 0.239,-0.446 0.153,-0.099 0.341,-0.11 0.505,-0.034 4.95,2.331 9.645,5.862 13.415,8.703 0.005,0.001 0.088,0.064 0.088,0.064 5.531,4.164 18.548,6.979 24.515,2.192 5.203,-4.178 3.562,-7.639 1.012,-12.467 -0.003,-0.005 -1.43,-2.859 -1.43,-2.859 -0.086,-0.17 -0.241,-0.287 -0.133,-0.445 0.109,-0.158 0.296,-0.242 0.489,-0.222 4.018,0.444 8.941,0.896 15.001,0.896 l 29.71,0.141 c 26.495,0.134 62.78,0.318 76.868,0.325 l 0.81,0.002 c 14.205,-0.008 53.372,-0.192 81.972,-0.325 l 32.49,-0.143 c 6.054,0 10.984,-0.458 15.006,-0.906 0.193,-0.022 0.381,0.062 0.489,0.218 0.108,0.158 -0.085,0.318 -0.169,0.488 l -1.403,2.752 c -2.552,4.833 -4.188,8.367 1.016,12.545 5.965,4.787 18.984,1.972 24.513,-2.192 l 0.094,-0.069 c 3.771,-2.837 8.461,-6.369 13.41,-8.698 0.166,-0.076 0.352,-0.064 0.506,0.034 0.153,0.1 0.243,0.267 0.238,0.448 -0.039,2.509 -0.66,4.195 -1.199,6.165 -0.229,0.529 -0.349,1.708 -0.349,2.282 0,2.24 1.184,3.901 3.24,5.089 3.821,2.206 10.425,1.985 14.72,-0.495 1.624,-0.938 3.566,-2.596 3.566,-5.165 0,-1.037 -0.316,-2.449 -1.157,-4.144 -2.242,-4.522 -5.433,-13.065 -1.392,-27.175 1.69,-5.897 1.57,-12.059 -8.63,-16.749 -5.911,-2.717 -13.482,0.888 -19.569,3.785 -3.546,1.69 -6.602,3.146 -8.766,3.119 -0.165,-0.003 -0.32,-0.082 -0.414,-0.213 -0.099,-0.13 -0.128,-0.297 -0.081,-0.454 0,-0.001 1.083,-3.631 1.083,-3.631 1.741,-5.487 1.53,-9.606 -0.645,-12.603 -2.991,-4.119 -9.756,-6.162 -20.678,-6.247 -3.302,0 -5.176,-0.79 -8.013,-1.989 -7.969,-3.366 -22.801,-9.632 -96.362,-9.632 z"
         id="path6"
         style="fill:#f58220" />
      <path
         d="m 19.639,193.44 c -4.816,2.212 -7.345,8.531 -6.713,10.9 0.633,2.37 4.424,4.582 9.874,4.266 5.451,-0.315 10.567,-4.039 6.636,-8.079 -3.273,-1.855 -7.585,-0.769 -9.797,3.103 -0.948,-2.764 -0.789,-7.031 0,-10.19 z"
         fill="#da741c"
         id="path14" />
      <path
         d="m 20.034,203.08 c 0.164,1.897 0.412,2.804 0.577,3.052 0.164,0.246 0.825,0.577 0.825,0.577 0.493,-2.968 9.15,-8.821 10.799,-1.484 1.071,-6.926 -10.882,-7.831 -12.201,-2.145 z"
         fill="#9e5309"
         id="path16" />
      <path
         d="m 71.968,203.16 c 1.319,-2.555 0.319,-5.533 -5.193,-5.358 -5.512,0.176 -12.612,2.556 -16.568,-0.577 -3.957,-3.132 0.322,-8.214 9.725,-7.995 7.092,0.164 8.41,0.577 8.41,0.577 1.977,3.791 6.51,9.973 3.626,13.353 z"
         fill="#da741c"
         id="path18" />
      <path
         d="m 30.587,194.43 c -0.019,-0.062 -6.009,-2.672 -10.321,-1.307 -4.67,1.479 -7.635,7.066 -7.424,10.575 0.873,-3.275 3.551,-5.476 6.062,-4.711 -0.024,-0.624 -0.021,-1.188 0.006,-1.71 4.383,-3.993 10.221,-1.888 12.172,1.934 -0.167,-0.99 -0.578,-3.463 -0.495,-4.781 z"
         fill="#9e5309"
         id="path20" />
      <g
         fill="#da741c"
         id="g26">
        <path
           d="m 47.491,197.24 c 0.223,0.199 0.456,0.394 0.709,0.575 -0.231,-0.196 -0.469,-0.387 -0.709,-0.575 z"
           id="path22" />
        <path
           d="m 65.354,200.09 c -6.941,0.806 -14.801,1.159 -18.686,-3.458 0.28,0.197 -5.986,-4.512 1.438,-17.394 2.219,-3.853 5.44,-9.53 2.854,-16.772 -6.748,-0.031 -11.065,-5.65 -19.23,-6.33 -6.577,1.575 -4.366,4.775 -0.786,6.84 1.229,6.771 2.966,13.591 0.794,21.492 -1.6,4.063 -3.611,6.561 -0.445,8.309 13.646,6.44 14.301,13.318 25.437,13.863 10.162,0.499 16.158,-7.423 8.624,-6.55 z"
           id="path24" />
      </g>
      <path
         d="m 65.644,200 c -0.586,0.067 -1.204,0.173 -1.819,0.264 -6.536,0.662 -13.554,0.656 -17.156,-3.625 0.28,0.197 -5.986,-4.512 1.438,-17.394 2.219,-3.853 5.44,-9.53 2.854,-16.772 -1.383,-0.008 -2.66,-0.255 -3.894,-0.639 0.069,0.165 0.12,0.331 0.21,0.498 5.783,10.811 -5.215,15.93 -3.888,30.15 1.155,12.383 14.455,11.252 21.004,9.126 0.834,0.901 0.841,1.871 -0.094,3.104 4.588,-1.748 6.098,-5.264 1.345,-4.712 z"
         fill="#9e5309"
         id="path28" />
      <path
         d="m 68.341,189.81 c 0,0 -1.318,-0.413 -8.41,-0.577 -5.599,-0.131 -9.381,1.618 -10.688,3.716 0.095,0.078 -0.182,0.146 -0.084,0.21 -0.741,1.271 -0.442,2.669 0.832,3.678 1.479,1.171 4.238,1.488 6.674,1.364 -1.964,-1.936 -3.088,-4.042 -2.593,-6.188 4.52,-1.868 13.532,-0.6 17.003,3.118 0.032,-0.08 0.054,-0.162 0.083,-0.243 -0.942,-1.849 -2.064,-3.637 -2.817,-5.078 z"
         fill="#9e5309"
         id="path30" />
      <path
         d="m 15.952,161.49 c 4.753,-3.934 7.867,-5.08 4.261,-0.163 -3.604,4.916 -1.475,11.636 1.64,19.503 3.114,7.866 0.82,9.342 -2.294,10.324 -3.114,0.983 -4.754,4.262 -4.754,4.262 5.244,-21.633 -6.227,-25.239 1.147,-33.926 z"
         fill="#da741c"
         id="path32" />
      <path
         d="m 15.809,161.67 c -7.061,8.557 4.204,12.266 -1.004,33.746 0,0 0.652,-1.3 1.912,-2.51 4.895,-13.245 -4.731,-23.601 -0.908,-31.236 z"
         fill="#9e5309"
         id="path34" />
      <path
         d="m 62.013,142.5 c -7.3,0.401 -12.204,4.488 -12.119,9.861 0.088,5.374 6.604,16.19 2.126,23.394 -4.153,6.681 -7.613,11.751 -5.165,16.926 0.094,-1.749 2.619,-3.725 4.471,-4.287 -3.8,-3.375 12.03,-9.141 1.946,-30.395 3.653,-3.136 -1.755,-11.385 8.741,-15.499 z"
         fill="#fdbb63"
         id="path36" />
      <path
         d="m 53.652,187.62 c -1.427,-3.492 11.663,-9.838 2.208,-29.763 3.654,-3.137 -1.638,-11.671 8.857,-15.785 -0.51,0.026 -1.005,0.077 -1.489,0.142 -10.033,4.159 -4.912,12.542 -8.524,15.644 9.711,20.464 -4.374,26.603 -2.06,30.039 z"
         fill="#fdbb63"
         id="path38" />
      <path
         d="m 370.84,193.44 c 4.816,2.212 7.343,8.531 6.713,10.9 -0.631,2.37 -4.425,4.582 -9.874,4.266 -5.45,-0.315 -10.567,-4.039 -6.637,-8.079 3.275,-1.855 7.585,-0.769 9.798,3.103 0.945,-2.764 0.79,-7.031 0,-10.19 z"
         fill="#da741c"
         id="path40" />
      <path
         d="m 325.12,200.09 c 6.943,0.806 14.802,1.159 18.687,-3.458 -0.279,0.197 5.987,-4.512 -1.436,-17.394 -2.222,-3.853 -5.443,-9.53 -2.854,-16.772 6.747,-0.031 11.062,-5.65 19.228,-6.33 6.58,1.575 4.369,4.775 0.788,6.84 -1.23,6.771 -2.967,13.591 -0.794,21.492 1.598,4.063 3.61,6.561 0.445,8.309 -13.646,6.44 -14.302,13.318 -25.438,13.863 -10.161,0.499 -16.158,-7.423 -8.626,-6.55 z"
         fill="#da741c"
         id="path42" />
      <path
         d="m 374.22,161.18 c -4.752,-3.935 -7.866,-5.08 -4.261,-0.164 3.604,4.916 1.477,11.637 -1.64,19.503 -3.112,7.866 -0.817,9.341 2.296,10.324 3.114,0.984 4.753,4.261 4.753,4.261 -5.244,-21.633 6.227,-25.24 -1.148,-33.924 z"
         fill="#da741c"
         id="path44" />
      <path
         d="m 374.7,161.78 c 2.451,8.236 -3.793,23.582 -1.69,30.413 1.553,1.302 2.359,2.907 2.359,2.907 -5.122,-21.121 5.688,-25.06 -0.669,-33.32 z"
         fill="#9e5309"
         id="path46" />
      <path
         d="m 318.72,203.16 c -1.319,-2.555 -0.32,-5.533 5.193,-5.358 5.512,0.176 12.612,2.556 16.568,-0.577 3.957,-3.132 -0.32,-8.214 -9.727,-7.995 -7.09,0.164 -8.409,0.577 -8.409,0.577 -1.976,3.791 -6.511,9.973 -3.625,13.353 z"
         fill="#da741c"
         id="path48" />
      <path
         d="m 323.14,199.92 c -2.158,0.385 -2.41,1.819 0,3.979 -0.993,-1.119 2.488,-3.108 8.081,-1.119 5.595,1.989 22.002,-1.74 15.788,-16.532 -5.376,-12.793 -4.6,-19.392 -2.487,-24.365 -2.112,0.87 -4.973,0.746 -4.973,0.746 -4.101,12.306 6.217,16.533 6.341,27.721 0.073,6.718 -5.26,11.025 -13.301,10.193 -3.53,-0.365 -7.378,-0.992 -9.449,-0.623 z"
         fill="#9e5309"
         id="path50" />
      <path
         d="m 361.04,200.53 c -3.327,3.421 -0.172,6.612 4.182,7.704 -2.142,-1.833 -2.619,-6.375 -0.124,-8.545 -1.388,-0.146 -2.798,0.128 -4.058,0.841 z"
         fill="#9e5309"
         id="path52" />
      <path
         d="m 370.84,193.44 c -3.294,-1.371 -8.934,-0.335 -10.992,0.984 0.021,0.375 0.002,0.849 -0.038,1.351 0.003,0.021 0.015,0.038 0.015,0.061 -0.015,1.053 -0.101,2.025 -0.231,2.963 2.167,-3.59 7.78,-5.367 11.83,-1.611 0.035,0.489 0.059,0.978 0.066,1.464 3.309,0.118 5.598,1.97 6.14,4.466 -0.209,-2.854 -2.653,-7.777 -6.79,-9.678 z"
         fill="#9e5309"
         id="path54" />
      <path
         d="m 330.76,189.23 c -7.09,0.164 -8.409,0.577 -8.409,0.577 -0.805,1.541 -2.027,3.475 -3.006,5.455 4.21,-2.85 12.751,-5.074 18.344,-3.195 0.794,1.854 0.117,3.869 -3.247,5.958 2.3,0.12 4.43,-0.11 5.983,-1.344 0.714,-0.562 1.106,-1.199 1.218,-1.853 0.086,0.118 0.17,0.218 0.253,0.323 0.608,-2.893 -3.628,-6.096 -11.136,-5.921 z"
         fill="#9e5309"
         id="path56" />
      <path
         d="m 328.54,142.5 c 7.301,0.401 12.206,4.488 12.12,9.861 -0.087,5.374 -6.604,16.19 -2.127,23.394 4.154,6.681 7.615,11.751 5.166,16.926 -0.092,-1.749 -2.619,-3.725 -4.471,-4.287 3.802,-3.375 -12.029,-9.141 -1.946,-30.395 -3.652,-3.136 1.755,-11.385 -8.742,-15.499 z"
         fill="#fdbb63"
         id="path58" />
      <path
         d="m 336.95,187.76 c 1.427,-3.492 -11.663,-9.838 -2.209,-29.763 -3.654,-3.136 1.64,-11.67 -8.857,-15.786 0.51,0.029 1.005,0.077 1.491,0.142 10.032,4.16 4.91,12.544 8.523,15.645 -9.712,20.464 4.371,26.602 2.059,30.04 z"
         fill="#fdbb63"
         id="path60" />
      <path
         d="m 345.31,188.36 c -0.589,-0.997 -1.562,-2.183 -3.287,-3.349 -7.119,-4.819 -17.578,-0.015 -35.897,-0.015 -6.614,0 -91.966,0.454 -114.39,0.466 -0.026,0 -0.05,0.002 -0.078,0.002 -0.115,0 -0.244,0 -0.366,-0.002 -0.12,0.002 -0.252,0.002 -0.367,0.002 -0.028,0 -0.052,-0.002 -0.076,-0.002 -22.244,-0.012 -99.969,-0.466 -106.58,-0.466 -18.32,0 -28.351,-4.331 -35.772,0.015 -1.626,0.951 -2.599,2.104 -3.333,3.141 0,0 0.135,-2.092 1.927,-6.094 0.36,-0.341 0.78,-0.653 1.406,-0.949 7.775,-3.675 17.452,-0.013 35.772,-0.013 6.609,0 84.334,0.454 106.58,0.466 h 0.887 c 22.421,-0.012 107.77,-0.466 114.39,-0.466 18.319,0 27.698,-3.885 35.418,-0.096 0.747,0.368 1.373,0.794 1.898,1.248 0.946,2.014 1.631,4.151 1.868,6.112 z"
         fill="#ffce71"
         id="path746" />
      <path
         d="m 367.9,161.35 c 6.348,2.918 8.973,6.372 9.438,10.443 -0.05,0.183 -0.097,0.363 -0.149,0.546 -0.216,0.755 -0.409,1.49 -0.582,2.211 -0.761,-3.65 -3.448,-6.785 -9.28,-9.466 -9.249,-4.253 -21.979,6.205 -27.965,6.827 -0.56,-1.289 -0.718,-2.695 -0.53,-3.748 5.375,0.853 19.206,-11.348 29.068,-6.813 z"
         fill="#ffce71"
         id="path748" />
      <g
         fill="#dab162"
         id="g754">
        <path
           d="m 371.09,163.05 c 0.577,1.425 0.793,2.974 0.74,4.627 1.951,1.436 3.246,2.985 4.031,4.652 0.322,-1.181 0.604,-2.262 0.766,-3.3 -0.903,-2.187 -2.645,-4.176 -5.537,-5.979 z"
           id="path750" />
        <path
           d="m 338.83,168.16 c -0.188,1.053 -0.029,2.459 0.53,3.748 4.369,-0.454 12.34,-6.147 19.919,-7.533 0.091,-0.466 0.177,-0.932 0.261,-1.397 1.33,-0.768 2.47,-1.692 3.041,-2.631 -9.006,0.244 -19.291,8.52 -23.751,7.813 z"
           id="path752" />
      </g>
      <g
         fill="#a7894b"
         id="g760">
        <path
           d="m 343.07,167.3 c -1.692,0.659 -3.146,1.032 -4.242,0.858 -0.188,1.053 -0.029,2.459 0.53,3.748 1.02,-0.105 2.235,-0.499 3.596,-1.055 -0.058,-1.284 -0.015,-2.463 0.116,-3.551 z"
           id="path756" />
        <path
           d="m 375.28,166.7 c -0.011,1.323 -0.114,2.716 -0.277,4.148 0.334,0.48 0.618,0.973 0.854,1.474 0.325,-1.179 0.606,-2.265 0.769,-3.3 -0.334,-0.799 -0.774,-1.573 -1.346,-2.322 z"
           id="path758" />
      </g>
      <path
         d="m 344.52,195.81 c 5.235,-3.771 14.087,-12.051 23.289,-12.328 2.97,0.022 5.604,2.302 7.47,5.088 0.138,1.214 0.338,2.342 0.574,3.396 -1.937,-2.902 -4.919,-5.062 -8.153,-5.086 -9.205,0.275 -17.721,8.722 -23.073,12.323 -5.731,3.857 -16.784,5.29 -22.905,1.517 0.509,-3.141 16.631,4.693 22.798,-4.91 z"
         fill="#ffce71"
         id="path762" />
      <g
         fill="#dab162"
         id="g768">
        <path
           d="m 374.4,190.15 c -0.161,-1.12 -0.278,-2.186 -0.352,-3.196 -1.72,-1.998 -3.87,-3.451 -6.239,-3.469 -0.164,0.006 -0.332,0.02 -0.501,0.029 -0.376,1.399 -0.517,2.521 -0.454,3.416 0.28,-0.023 0.56,-0.039 0.846,-0.048 2.511,0.019 4.867,1.328 6.7,3.268 z"
           id="path764" />
        <path
           d="m 321.88,200.8 c 6.149,3.662 17.065,2.228 22.752,-1.599 3.919,-2.635 9.527,-7.861 15.858,-10.585 -0.297,-0.845 -0.742,-1.793 -1.208,-2.862 -5.914,2.797 -11.179,7.479 -14.757,10.055 -3.718,5.791 -11.054,5.24 -16.406,4.581 -1.005,-0.084 -2.007,-0.187 -2.991,-0.301 -1.866,-0.215 -2.9,0.108 -3.248,0.711 z"
           id="path766" />
      </g>
      <g
         fill="#a7894b"
         id="g774">
        <path
           d="m 374.4,190.15 c -0.166,-1.121 -0.278,-2.186 -0.352,-3.196 -0.415,-0.479 -0.85,-0.925 -1.31,-1.33 -0.104,1.032 -0.166,2.014 -0.172,2.936 0.654,0.457 1.269,0.994 1.834,1.59 z"
           id="path770" />
        <path
           d="m 346.91,197.56 c 0.841,-1.305 1.374,-2.856 1.462,-4.677 -1.427,1.104 -2.722,2.122 -3.847,2.934 -5.194,8.089 -17.449,3.808 -21.491,4.131 -0.542,0.11 -0.95,0.29 -1.222,0.535 -0.041,0.071 -0.07,0.152 -0.086,0.243 0.967,0.596 2.066,1.047 3.241,1.396 1.45,-0.326 3.614,-0.279 6.258,0.661 0.144,0.051 0.299,0.095 0.456,0.139 4.784,-0.132 9.713,-1.535 12.95,-3.712 0.706,-0.478 1.471,-1.036 2.279,-1.65 z"
           id="path772" />
      </g>
      <path
         d="m 371.25,198.69 c 0.493,-1.638 0.086,-2.924 -0.258,-3.957 -2.753,-2.148 -4.301,-1.978 -4.301,-1.978 -3.182,0.258 -6.107,1.376 -6.879,2.064 0,0.262 -0.015,0.542 -0.035,0.818 0.023,0.063 0.048,0.128 0.045,0.198 -0.007,0.514 -0.053,0.977 -0.104,1.431 3.22,-2.708 9.077,-2.975 11.532,1.424 z"
         fill="#ffce71"
         id="path776" />
      <path
         d="m 371.16,195.25 c -0.054,-0.178 -0.108,-0.351 -0.162,-0.515 -1.42,-1.107 -2.516,-1.597 -3.248,-1.813 -1.292,0.005 -2.726,0.116 -4.052,0.327 -1.837,0.449 -3.294,1.085 -3.842,1.542 0.001,0.289 -0.023,0.624 -0.049,0.96 0.006,0.03 0.021,0.057 0.021,0.088 -0.007,0.517 -0.053,0.981 -0.104,1.438 1.255,-1.061 2.907,-1.745 4.612,-1.925 2.316,-0.598 4.957,-0.172 7.136,1.878 -0.033,-0.617 -0.154,-1.324 -0.312,-1.98 z"
         fill="#a7894b"
         id="path778" />
      <path
         d="m 340.52,154.69 c 0.362,0.501 0.656,1.042 0.911,1.604 0.216,-0.873 0.369,-1.705 0.469,-2.501 -0.311,-1.022 -0.766,-1.954 -1.38,-2.801 -3.062,-4.216 -9.915,-6.308 -20.957,-6.393 -3.234,0 -5.082,-0.779 -7.88,-1.963 -7.992,-3.375 -22.866,-9.657 -96.498,-9.657 l -23.884,0.038 -23.885,-0.038 c -76.302,0 -86.798,6.75 -91.843,9.994 -1.524,0.98 -2.531,1.626 -4.726,1.626 -11.04,0.085 -17.897,2.177 -20.957,6.393 -0.614,0.847 -1.071,1.778 -1.382,2.801 0.102,0.797 0.255,1.628 0.468,2.501 0.258,-0.562 0.551,-1.104 0.914,-1.604 3.06,-4.216 9.917,-6.305 20.957,-6.39 2.194,0 3.201,-0.648 4.726,-1.629 5.045,-3.244 15.541,-9.994 91.843,-9.994 l 23.885,0.039 23.884,-0.039 c 73.632,0 88.506,6.284 96.498,9.659 2.798,1.182 4.646,1.964 7.88,1.964 11.042,0.086 17.895,2.175 20.957,6.39 z"
         fill="#ffce71"
         id="path780" />
      <path
         d="m 22.709,161.35 c -6.347,2.918 -8.972,6.372 -9.44,10.443 0.05,0.183 0.1,0.363 0.152,0.546 0.217,0.755 0.405,1.49 0.581,2.211 0.761,-3.65 3.447,-6.785 9.281,-9.466 9.246,-4.253 21.979,6.205 27.963,6.827 0.562,-1.289 0.719,-2.695 0.53,-3.748 -5.376,0.853 -19.204,-11.348 -29.067,-6.813 z"
         fill="#ffce71"
         id="path782" />
      <path
         d="m 45.827,195.81 c -5.236,-3.771 -14.087,-12.051 -23.291,-12.328 -2.969,0.022 -5.603,2.302 -7.468,5.088 -0.141,1.214 -0.337,2.342 -0.574,3.396 1.937,-2.902 4.919,-5.062 8.155,-5.086 9.203,0.275 17.717,8.722 23.069,12.323 5.732,3.857 16.786,5.29 22.907,1.517 -0.507,-3.141 -16.632,4.693 -22.798,-4.91 z"
         fill="#ffce71"
         id="path784" />
      <g
         fill="#dab162"
         id="g790">
        <path
           d="m 22.778,183.5 c -0.082,-0.004 -0.163,-0.012 -0.242,-0.015 -2.444,0.02 -4.661,1.567 -6.408,3.67 -0.07,1 -0.181,2.052 -0.34,3.162 1.857,-2.033 4.278,-3.416 6.861,-3.435 0.224,0.007 0.449,0.023 0.672,0.039 0.017,-0.913 -0.143,-2.023 -0.543,-3.421 z"
           id="path786" />
        <path
           d="m 68.564,200.75 c -0.376,-0.568 -1.397,-0.872 -3.211,-0.661 -1.096,0.128 -2.213,0.239 -3.337,0.325 -5.332,0.65 -12.522,1.106 -16.189,-4.605 -3.557,-2.561 -8.781,-7.201 -14.649,-10 -0.466,1.067 -0.907,2.013 -1.203,2.856 6.286,2.739 11.853,7.916 15.744,10.536 5.715,3.844 16.714,5.276 22.845,1.549 z"
           id="path788" />
      </g>
      <g
         fill="#a7894b"
         id="g796">
        <path
           d="m 17.856,188.5 c 0.176,-1.13 0.261,-2.234 0.273,-3.313 -0.718,0.558 -1.389,1.225 -2.002,1.961 -0.069,1.002 -0.181,2.054 -0.339,3.164 0.631,-0.69 1.325,-1.302 2.068,-1.812 z"
           id="path792" />
        <path
           d="m 65.644,200 c -0.352,0.04 -0.715,0.067 -1.07,0.104 -0.536,0.062 -1.106,0.138 -1.711,0.214 0.019,0.01 0.035,0.021 0.054,0.032 -0.302,0.026 -0.604,0.051 -0.906,0.073 -5.332,0.648 -12.518,1.102 -16.183,-4.607 -0.669,-0.481 -1.398,-1.038 -2.18,-1.642 0.492,2.394 1.503,4.189 2.85,5.509 3.021,1.784 7.198,2.955 11.354,3.192 2.47,-0.176 4.819,-0.699 6.635,-1.295 0.186,0.223 0.322,0.451 0.413,0.686 1.318,-0.346 2.54,-0.835 3.616,-1.481 -0.192,-0.628 -1.092,-0.991 -2.872,-0.785 z"
           id="path794" />
      </g>
      <g
         fill="#dab162"
         id="g802">
        <path
           d="m 18.346,168.01 c -0.056,-1.675 0.159,-3.242 0.75,-4.684 -3.02,1.982 -4.704,4.183 -5.442,6.621 0.192,0.979 0.472,2.006 0.779,3.123 0.682,-1.822 1.932,-3.505 3.913,-5.06 z"
           id="path798" />
        <path
           d="m 51.703,170.39 c 0.047,-0.285 0.085,-0.575 0.117,-0.868 0.032,-0.485 0.029,-0.952 -0.044,-1.359 -4.482,0.712 -14.841,-7.646 -23.879,-7.818 0.571,0.942 1.713,1.868 3.046,2.636 0.082,0.457 0.168,0.915 0.253,1.375 7.622,1.344 15.655,7.099 20.05,7.556 0.218,-0.501 0.358,-1.016 0.457,-1.522 z"
           id="path800" />
      </g>
      <g
         fill="#a7894b"
         id="g808">
        <path
           d="m 48.671,171.25 c 0.952,0.346 1.817,0.581 2.575,0.66 0.218,-0.499 0.357,-1.015 0.457,-1.521 0.047,-0.285 0.085,-0.575 0.117,-0.868 0.032,-0.485 0.029,-0.952 -0.044,-1.359 -0.779,0.124 -1.74,-0.032 -2.836,-0.366 0.08,1.19 -0.029,2.332 -0.269,3.454 z"
           id="path804" />
        <path
           d="m 13.658,169.93 c 0.19,0.979 0.47,2.01 0.779,3.127 0.281,-0.75 0.66,-1.475 1.146,-2.18 -0.292,-1.266 -0.523,-2.484 -0.629,-3.654 -0.586,0.868 -1.012,1.769 -1.296,2.707 z"
           id="path806" />
      </g>
      <g
         fill="#ffdb98"
         id="g826">
        <path
           d="m 56.362,179.49 c -0.653,1.449 -1.397,2.675 -2.068,3.732 0.401,-0.044 0.809,-0.079 1.228,-0.103 0.653,-1.034 1.37,-2.233 2.004,-3.639 -0.397,-10e-4 -0.783,0.003 -1.164,0.01 z"
           id="path810" />
        <path
           d="m 344.26,186.94 c -0.413,-1.845 -1.301,-3.753 -2.452,-5.795 -0.09,-0.047 -0.173,-0.097 -0.266,-0.143 -1.826,-0.896 -3.744,-1.359 -5.852,-1.55 0.694,1.491 1.477,2.748 2.181,3.823 1.506,0.33 2.882,0.878 4.15,1.737 0.959,0.651 1.68,1.302 2.239,1.928 z"
           id="path812" />
        <path
           d="m 332.98,179.35 c 0.603,1.363 1.288,2.537 1.927,3.555 0.414,0.021 0.824,0.05 1.222,0.094 -0.652,-1.037 -1.362,-2.233 -1.985,-3.634 -0.383,-0.012 -0.77,-0.017 -1.164,-0.015 z"
           id="path814" />
        <path
           d="m 48.85,180.96 c -1.156,2.029 -2.062,3.929 -2.505,5.76 0.568,-0.593 1.263,-1.181 2.159,-1.705 1.261,-0.738 2.6,-1.222 4.038,-1.523 0.721,-1.097 1.546,-2.392 2.271,-3.933 -2.158,0.164 -4.115,0.586 -5.963,1.401 z"
           id="path816" />
        <path
           d="m 335.51,150.87 c 2.121,0.948 3.736,2.168 4.869,3.655 0.164,-0.788 0.271,-1.518 0.281,-2.165 0.007,-0.434 -0.029,-0.857 -0.087,-1.271 -0.021,-0.032 -0.041,-0.064 -0.062,-0.096 -1.369,-1.887 -3.507,-3.344 -6.429,-4.39 0.886,1.372 1.249,2.836 1.428,4.267 z"
           id="path818" />
        <path
           d="m 56.569,150.22 c 0.391,-0.136 0.797,-0.264 1.216,-0.385 0.27,-1.42 0.777,-2.845 1.823,-4.157 -0.486,0.106 -0.956,0.223 -1.409,0.346 -0.959,1.333 -1.397,2.774 -1.63,4.196 z"
           id="path820" />
        <path
           d="m 334,150.28 c -0.229,-1.421 -0.653,-2.862 -1.595,-4.198 -0.459,-0.127 -0.931,-0.246 -1.421,-0.357 1.035,1.315 1.536,2.742 1.799,4.16 0.42,0.125 0.827,0.257 1.217,0.395 z"
           id="path822" />
        <path
           d="m 55.053,150.8 c 0.187,-1.432 0.56,-2.895 1.464,-4.265 -2.933,1.02 -5.088,2.443 -6.492,4.288 -0.085,0.501 -0.138,1.011 -0.131,1.538 0.011,0.604 0.104,1.281 0.252,2.01 1.154,-1.455 2.779,-2.647 4.907,-3.571 z"
           id="path824" />
      </g>
      <path
         d="m 30.622,197.4 c -3.183,-2.839 -9.202,-3.185 -11.696,1.289 -0.516,-2.924 -0.085,-2.924 0.259,-3.957 2.751,-2.148 4.298,-1.978 4.298,-1.978 3.184,0.258 6.107,1.376 6.882,2.064 -10e-4,1.119 0.257,2.582 0.257,2.582 z"
         fill="#ffce71"
         id="path828" />
      <path
         d="m 18.964,197.23 c 2.238,-2.108 4.966,-2.496 7.325,-1.825 1.617,0.255 3.166,0.956 4.333,1.998 0,0 -0.258,-1.464 -0.258,-2.581 -0.558,-0.495 -2.23,-1.212 -4.31,-1.672 -1.217,-0.158 -2.482,-0.237 -3.625,-0.227 -0.682,0.2 -1.682,0.645 -2.962,1.6 -0.241,0.823 -0.459,1.851 -0.503,2.707 z"
         fill="#a7894b"
         id="path830" />
      <g
         fill="#4a1d00"
         id="g858">
        <path
           d="m 12.244,204.02 c -0.023,-5.607 4.819,-12.012 10.405,-12.051 9.203,0.275 17.717,8.722 23.069,12.32 6.034,4.062 17.961,5.435 23.829,0.881 5.748,-4.461 1.814,-8.042 -1.212,-14.707 l 0.741,0.082 c 2.798,6.083 7.28,10.805 0.585,16.179 -5.967,4.79 -19.177,2.316 -25.153,-2.184 -5.897,-4.438 -14.449,-10.909 -22.161,-11.074 -4.69,-0.023 -9.222,5.787 -9.652,10.286 z"
           id="path838" />
        <path
           d="m 11.166,202.77 c 0,2.096 0.369,3 1.643,4.393 4.442,4.863 19.146,4.906 19.146,-3.206 0,-5.194 -11.507,-5.466 -11.651,1.02 l -1.034,-0.16 c -1.459,-7.935 13.281,-7.764 13.281,-0.683 0,10.751 -22.471,8.71 -22.471,-0.419 0,-4.267 8.29,-12.206 2.839,-31.233 -2.062,-7.202 -1.008,-12.871 8.643,-17.309 9.863,-4.533 23.689,7.667 29.065,6.814 l 0.369,1.024 c -5.745,1.536 -18.779,-11.262 -29.092,-6.315 -8.975,4.309 -10.523,8.944 -8.514,15.955 5.937,20.732 -2.224,25.964 -2.224,30.119 z"
           id="path840" />
        <path
           d="m 32.228,202.46 c -0.812,-2.229 -1.138,-4.465 -1.138,-7.108 l -0.975,-0.732 c 0,1.964 0.472,4.934 1.649,7.492 z"
           id="path842" />
        <path
           d="m 19.269,204.81 c -1.095,-2.799 -1.268,-8.531 0.426,-11.518 l 0.773,-0.257 c -1.325,1.622 -1.629,5.514 -0.745,9.951 z"
           id="path844" />
        <path
           d="m 334.48,188.57 c -8.522,-1.225 -13.184,1.119 -30.608,1.119 -11.986,0 -95.464,0.205 -112.57,0.21 -16.927,-0.005 -92.779,-0.21 -104.77,-0.21 -17.426,0 -22.086,-2.344 -30.609,-1.119 -8.953,1.289 -10.951,9.565 -0.293,10.604 l 0.156,-0.337 c -5.775,-0.281 -9.426,-4.453 -4.632,-7.08 7.435,-4.073 14.8,-0.013 33.12,-0.013 6.609,0 84.334,0.454 106.58,0.466 h 0.887 c 22.421,-0.012 107.77,-0.466 114.39,-0.466 18.319,0 25.712,-4.112 33.115,0.013 5.681,3.16 0.7,7.191 -6.149,6.819 l 0.151,0.476 c 13.331,0.528 10.187,-9.193 1.231,-10.482 z"
           id="path846" />
        <path
           d="m 378.26,202.56 c -0.662,-5.349 -5.805,-10.594 -10.504,-10.594 -9.205,0.275 -17.717,8.722 -23.069,12.32 -6.032,4.062 -17.959,5.435 -23.827,0.881 -5.748,-4.461 -1.815,-8.042 1.211,-14.707 l -0.742,0.082 c -2.798,6.083 -7.279,10.805 -0.586,16.179 5.968,4.79 19.176,2.316 25.152,-2.184 5.9,-4.438 14.449,-10.909 22.162,-11.074 3.798,0 8.78,4.699 9.761,8.938 z"
           id="path848" />
        <path
           d="m 344.44,182.64 c -5.104,-11.288 -7.26,-11.009 -3.063,-24.233 4.131,-13.018 -2.441,-19.372 -21.818,-19.521 -12.298,0 -4.819,-11.622 -104.38,-11.622 -8.848,0 -16.788,0.014 -23.884,0.038 -7.095,-0.024 -15.035,-0.038 -23.885,-0.038 -99.558,0 -87.373,11.622 -96.568,11.622 -19.378,0.148 -25.948,6.503 -21.817,19.521 4.195,13.225 2.039,12.945 -3.064,24.233 -5.103,11.288 0.852,18.328 8.785,18.552 10.418,0.295 13.072,-2.227 13.791,0.044 0.529,1.675 -5.32,6.453 -13.853,4.924 l -0.088,0.373 c 9.098,1.854 15.677,-3.115 14.496,-5.789 -1.107,-2.503 -2.861,-0.701 -12.428,-0.701 -9.564,0 -14.9,-6.844 -9.797,-17.788 5.104,-10.945 7.772,-10.069 3.206,-24.146 -4.328,-13.345 2.862,-17.218 20.659,-17.359 3.646,0 10.336,-11.75 96.678,-11.75 8.728,0 16.693,-0.019 23.885,-0.051 7.19,0.032 15.158,0.051 23.884,0.051 86.343,0 100.84,11.75 104.49,11.75 17.798,0.142 24.987,4.015 20.66,17.359 -4.566,14.077 -1.898,13.201 3.205,24.146 5.104,10.944 -0.233,17.788 -9.797,17.788 -9.567,0 -11.319,-1.802 -12.427,0.701 -1.157,2.615 5.038,7.544 13.883,6.299 l -0.078,-0.39 c -8.254,0.946 -13.767,-3.782 -13.249,-5.417 0.718,-2.271 4.51,-0.044 13.79,-0.044 7.938,0 13.888,-7.264 8.786,-18.552 z"
           id="path850" />
        <path
           d="m 379.24,202.77 c 0,2.096 -0.372,3 -1.641,4.393 -4.443,4.863 -19.147,4.906 -19.147,-3.206 0,-5.194 11.511,-4.781 11.651,1.02 l 1.034,-0.16 c 1.46,-7.935 -13.277,-7.764 -13.277,-0.683 0,10.751 22.467,8.71 22.467,-0.419 0,-4.267 -8.289,-12.206 -2.839,-31.233 2.062,-7.202 1.008,-12.871 -8.642,-17.309 -9.863,-4.533 -23.691,7.667 -29.067,6.814 l -0.367,1.024 c 5.743,1.536 18.78,-11.262 29.09,-6.315 8.978,4.309 10.524,8.944 8.519,15.955 -5.939,20.732 2.219,25.964 2.219,30.119 z"
           id="path852" />
        <path
           d="m 358.17,202.46 c 0.813,-2.229 1.14,-4.465 1.14,-7.108 l 0.972,-0.732 c 0,1.964 -0.469,4.934 -1.646,7.492 z"
           id="path854" />
        <path
           d="m 371.13,204.81 c 1.094,-2.799 1.269,-8.531 -0.425,-11.518 l -0.775,-0.257 c 1.324,1.622 1.632,5.514 0.746,9.951 z"
           id="path856" />
      </g>
    </g>
  </g>
</svg>
