<?xml version="1.0" encoding="UTF-8" standalone="no"?>
<svg
   xmlns:dc="http://purl.org/dc/elements/1.1/"
   xmlns:cc="http://creativecommons.org/ns#"
   xmlns:rdf="http://www.w3.org/1999/02/22-rdf-syntax-ns#"
   xmlns:svg="http://www.w3.org/2000/svg"
   xmlns="http://www.w3.org/2000/svg"
   xmlns:sodipodi="http://sodipodi.sourceforge.net/DTD/sodipodi-0.dtd"
   xmlns:inkscape="http://www.inkscape.org/namespaces/inkscape"
   width="326"
   height="87"
   viewBox="0 0 86.254167 23.018751"
   version="1.1"
   id="svg2647"
   inkscape:version="1.0.1 (3bc2e813f5, 2020-09-07)"
   sodipodi:docname="banners-1640595-1.svg">
  <defs
     id="defs2641" />
  <sodipodi:namedview
     id="base"
     pagecolor="#ffffff"
     bordercolor="#666666"
     borderopacity="1.0"
     inkscape:pageopacity="0.0"
     inkscape:pageshadow="2"
     inkscape:zoom="0.35"
     inkscape:cx="-539.16148"
     inkscape:cy="497.17572"
     inkscape:document-units="mm"
     inkscape:current-layer="layer1"
     inkscape:document-rotation="0"
     showgrid="false"
     fit-margin-top="0"
     fit-margin-left="0"
     fit-margin-right="0"
     fit-margin-bottom="0"
     inkscape:window-width="1436"
     inkscape:window-height="1020"
     inkscape:window-x="64"
     inkscape:window-y="0"
     inkscape:window-maximized="0"
     units="px" />
  <metadata
     id="metadata2644">
    <rdf:RDF>
      <cc:Work
         rdf:about="">
        <dc:format>image/svg+xml</dc:format>
        <dc:type
           rdf:resource="http://purl.org/dc/dcmitype/StillImage" />
        <dc:title></dc:title>
      </cc:Work>
    </rdf:RDF>
  </metadata>
  <g
     inkscape:label="Ebene 1"
     inkscape:groupmode="layer"
     id="layer1"
     transform="translate(-248.48647,-16.622258)">
    <g
       id="g2510"
       transform="matrix(0.26458199,0,0,0.26458199,240.04621,16.622258)">
      <path
         d="M 266.41,4.286 C 248.464,7.314 226.133,11.082 191.734,11.097 157.338,11.082 135.005,7.315 117.06,4.286 104.757,2.212 94.132,0.419 82.955,0.419 c -5.789,0 -9.818,1.327 -12.32,4.054 -4.304,4.688 -3.588,13.026 -2.826,21.856 l 0.397,4.971 c 0.015,0.173 -0.079,0.334 -0.235,0.41 -0.156,0.074 -0.342,0.044 -0.469,-0.075 -3.324,-3.089 -9.649,-5.008 -14.715,-4.46 -3.207,0.346 -4.695,2.106 -5.377,3.522 -1.154,2.385 -0.869,5.668 0.705,8.167 1.346,2.131 0.684,5.509 -0.727,9.924 -0.041,0.134 -0.145,0.236 -0.277,0.275 -0.134,0.04 -0.277,0.012 -0.386,-0.076 -1.923,-1.556 -3.392,-2.119 -4.489,-1.724 -2.103,0.754 -2.973,5.048 -3.98,10.021 l -1.002,4.672 c -1.254,5.312 -2.461,7.094 -3.525,8.669 -0.928,1.368 -0.728,2.55 -1.305,6.021 -0.305,1.827 0.023,3.296 1.002,4.499 2.418,2.968 8.295,3.522 12.506,3.684 1.621,0.061 2.913,-0.464 3.84,-1.562 1.873,-2.218 1.863,-6.21 1.288,-8.953 -0.034,-0.166 -0.976,-0.34 -0.836,-0.437 0.14,-0.096 0.313,-0.105 0.456,-0.014 l 4.012,1.921 c 4.742,3.165 11.239,7.501 23.559,7.501 12.648,0 16.298,-7.472 16.672,-8.324 1.143,-2.599 -0.764,-6.196 -1.723,-10.005 -1.1,-4.374 -2.238,-8.897 -0.496,-12.615 0.066,-0.146 0.205,-0.239 0.365,-0.242 l 1.342,-0.023 c 7.446,0 16.037,1.538 26.916,3.485 17.484,3.132 39.244,7.026 69.641,7.158 -0.002,0.011 0.397,0.008 0.397,0.008 l 0.369,-0.003 c 0.003,0 0.772,0.006 0.772,0.006 30.394,-0.143 52.154,-4.037 69.639,-7.169 10.876,-1.947 19.469,-3.485 26.914,-3.485 l 1.341,0.022 c 0.159,0.003 0.299,0.097 0.368,0.241 1.74,3.72 0.604,8.241 -0.497,12.617 -0.96,3.809 -0.864,7.406 0.278,10.005 0.58,1.321 4.098,7.911 16.434,7.911 12.332,0 18.929,-4.175 23.744,-7.223 l 2.23,-1.944 c 0.146,-0.088 0.318,-0.074 0.455,0.025 0.136,0.1 1.189,0.275 1.152,0.439 -0.822,3.546 -0.5,6.833 0.857,8.793 0.885,1.274 2.202,2.035 3.919,2.261 3.97,0.522 9.409,-0.416 12.122,-3.225 1.4,-1.45 1.934,-3.25 1.583,-5.353 -0.577,-3.472 -2.377,-4.653 -3.304,-6.021 -1.065,-1.575 -2.272,-3.357 -3.526,-8.669 -0.487,-2.065 -0.825,-4.09 -1.148,-6.047 -0.715,-4.309 -1.333,-8.03 -3.193,-8.774 -1.143,-0.457 -2.821,0.164 -5.13,1.899 -0.108,0.082 -0.25,0.107 -0.381,0.066 -0.129,-0.043 -0.23,-0.144 -0.271,-0.274 -1.416,-4.436 -2.086,-7.828 -0.739,-9.962 1.535,-2.435 1.815,-5.344 0.728,-7.593 -0.68,-1.409 -2.195,-3.162 -5.559,-3.525 -5.248,-0.568 -11.37,1.02 -14.557,3.771 -0.129,0.111 -0.312,0.137 -0.463,0.059 -0.152,-0.077 -0.242,-0.235 -0.229,-0.404 l 0.388,-4.843 c 0.762,-8.83 1.48,-17.168 -2.824,-21.856 -2.503,-2.727 -6.533,-4.054 -12.322,-4.054 -11.177,0.001 -21.804,1.794 -34.105,3.868 z"
         id="path2"
         style="fill:#f58220" />
      <path
         d="m 323.5,28.169 c -3.639,3.239 -3.045,13.842 -0.973,19.581 5.417,14.998 0.861,18.331 3.916,27.08 -9.025,9.583 -33.648,6.714 -35.621,-2.166 0.658,-1.974 2.961,-2.631 8.552,-0.33 5.59,2.303 19.638,6.718 20.884,-6.742 0.824,-8.88 -7.234,-18.747 -5.293,-33.597 3.486,-2.254 8.535,-3.826 8.535,-3.826 z"
         fill="#da741c"
         id="path274" />
      <path
         d="m 351.58,77.508 c -0.303,-2.172 -2.584,-2.793 -5.664,-1.219 0.681,1.362 2.227,3.395 2.227,3.395 -2.694,1.479 -4.939,1.483 -6.305,0.065 -0.855,-1.708 2.217,-4.386 3.463,-4.726 4.541,-1.236 -3.302,-13 -6.93,-26.695 0,0 -1.41,0.738 -2.082,1.276 4.104,12.903 4.652,17.854 5.774,23.101 0.808,3.76 -1.483,4.365 -1.483,4.365 -2.982,0.858 -4.267,2.562 -3.154,4.787 0.852,1.7 4.671,1.767 8.342,1.313 3.669,-0.453 6.319,-2.029 5.812,-5.662 z"
         fill="#da741c"
         id="path276" />
      <path
         d="m 335.38,82.096 c -0.21,-2.409 0.838,-4.819 4.4,-6.182 3.562,-1.36 0.383,-5.45 -3.017,-4.642 -2.324,0.552 -3.011,1.814 -3.011,1.814 0,0 -0.572,5.763 1.628,9.01 z"
         fill="#da741c"
         id="path278" />
      <path
         d="m 289.41,70.603 c 2.108,-7.164 23.794,8.146 28.219,-1.969 3.213,-7.34 -6.159,-15.587 -26.812,-17.062 1.593,3.093 0.379,12.799 -1.407,19.031 z"
         fill="#da741c"
         id="path280" />
      <path
         d="m 339.8,70.075 c -1.928,-14.652 -8.673,-26.651 -5.828,-31.02 2.886,-4.427 0.072,-9.886 -7.192,-9.824 -3.54,1.407 -0.249,4.538 1.444,6.231 -2.213,8.851 7.504,20.927 5.634,34.699 2.133,-0.947 4.215,-0.985 5.942,-0.086 z"
         fill="#fdbb63"
         id="path282" />
      <path
         d="m 323.26,29.818 c -1.755,1.564 0.964,4.157 2.449,5.645 -2.325,9.302 8.526,22.163 5.257,36.815 l 1.26,-0.936 c 2.623,-14.262 -7.713,-26.777 -5.438,-35.88 -1.6,-1.599 -4.618,-4.479 -1.969,-5.979 z"
         fill="#fdbb63"
         id="path284" />
      <path
         d="m 348.17,73.701 c 0.888,-0.028 2.8,0.115 3.431,0.686 -0.855,-2.894 -4.762,-3.749 -6.311,-11.719 -1.52,-7.824 -2.968,-13.579 -4.902,-13.869 -1.162,0 -0.295,1.02 1.543,2.954 3.586,18.214 6.767,19.054 6.239,21.948 z"
         fill="#fdbb63"
         id="path286" />
      <path
         d="m 347.42,73.758 c 0.111,-0.015 0.228,-0.023 0.341,-0.033 0.553,-2.914 -2.639,-3.708 -6.232,-21.972 -1.68,-1.77 -2.528,-2.763 -1.781,-2.921 -0.032,-0.01 -0.064,-0.027 -0.098,-0.033 -1.162,0 -0.295,1.02 1.543,2.954 3.608,18.334 6.81,19.063 6.227,22.005 z"
         fill="#fdbb63"
         id="path288" />
      <path
         d="m 312.77,54.791 c 2.395,1.575 4.771,3.734 6.016,6.609 -0.564,-6.193 -6.301,-12.2 -5.643,-25.222 0.527,-10.438 2.449,-24.041 -3.15,-30.838 -2.711,-2.854 -6.41,-3.246 -6.514,-3.115 -2.438,3.059 2.219,8.716 6.143,9.973 -3.34,28.686 3.76,34.846 3.148,42.593 z"
         fill="#fdbb63"
         id="path290" />
      <path
         d="m 301.34,1.988 c -2.89,2.995 1.908,8.921 5.935,10.21 -3.142,26.988 2.956,34.035 3.181,41.228 0.33,0.176 0.669,0.362 1.012,0.56 0.092,-7.4 -6.41,-14.101 -3.186,-41.787 -4.007,-1.283 -8.775,-7.156 -5.975,-10.163 z"
         fill="#fdbb63"
         id="path292" />
      <path
         d="m 292.49,62.879 c 9.623,-7.512 24.482,-4.54 24.629,4.816 2.506,-5.458 -3.962,-14.574 -24.727,-16.219 1.11,4.077 0.614,9.765 0.098,11.403 z"
         fill="#9e5309"
         id="path294" />
      <path
         d="m 334.63,72.608 c -0.438,0.29 0.359,3.713 0.359,3.713 1.451,-2.668 6.67,-3.406 5.241,-1.545 1.493,1.003 1.077,-3.204 -2.348,-3.354 -1.742,-0.076 -2.699,0.372 -3.252,1.186 z"
         fill="#9e5309"
         id="path296" />
      <path
         d="m 342,80.152 c 0.908,1.192 3.634,3.521 7.157,1.249 -0.625,-0.853 -1.591,-1.817 -1.591,-1.817 -3.124,1.591 -3.862,1.419 -5.566,0.568 z"
         fill="#9e5309"
         id="path298" />
      <path
         d="m 319.97,75.205 c 0.181,-0.196 0.352,-0.394 0.509,-0.604 0.033,-0.046 0.064,-0.094 0.098,-0.141 0.155,-0.219 -0.697,-0.438 -0.564,-0.67 6.137,-10.178 -4.111,-33.132 1.149,-44.843 -1.248,0.312 -4.522,1.714 -6.548,3.586 -0.979,16.597 4.832,19.803 5.457,30.25 0.106,1.804 0.234,3.456 -0.252,4.842 -3.062,8.73 -11.297,7.667 -18.459,4.981 -7.287,-2.733 -9.466,-2.629 -10.104,-0.259 -0.007,0.03 0.012,0.059 0.027,0.086 -0.034,0.105 -0.072,0.211 -0.064,0.334 0.076,1.367 3.688,3.315 6.834,4.355 3.148,1.038 5.639,0.773 5.561,-0.594 -0.021,-0.414 -0.302,-0.886 -0.736,-1.365 3.248,1.075 6.756,2.199 9.92,2.51 3.077,0.302 5.4,-0.677 6.959,-2.234 -0.002,0.002 -0.006,0.026 -0.006,0.026 0.078,-0.081 0.143,-0.175 0.219,-0.26 z"
         fill="#9e5309"
         id="path300" />
      <path
         d="m 343.21,70.959 c -0.46,-8.592 -4.769,-17.797 -5.589,-22.247 l -0.628,0.489 -1.05,0.281 c 3.147,9.302 7.994,22.591 7.225,25.039 -0.769,2.449 -1.627,2.089 -2.584,2.549 -2.244,0.965 -3.605,2.323 -3.757,3.46 0,0.004 -10e-4,0.009 -0.003,0.012 -0.018,0.136 -0.08,1.999 2.545,2.253 1.1,0.106 1.77,-0.541 1.489,-1.386 -0.158,-0.478 -0.598,-0.91 -1.138,-1.224 0.733,-0.381 1.571,-0.539 2.157,-0.352 -0.233,-0.203 -0.462,-0.656 -0.683,-1.185 2.155,-1.209 2.271,-2.939 2.016,-7.689 z"
         fill="#9e5309"
         id="path302" />
      <path
         d="m 346.03,76.062 c -1.383,0.484 -2.873,1.562 -3.061,2.528 -0.377,0.218 -0.496,0.571 -0.229,0.868 0.309,0.346 1.003,0.471 1.547,0.278 0.545,-0.191 0.732,-0.628 0.423,-0.974 -0.077,-0.088 -0.182,-0.161 -0.3,-0.219 0.833,-0.428 1.894,-0.814 2.465,-0.984 l 0.404,0.717 c 1.192,-0.966 2.897,-1.705 3.691,-0.228 0.457,-1.191 0.058,-3.918 -4.94,-1.986 z"
         fill="#9e5309"
         id="path304" />
      <path
         d="m 60.151,28.096 c 3.64,3.239 4.123,9.141 2.303,14.965 -7.842,25.09 -0.481,24.34 -0.481,33.056 5.263,6.579 28.602,5.428 30.576,-3.452 -0.657,-1.974 -2.96,-2.631 -8.552,-0.33 -5.592,2.303 -19.639,6.718 -20.886,-6.742 -0.823,-8.88 7.236,-18.747 5.296,-33.597 -3.486,-2.255 -8.256,-3.9 -8.256,-3.9 z"
         fill="#da741c"
         id="path306" />
      <path
         d="m 44.459,76.901 c -0.421,-0.209 -1.049,-0.35 -1.958,-1.679 -0.908,-1.328 -0.161,-6.854 0.398,-10.141 0.56,-3.289 3.428,-12.45 4.338,-15.457 -4.268,-1.26 -4.758,11.819 -6.715,17.556 -1.797,5.262 -1.932,7.608 -0.75,7.974 1.781,0.548 3.92,3.384 3.119,4.708 -1.305,1.188 -3.166,0.996 -5.566,-0.313 0.771,-1.321 1.854,-3.257 1.854,-3.257 -1.523,-0.598 -4.937,-1.146 -5.597,0.724 -0.332,2.423 0.219,3.964 3.522,5.176 3.302,1.211 10.679,2.312 11.449,-0.661 0.002,-1.982 -1.691,-3.91 -4.094,-4.63 z"
         fill="#da741c"
         id="path308" />
      <path
         d="m 94.079,70.027 c -2.107,-7.165 -23.604,8.641 -28.029,-1.476 -3.211,-7.339 6.111,-15.806 26.764,-17.28 -1.475,2.74 -1.686,12.645 1.265,18.756 z"
         fill="#da741c"
         id="path310" />
      <path
         d="m 48.508,84.049 c 2.554,-1.572 2.337,-6.775 1.355,-10.704 -4.222,-1.963 -6.952,-1.274 -5.873,1.866 3.24,1.474 8.151,3.731 4.518,8.838 z"
         fill="#da741c"
         id="path312" />
      <path
         d="m 38.784,76.054 c -3.987,-2.394 -6.934,1.102 -4.299,4.612 1.746,1.594 0.328,-4.026 3.223,-2.312 0.154,-0.187 0.276,-0.349 0.406,-0.519 1.664,0.533 3.471,1.917 2.343,2.481 3.956,0 0.657,-3.11 -1.673,-4.262 z"
         fill="#9e5309"
         id="path314" />
      <path
         d="m 64.652,70.825 c -0.79,-1.33 -1.337,-3.041 -1.541,-5.233 -0.823,-8.88 7.236,-18.747 5.296,-33.597 -1.766,-1.14 -3.877,-2.487 -5.514,-3.182 9.991,13.28 -8.416,32.61 1.596,42.211 0.055,-0.061 0.11,-0.134 0.163,-0.199 z"
         fill="#9e5309"
         id="path316" />
      <path
         d="m 43.712,70.508 c 1.142,-10.452 5.752,-22.749 6.539,-27.088 1.037,-5.707 -3.496,-6.574 -1.477,-11.701 1.35,-3.425 5.98,-3.252 7.449,-2.622 -8.77,3.249 -2.67,5.717 -4,11.418 -1.332,5.7 -5.707,23.979 -4.568,29.683 -1.518,-0.382 -3.007,-0.22 -3.943,0.31 z"
         fill="#fdbb63"
         id="path318" />
      <path
         d="m 58.157,29.202 c -0.378,-0.075 -0.852,-0.105 -1.371,-0.084 0.271,0.014 0.523,0.041 0.741,0.084 -8.771,3.252 -2.925,5.611 -4.255,11.312 -1.322,5.663 -5.647,24.213 -4.587,30.041 0.208,0.028 0.423,0.064 0.649,0.122 -1.142,-5.703 3.235,-24.463 4.566,-30.163 1.331,-5.701 -4.514,-8.06 4.257,-11.312 z"
         fill="#fdbb63"
         id="path320" />
      <path
         d="m 33.364,73.893 c -0.449,-1.708 3.057,-2.582 4.854,-10.398 1.279,-5.566 2.119,-16.986 6.188,-14.577 0.564,0.081 1.287,0.321 1.287,0.321 -2.714,-0.299 -3.557,1.662 -4.601,5.361 -1.044,3.697 -2.009,13.21 -4.582,15.542 -2.572,2.332 2.546,2.652 2.866,4.181 -1.688,-1.047 -5.397,-1.427 -6.012,-0.43 z"
         fill="#fdbb63"
         id="path322" />
      <path
         d="m 41.97,54.6 c -1.047,3.697 -2.01,13.21 -4.582,15.542 -2.301,2.083 2.135,2.713 2.478,4.149 0.229,0.248 0.442,0.506 0.621,0.771 0.545,-2.146 -5.015,-2.588 -2.441,-4.92 2.572,-2.332 3.536,-11.845 4.582,-15.542 0.926,-3.281 1.696,-5.191 3.753,-5.373 -2.562,-0.185 -3.392,1.763 -4.411,5.373 z"
         fill="#fdbb63"
         id="path324" />
      <path
         d="m 64.944,60.254 c 2.203,-12.591 6.681,-10.771 4.209,-35 C 66.891,3.072 78.251,1.749 82.242,1.575 c -5.033,1.043 -8.878,6.202 -5.233,10.02 3.645,3.818 -4.687,3.818 -3.645,9.199 1.041,5.379 0.545,18.789 -3.1,34.236 -3.357,2.066 -5.32,5.224 -5.32,5.224 z"
         fill="#fdbb63"
         id="path326" />
      <path
         d="m 73.509,53.033 c 3.299,-14.74 3.588,-27.048 2.582,-32.239 -1.039,-5.381 7.289,-5.381 3.645,-9.199 -3.645,-3.817 0.203,-8.977 5.234,-10.02 -0.428,0.019 -0.945,0.054 -1.518,0.123 -4.796,1.257 -8.295,6.199 -4.766,9.896 3.645,3.818 -4.686,3.818 -3.645,9.199 1.016,5.245 0.684,18.004 -2.713,32.945 z"
         fill="#fdbb63"
         id="path328" />
      <path
         d="M 92.401,73.239 C 92.286,72.217 91.93,71.565 91.377,71.188 91.339,71.164 91.294,71.144 91.251,71.121 87.269,68.809 74.108,79.118 65.19,72.34 c 4.003,7.273 11.999,5.988 16.934,3.188 0.178,-0.101 0.334,-0.176 0.508,-0.272 -0.479,0.601 -0.758,1.171 -0.734,1.638 0.073,1.365 2.576,1.361 5.593,-0.012 2.531,-1.151 3.599,-2.895 4.162,-4.234 0.289,0.152 0.545,0.342 0.748,0.591 z"
         fill="#9e5309"
         id="path330" />
      <path
         d="m 92.813,51.271 c -17.409,1.243 -26.761,7.457 -27.346,13.772 -0.105,0.565 -0.112,1.107 0.012,1.579 0.465,1.749 2.465,1.916 4.467,0.369 2.002,-1.544 3.249,-4.216 2.783,-5.967 -0.031,-0.114 -0.085,-0.202 -0.127,-0.303 6.656,-3.078 16.319,-3.53 19.283,0.259 -0.343,-4.212 0.084,-8.138 0.928,-9.709 z"
         fill="#9e5309"
         id="path332" />
      <path
         d="m 47.022,78.4 c -0.799,-0.69 -2.326,-1.552 -2.326,-1.552 0,0 -1.356,-0.646 -2.195,-1.415 -0.84,-0.771 -0.441,-5.666 0.119,-9.513 0.559,-3.847 3.077,-11.96 4.617,-16.296 -2.52,-0.211 -5.736,15.247 -6.646,22.031 -0.631,4.706 2.406,6.098 3.616,6.435 -1.019,2.258 -2.613,3.677 -6.384,1.67 l -1.016,0.87 c 2.309,1.471 6.755,2.548 9.539,-1.187 1.729,0.664 1.634,1.895 1.493,2.712 1.524,-1.779 0.106,-2.992 -0.817,-3.755 z"
         fill="#9e5309"
         id="path334" />
      <g
         fill="#dab162"
         id="g340">
        <path
           d="m 39.302,74.124 c -0.005,0.053 -0.008,0.103 -0.01,0.151 0.028,0.016 0.058,0.03 0.084,0.047 -0.015,-0.069 -0.045,-0.134 -0.074,-0.198 z"
           id="path336" />
        <path
           d="m 40.486,75.062 c 0.214,-0.844 -1.36,-1.424 -1.981,-1.96 -0.043,0.157 -0.079,0.305 -0.108,0.442 0.228,0.231 1.403,0.474 1.469,0.747 0.229,0.248 0.442,0.506 0.62,0.771 z"
           id="path338" />
      </g>
      <path
         d="m 43.923,74.865 c 0.067,0.346 0.495,0.661 0.457,0.21 0.178,-0.732 3.881,-1.811 5.944,2.603 0.155,-1.486 -0.93,-3.068 -1.28,-4.475 -3.76,-1.748 -6.082,-1.134 -5.121,1.662 z"
         fill="#9e5309"
         id="path342" />
      <path
         d="m 336.93,52.9 c 3.422,-2.587 5.558,-2.557 7.091,-0.967 0.327,0.964 0.631,2.096 0.916,3.398 -1.494,-2.71 -3.535,-2.915 -7.174,0.177 z"
         fill="#ffce71"
         id="path344" />
      <path
         d="m 337.12,52.766 c 0.225,0.868 0.459,1.775 0.698,2.702 0.815,-0.689 1.548,-1.207 2.215,-1.57 -0.264,-0.809 -0.521,-1.629 -0.773,-2.458 -0.651,0.31 -1.364,0.751 -2.14,1.326 z"
         fill="#dab162"
         id="path346" />
      <path
         d="m 337.04,52.819 c 0.275,0.854 0.553,1.726 0.826,2.604 0.496,-0.416 0.96,-0.767 1.398,-1.061 -0.292,-0.882 -0.566,-1.716 -0.809,-2.492 -0.446,0.263 -0.917,0.576 -1.415,0.949 z"
         fill="#a7894b"
         id="path348" />
      <path
         d="m 329.43,31.449 c 3.399,0.37 5.717,3.118 6.547,6.352 -0.177,0.41 -0.369,0.818 -0.553,1.248 -0.752,-2.434 -2.746,-4.118 -5.994,-4.473 -5.104,-0.558 -11.488,1.374 -14.888,4.57 0.075,-1.117 0.164,-2.236 0.257,-3.352 3.457,-3.058 9.65,-4.89 14.631,-4.345 z"
         fill="#ffce71"
         id="path350" />
      <path
         d="m 314.8,35.795 c -0.046,0.536 -0.082,1.077 -0.125,1.614 0.012,0.527 0.038,1.048 0.07,1.562 1.598,-1.433 3.789,-2.594 6.186,-3.379 0.075,-1.163 0.236,-2.265 0.474,-3.277 -2.55,0.775 -4.908,1.977 -6.605,3.48 z"
         fill="#dab162"
         id="path352" />
      <path
         d="m 314.8,35.795 c -0.084,0.995 -0.16,1.992 -0.229,2.99 0.004,0.106 0.01,0.217 0.016,0.323 1.327,-1.234 3.1,-2.274 5.068,-3.057 0.061,-1.13 0.172,-2.223 0.357,-3.261 -2.006,0.758 -3.829,1.782 -5.212,3.005 z"
         fill="#a7894b"
         id="path354" />
      <path
         d="m 84.282,7.274 c 27.15,0 50.123,10.651 107.46,10.676 57.333,-0.024 80.307,-10.676 107.46,-10.676 12.561,0 15.617,6.393 15.916,15.059 0.326,-10.321 -1.779,-18.416 -15.916,-18.416 -27.148,0 -50.122,10.651 -107.46,10.676 C 134.41,14.568 111.438,3.917 84.282,3.917 c -14.127,0 -16.237,8.085 -15.915,18.397 0.304,-8.656 3.364,-15.04 15.915,-15.04 z"
         fill="#ffce71"
         id="path356" />
      <path
         d="m 65.024,58.154 c 5.789,-6.967 17.915,-11.259 29.13,-11.259 18.926,0 53.783,11.741 97.583,11.842 43.801,-0.101 78.658,-11.842 97.584,-11.842 12.355,0 25.062,5.13 29.426,11.829 l -0.82,-3.091 c -4.363,-6.7 -16.25,-11.256 -28.605,-11.256 -18.926,0 -53.783,11.74 -97.584,11.842 -43.8,-0.102 -78.657,-11.842 -97.583,-11.842 -11.215,0 -22.14,3.754 -28.09,10.312 z"
         fill="#ffce71"
         id="path358" />
      <g
         fill="#ffdb98"
         id="g368">
        <path
           d="m 75.616,8.78 c -0.159,-1.321 0.285,-2.644 1.143,-3.803 -3.189,1.084 -5.234,2.953 -6.51,5.376 -0.678,1.915 -1.149,4.25 -1.316,7.098 0.852,-3.884 2.78,-6.958 6.683,-8.671 z"
           id="path360" />
        <path
           d="m 301.49,3.998 c -0.334,-0.022 -0.67,-0.044 -1.018,-0.058 -0.084,1.074 0.314,2.267 1.004,3.412 0.368,0.024 0.725,0.059 1.074,0.097 -0.714,-1.156 -1.127,-2.36 -1.06,-3.451 z"
           id="path362" />
        <path
           d="m 304.02,7.66 c 4.993,0.874 7.852,3.202 9.411,6.469 -0.324,-2.153 -0.854,-4.148 -1.662,-5.905 -1.878,-2.136 -4.72,-3.592 -8.953,-4.103 -0.032,1.125 0.437,2.365 1.204,3.539 z"
           id="path364" />
        <path
           d="M 77.265,8.173 C 77.603,8.069 77.956,7.975 78.32,7.89 78.427,6.566 79.099,5.274 80.145,4.196 79.717,4.257 79.304,4.328 78.906,4.409 77.897,5.519 77.29,6.835 77.265,8.173 Z"
           id="path366" />
      </g>
      <g
         fill="#ffdb98"
         id="g378">
        <path
           d="m 317.9,57.57 c -0.413,-1.207 -0.926,-2.464 -1.462,-3.811 -1.103,-1.202 -2.455,-2.317 -4.015,-3.326 0.195,0.955 0.335,1.872 0.377,2.784 2.077,1.315 3.817,2.781 5.1,4.353 z"
           id="path370" />
        <path
           d="m 310.87,49.502 c -0.377,-0.211 -0.761,-0.418 -1.156,-0.618 0.255,1.022 0.466,1.981 0.598,2.916 0.366,0.188 0.725,0.381 1.076,0.579 -0.098,-0.931 -0.283,-1.877 -0.518,-2.877 z"
           id="path372" />
        <path
           d="m 74.417,48.645 c -0.396,0.192 -0.782,0.392 -1.164,0.597 -0.188,0.959 -0.389,1.932 -0.603,2.915 0.392,-0.213 0.779,-0.428 1.185,-0.63 0.207,-0.973 0.4,-1.934 0.582,-2.882 z"
           id="path374" />
        <path
           d="m 70.717,53.288 c 0.224,-0.996 0.435,-1.98 0.634,-2.951 -1.883,1.182 -3.552,2.532 -4.969,4.028 -0.314,0.985 -0.621,2.068 -0.908,3.294 1.439,-1.614 3.213,-3.08 5.243,-4.371 z"
           id="path376" />
      </g>
      <path
         d="m 341.47,69.986 c -0.97,-0.964 -2.525,-1.839 -4.54,-1.754 -6.607,0.28 -9.904,11.282 -29.107,11.282 -10.389,0 -15.191,-4.805 -16.532,-7.384 l 0.614,-0.779 c 1.759,2.648 6.805,6.346 15.918,6.346 19.203,0 22.5,-11.003 29.107,-11.282 1.756,-0.073 3.386,0.938 4.506,2.213 z"
         fill="#ffce71"
         id="path380" />
      <path
         d="m 332.44,69.922 c 0.08,-0.646 0.132,-1.288 0.166,-1.925 -0.368,0.229 -0.74,0.473 -1.119,0.735 -0.053,0.657 -0.127,1.316 -0.232,1.98 0.403,-0.28 0.797,-0.544 1.185,-0.79 z"
         fill="#ffdb98"
         id="path382" />
      <path
         d="m 336.93,68.232 c 1.016,-0.042 1.914,0.16 2.68,0.492 -0.091,-0.592 -0.19,-1.176 -0.295,-1.758 -0.739,-0.37 -1.547,-0.589 -2.385,-0.552 -0.979,0.041 -1.91,0.322 -2.844,0.766 -0.016,0.617 -0.046,1.239 -0.104,1.865 0.969,-0.471 1.932,-0.769 2.948,-0.813 z"
         fill="#ffdb98"
         id="path384" />
      <path
         d="m 324.95,73.169 c -4.143,2.404 -8.701,4.528 -17.135,4.528 -9.113,0 -14.159,-3.697 -15.918,-6.346 l -0.614,0.779 c 1.341,2.579 6.144,7.384 16.532,7.384 8.752,0 14.403,-2.285 18.592,-4.8 -0.182,-0.532 -1.334,-1.047 -1.457,-1.545 z"
         fill="#dab162"
         id="path386" />
      <g
         fill="#a7894b"
         id="g392">
        <path
           d="m 291.9,71.352 -0.549,0.695 c -0.014,0.041 -0.029,0.084 -0.041,0.128 0.58,1.107 2.616,2.61 4.418,3.97 0.713,0.369 1.497,0.706 2.32,0.979 2.365,0.78 4.359,0.823 5.172,0.217 -5.948,-0.99 -9.89,-3.836 -11.32,-5.989 z"
           id="path388" />
        <path
           d="m 312.79,77.674 c 2.5,0.246 4.494,-0.363 5.992,-1.432 -2.059,0.6 -4.395,1.042 -7.041,1.271 0.348,0.052 0.707,0.127 1.049,0.161 z"
           id="path390" />
      </g>
      <path
         d="m 337.2,80.85 c 0.818,0.979 1.995,1.556 3.611,1.521 3.763,-0.082 8.803,-0.576 10.407,-2.856 0.591,-0.84 0.2,-1.947 0.2,-1.947 -1.949,2.798 -6.717,3.04 -10.607,3.125 -1.535,0.033 -2.674,-0.486 -3.486,-1.38 z"
         fill="#dab162"
         id="path394" />
      <path
         d="m 340.86,81.409 c -0.089,-0.27 -0.275,-0.521 -0.511,-0.75 -1.27,-0.073 -2.254,-0.535 -2.976,-1.304 -0.021,0.026 -0.04,0.053 -0.059,0.08 l -0.114,1.414 c 0.801,0.958 1.949,1.521 3.508,1.513 0.206,-0.249 0.276,-0.578 0.152,-0.953 z"
         fill="#a7894b"
         id="path396" />
      <path
         d="m 347.85,79.878 c -0.572,0.175 -1.176,0.311 -1.799,0.416 -1.385,0.573 -2.16,0.604 -3.008,0.315 -0.207,0.012 -0.414,0.023 -0.621,0.03 0.545,0.562 1.373,1.188 2.404,1.506 1.486,-0.164 2.92,-0.463 4.134,-0.999 -0.382,-0.487 -0.827,-0.969 -1.11,-1.268 z"
         fill="#a7894b"
         id="path398" />
      <path
         d="m 343.16,74.521 c -0.511,0.377 8.409,-5.851 9.468,0.803 0,0 -1.363,-2.498 -1.987,-3.018 -1.145,-2.238 -5.464,-1.353 -8.587,0.053 z"
         fill="#ffce71"
         id="path400" />
      <g
         fill="#ffdb98"
         id="g406">
        <path
           d="m 347.78,72.539 c -0.077,-0.47 -0.255,-0.964 -0.513,-1.579 -0.108,0.006 -0.217,0.014 -0.326,0.023 0.258,0.614 0.432,1.106 0.508,1.576 0.112,-0.008 0.221,-0.014 0.331,-0.02 z"
           id="path402" />
        <path
           d="m 348.61,71.019 c -0.299,-0.047 -0.614,-0.074 -0.947,-0.073 0.26,0.617 0.438,1.11 0.518,1.581 0.623,0.003 1.205,0.109 1.717,0.337 -0.366,-0.587 -0.811,-1.161 -1.288,-1.845 z"
           id="path404" />
      </g>
      <path
         d="m 343.16,74.521 c 0.703,-0.521 1.108,-1.227 2.626,-1.646 0.032,-0.497 -0.006,-1.066 -0.105,-1.707 -1.228,0.251 -2.505,0.686 -3.627,1.191 l 0.022,0.442 c 0.113,0.577 1.129,1.075 1.074,1.51 z"
         fill="#dab162"
         id="path408" />
      <path
         d="m 342.17,72.311 c 0.122,1.016 1.13,1.783 0.995,2.211 0.25,-0.184 -0.41,-0.392 -0.012,-0.601 0.068,-0.603 0.1,-1.274 0.086,-2.039 -0.366,0.135 -0.723,0.276 -1.069,0.429 z"
         fill="#a7894b"
         id="path410" />
      <path
         d="m 42.259,69.986 c 0.972,-0.964 2.525,-1.839 4.541,-1.754 6.608,0.28 11.904,11.282 31.109,11.282 10.389,0 13.191,-4.805 14.531,-7.384 l -0.613,-0.779 c -1.76,2.648 -4.806,6.346 -13.918,6.346 -19.205,0 -24.501,-11.003 -31.109,-11.282 -1.754,-0.073 -3.385,0.938 -4.506,2.213 z"
         fill="#ffce71"
         id="path412" />
      <g
         fill="#ffdb98"
         id="g418">
        <path
           d="m 46.8,68.232 c 0.229,0.011 0.453,0.035 0.676,0.069 -0.015,-0.554 -0.002,-1.165 0.029,-1.813 -0.231,-0.035 -0.467,-0.063 -0.705,-0.073 -0.921,-0.04 -1.805,0.226 -2.602,0.666 -0.098,0.583 -0.189,1.163 -0.27,1.739 0.808,-0.386 1.768,-0.632 2.872,-0.588 z"
           id="path414" />
        <path
           d="m 49.165,66.966 c -0.205,-0.085 -0.412,-0.16 -0.62,-0.226 -0.024,0.654 -0.028,1.261 -0.007,1.814 0.213,0.069 0.426,0.146 0.639,0.233 -0.031,-0.55 -0.034,-1.161 -0.012,-1.821 z"
           id="path416" />
      </g>
      <path
         d="m 91.74,71.473 c -1.802,2.639 -4.856,6.225 -13.831,6.225 -7.094,0 -12.146,-1.503 -16.041,-3.409 0.064,0.567 0.104,1.169 0.104,1.828 0.019,0.025 0.046,0.047 0.065,0.07 3.871,1.869 8.881,3.328 15.871,3.328 10.232,0 13.07,-4.659 14.464,-7.263 -0.156,-0.305 -0.362,-0.566 -0.632,-0.779 z"
         fill="#dab162"
         id="path420" />
      <g
         fill="#a7894b"
         id="g426">
        <path
           d="m 91.714,71.511 c -1.503,2.183 -3.555,4.986 -9.631,5.888 0.632,0.827 2.829,0.656 5.407,-0.518 2.528,-1.151 3.611,-2.897 4.175,-4.236 0.125,0.066 0.238,0.146 0.346,0.228 0.084,-0.135 0.158,-0.263 0.232,-0.39 C 92.12,72.081 91.94,71.76 91.714,71.511 Z"
           id="path422" />
        <path
           d="m 76.044,77.657 c -1.576,-0.062 -3.049,-0.199 -4.421,-0.399 1.429,0.489 2.931,0.583 4.421,0.399 z"
           id="path424" />
      </g>
      <path
         d="m 54.05,31.449 c -3.438,0.37 -5.733,2.921 -6.571,6.153 0.177,0.409 0.37,0.817 0.56,1.247 0.758,-2.432 2.728,-3.919 6.012,-4.273 5.156,-0.558 11.1,1.121 14.535,4.315 0.064,-0.645 0.094,-2.112 0,-3.226 -3.493,-3.059 -9.505,-4.761 -14.536,-4.216 z"
         fill="#ffce71"
         id="path428" />
      <g
         fill="#ffdb98"
         id="g434">
        <path
           d="m 54.073,31.447 c -0.008,0 -0.016,0 -0.023,0.002 -0.248,0.026 -0.486,0.067 -0.723,0.115 -0.909,1.007 -0.84,2.033 -0.559,3.229 0.193,-0.045 0.399,-0.076 0.604,-0.109 -0.268,-1.195 -0.295,-2.224 0.701,-3.237 z"
           id="path430" />
        <path
           d="m 51.949,32.001 c -1.487,0.642 -2.659,1.761 -3.476,3.164 -0.04,0.799 0.13,1.427 0.389,2.006 0.678,-0.943 1.646,-1.651 2.923,-2.101 -0.286,-1.138 -0.436,-2.121 0.164,-3.069 z"
           id="path432" />
      </g>
      <path
         d="m 63.457,35.833 c 1.969,0.749 3.751,1.778 5.128,3.059 0.064,-0.645 0.094,-2.112 0,-3.226 -1.518,-1.33 -3.511,-2.402 -5.691,-3.145 0.317,1.036 0.502,2.149 0.563,3.312 z"
         fill="#dab162"
         id="path436" />
      <path
         d="m 68.585,35.666 c -0.967,-0.848 -2.141,-1.577 -3.42,-2.197 0.379,1.148 0.623,2.322 0.74,3.515 0.982,0.552 1.887,1.178 2.655,1.89 0.035,-0.416 0.06,-0.835 0.082,-1.254 0.009,-0.631 -0.005,-1.345 -0.057,-1.954 z"
         fill="#a7894b"
         id="path438" />
      <path
         d="m 46.478,52.9 c -3.42,-2.587 -5.556,-2.557 -7.09,-0.967 -0.326,0.964 -0.631,2.096 -0.916,3.398 1.495,-2.71 3.534,-2.915 7.173,0.177 z"
         fill="#ffce71"
         id="path440" />
      <path
         d="m 44.38,51.559 c -0.332,0.677 -0.625,1.492 -0.891,2.4 0.608,0.345 1.271,0.814 2,1.423 0.275,-0.923 0.543,-1.811 0.791,-2.625 -0.682,-0.504 -1.314,-0.902 -1.9,-1.198 z"
         fill="#dab162"
         id="path442" />
      <g
         fill="#ffdb98"
         id="g448">
        <path
           d="m 41.489,53.262 c 0.301,-0.952 0.61,-1.747 0.975,-2.374 -0.33,-0.053 -0.641,-0.064 -0.938,-0.038 -0.361,0.709 -0.688,1.562 -0.984,2.505 0.295,-0.088 0.609,-0.12 0.947,-0.093 z"
           id="path444" />
        <path
           d="m 43.798,51.284 c -0.191,-0.08 -0.377,-0.15 -0.557,-0.209 -0.342,0.634 -0.638,1.421 -0.928,2.354 0.19,0.061 0.387,0.14 0.59,0.23 0.284,-0.931 0.569,-1.725 0.895,-2.375 z"
           id="path446" />
      </g>
      <path
         d="m 45.251,52.055 c -0.307,0.702 -0.613,1.531 -0.913,2.445 0.328,0.229 0.671,0.489 1.03,0.783 0.276,-0.894 0.555,-1.762 0.824,-2.587 -0.325,-0.237 -0.638,-0.452 -0.941,-0.641 z"
         fill="#a7894b"
         id="path450" />
      <path
         d="m 42.562,74.521 c -4.446,-5.373 -9.123,-1.361 -9.469,0.803 0,0 -0.635,-2.498 -0.011,-3.018 1.146,-2.238 5.876,-2.432 8.587,0.053 z"
         fill="#ffce71"
         id="path452" />
      <g
         fill="#ffdb98"
         id="g458">
        <path
           d="m 35.901,72.104 c -0.307,-0.39 -0.352,-0.857 0.162,-1.491 -0.35,0.042 -0.686,0.109 -0.996,0.206 -0.613,0.843 -1.137,1.429 -1.445,1.927 0.649,-0.43 1.44,-0.621 2.279,-0.642 z"
           id="path454" />
        <path
           d="m 37.61,70.605 c -0.211,-0.021 -0.421,-0.033 -0.627,-0.036 -0.525,0.65 -0.443,1.148 -0.115,1.583 0.254,0.032 0.506,0.079 0.761,0.137 -0.405,-0.466 -0.566,-0.983 -0.019,-1.684 z"
           id="path456" />
      </g>
      <path
         d="m 39.202,70.945 c -0.219,0.623 -0.404,1.174 -0.551,1.651 1.014,0.376 2.936,0.943 3.602,1.605 -0.025,-0.56 -0.957,-1.262 -0.833,-2.047 -0.662,-0.545 -1.424,-0.948 -2.218,-1.209 z"
         fill="#dab162"
         id="path460" />
      <path
         d="m 42.243,74.19 c 0.018,-0.545 -0.895,-1.228 -0.77,-1.991 -0.275,-0.232 -0.564,-0.443 -0.871,-0.625 -0.003,0.026 -0.008,0.056 -0.012,0.082 -0.094,0.707 -0.126,1.328 -0.117,1.89 0.285,0.2 1.54,0.417 1.77,0.644 z"
         fill="#a7894b"
         id="path462" />
      <path
         d="m 48.531,80.85 c -0.82,0.979 -1.995,1.556 -3.61,1.521 -3.762,-0.082 -8.806,-0.576 -10.408,-2.856 -0.59,-0.84 -0.201,-1.947 -0.201,-1.947 1.95,2.798 6.719,3.04 10.609,3.125 1.536,0.033 2.673,-0.486 3.486,-1.38 z"
         fill="#dab162"
         id="path464" />
      <g
         fill="#a7894b"
         id="g472">
        <path
           d="m 44.921,80.691 c -0.907,-0.02 -1.862,-0.05 -2.818,-0.117 -0.893,0.354 -2.094,0.24 -3.772,-0.564 -0.2,-0.053 -0.398,-0.111 -0.593,-0.174 l -0.93,0.795 c 2.049,1.307 5.795,2.411 8.56,0.049 -0.146,0.008 -0.294,0.014 -0.447,0.011 z"
           id="path466" />
        <path
           d="m 48.473,80.12 c -0.058,-0.21 -0.147,-0.41 -0.274,-0.603 -0.24,0.231 -0.506,0.434 -0.799,0.603 0.391,0.416 0.505,0.894 0.506,1.337 0.219,-0.174 0.42,-0.367 0.603,-0.583 0.009,-0.047 0.011,-0.092 0.015,-0.138 z"
           id="path468" />
        <path
           d="m 35.805,78.96 c -0.591,-0.375 -1.101,-0.831 -1.493,-1.394 0,0 -0.389,1.107 0.201,1.947 0.237,0.338 0.559,0.634 0.934,0.897 0.122,-0.407 0.2,-0.969 0.358,-1.45 z"
           id="path470" />
      </g>
      <g
         fill="#ffdb98"
         id="g478">
        <path
           d="m 327.26,34.487 c 0.738,-0.014 1.469,0.012 2.172,0.089 2.551,0.278 4.318,1.386 5.326,3.022 0.253,-0.635 0.398,-1.271 0.424,-1.901 -1.146,-2.253 -3.123,-3.963 -5.75,-4.248 -1.329,-0.146 -2.744,-0.117 -4.171,0.054 0.233,0.992 1.131,2.073 1.999,2.984 z"
           id="path474" />
        <path
           d="m 324.92,34.675 c 0.325,-0.044 0.648,-0.081 0.975,-0.11 -0.832,-0.864 -1.704,-1.89 -2.012,-2.851 -0.337,0.062 -0.672,0.131 -1.006,0.21 0.376,0.938 1.242,1.926 2.043,2.751 z"
           id="path476" />
      </g>
      <g
         fill="#ffdb98"
         id="g484">
        <path
           d="m 341.53,51.753 c -0.29,-0.305 -0.543,-0.577 -0.777,-0.835 -0.092,0.018 -0.184,0.044 -0.275,0.069 0.219,0.237 0.455,0.49 0.717,0.766 0.107,0.541 0.211,1.058 0.318,1.567 0.109,-0.021 0.219,-0.041 0.325,-0.053 -0.103,-0.495 -0.205,-0.991 -0.308,-1.514 z"
           id="path480" />
        <path
           d="m 341.93,51.753 c 0.102,0.516 0.203,1.008 0.305,1.499 0.332,0.01 0.641,0.085 0.931,0.217 -0.305,-1.001 -0.615,-1.863 -0.938,-2.566 -0.351,-0.072 -0.722,-0.087 -1.126,-0.038 0.25,0.272 0.519,0.562 0.828,0.888 z"
           id="path482" />
      </g>
      <g
         fill="#4a1d00"
         id="g884">
        <path
           d="m 44.358,75.389 c -0.77,-0.77 -1.84,-2.806 1.727,-2.657 6.715,0.279 12.653,10.975 32.168,10.975 11.75,0 16.086,-6.368 17.055,-8.575 2.557,-5.815 -5.553,-15.996 -2.135,-22.808 h -1.204 c -2.558,8.795 2.396,19.078 1.694,21.387 -0.698,2.309 -5.03,8.603 -16.781,8.603 -19.515,0 -22.488,-10.527 -30.867,-10.876 -4.449,-0.185 -2.637,3.042 -2.217,3.742 z"
           id="path860" />
        <path
           d="m 48.496,82.362 c 1.714,-2.628 -0.743,-4.457 -4.278,-6.273 -3.121,-1.604 -1.931,-2.78 -0.93,-8.814 2.098,-12.659 8.455,-23.616 5.699,-27.985 -2.757,-4.37 -0.349,-10.107 5.072,-10.693 4.154,-0.448 10.484,0.546 13.779,3.639 l -0.07,-0.91 c -3.427,-3.217 -9.848,-5.127 -15.022,-4.567 -6.751,0.729 -7.851,7.784 -4.981,12.331 2.867,4.546 -4.348,16.025 -5.887,27.565 -0.842,6.307 -1.432,8.918 2.275,10.737 2.983,1.464 5.092,2.464 3.605,4.922 z"
           id="path862" />
        <path
           d="m 47.468,49.599 c -6.621,-5.036 -7.488,3.035 -9.717,12.968 -2.229,9.935 -3.705,6.709 -4.814,14.027 -1.109,7.318 6.592,7.338 12.217,7.563 5.623,0.224 5.164,-7.055 4.293,-10.934 l 0.793,0.038 c 1.354,4.876 1.679,12.215 -4.321,11.986 -6.001,-0.229 -15.142,-1.251 -13.905,-8.67 1.236,-7.42 2.458,-4.646 4.836,-14.719 2.379,-10.072 2.557,-19.904 10.828,-12.623 z"
           id="path864" />
        <path
           d="m 41.933,79.681 c 0.962,-2.139 -8.07,-5.168 -8.097,-1.963 l -0.558,-0.069 c 0.277,-6.335 11.11,-0.773 8.975,2.083 z"
           id="path866" />
        <path
           d="m 44.075,77.109 c -0.855,4.327 -3.332,3.604 -6.252,1.924 0.576,-0.673 1.122,-1.786 1.277,-2.145 l -0.369,-0.34 c -0.186,0.426 -1.408,2.376 -2.102,3.176 2.831,2.414 7.15,1.846 8.192,-2.428 z"
           id="path868" />
        <path
           d="M 316.58,46.572 C 311.438,28.317 327.279,0 300.515,0 273.033,0 249.773,10.649 191.735,10.678 133.697,10.649 110.439,0 82.955,0 56.191,0 72.031,28.317 66.891,46.572 c -2.697,9.574 -6.641,22.811 1.595,27.977 9.396,5.895 23.657,-9.454 23.522,-0.729 l 0.819,-0.291 C 93.026,64.453 76.73,77.412 67.764,72.29 59.676,67.667 66.08,54.7 68.464,45.524 71.927,32.199 60.108,0.84 82.955,0.84 c 24.752,0 50.795,11.531 108.78,11.531 57.985,0 84.029,-11.531 108.78,-11.531 22.848,0 11.029,31.359 14.492,44.684 2.383,9.176 8.787,22.143 0.699,26.766 -8.965,5.122 -25.262,-7.837 -25.062,1.239 l 0.873,0.265 c -0.135,-8.725 16.073,6.65 25.469,0.756 8.235,-5.167 2.29,-18.404 -0.406,-27.978 z"
           id="path870" />
        <path
           d="m 340.77,75.151 c 0.768,-0.77 0.187,-2.568 -3.381,-2.42 -6.715,0.279 -10.89,10.562 -30.404,10.562 -11.751,0 -15.848,-5.955 -16.818,-8.162 -2.556,-5.815 3.552,-15.996 0.136,-22.808 h 1.204 c 2.558,8.795 -2.395,19.078 -1.695,21.387 0.7,2.309 7.031,8.603 18.782,8.603 19.515,0 20.082,-11.133 28.461,-11.481 4.45,-0.185 5.042,3.647 4.622,4.348 z"
           id="path872" />
        <path
           d="m 337.27,82.153 c -1.715,-2.63 0.453,-4.248 3.99,-6.064 3.119,-1.604 -0.07,-2.78 -1.07,-8.814 -2.098,-12.659 -7.9,-23.792 -5.144,-28.16 2.757,-4.371 -0.208,-9.933 -5.63,-10.519 -4.155,-0.448 -10.861,1.066 -14.156,4.157 l 0.122,-1.283 c 3.427,-3.217 10.014,-4.701 15.188,-4.142 6.752,0.729 8.01,7.213 5.143,11.76 -2.869,4.546 4.348,16.025 5.885,27.565 0.842,6.307 3.432,8.918 -0.273,10.737 -2.984,1.464 -4.834,1.881 -3.351,4.338 z"
           id="path874" />
        <path
           d="m 336.34,49.854 c 6.621,-5.038 7.16,2.78 9.391,12.713 2.228,9.935 5.705,6.709 6.813,14.027 1.107,7.318 -6.592,7.338 -12.217,7.563 -5.624,0.224 -7.164,-7.055 -6.292,-10.934 l -0.679,0.076 c -1.354,4.875 -0.017,11.556 5.937,12.341 5.953,0.784 15.412,-1.644 14.176,-9.062 -1.236,-7.42 -4.459,-4.646 -6.836,-14.719 -2.379,-10.072 -1.306,-20.275 -10.828,-12.623 z"
           id="path876" />
        <path
           d="m 343.02,79.669 c -0.963,-2.138 8.058,-5.227 8.082,-2.021 l 0.573,-0.012 c 0.556,-6.678 -11.112,-0.773 -8.977,2.085 z"
           id="path878" />
        <path
           d="m 341.02,77.237 c 0.854,4.327 3.331,3.602 6.251,1.923 -0.576,-0.672 -1.256,-2.115 -1.411,-2.474 l 0.503,-0.012 c 0.186,0.428 1.846,2.368 2.539,3.17 -2.831,2.412 -7.589,1.853 -8.631,-2.422 z"
           id="path880" />
        <path
           d="m 289.32,50.253 c -18.924,0 -53.786,11.736 -97.584,11.838 -43.797,-0.102 -78.658,-11.838 -97.583,-11.838 -16.306,0 -31.992,7.934 -29.062,17.592 l 0.881,-0.012 c -2.414,-9.744 16.28,-15.337 28.439,-15.337 19.178,0 46.962,10.428 96.557,10.642 l -0.002,0.011 c 0.26,0 0.511,-0.005 0.77,-0.005 0.26,0 0.51,0.005 0.771,0.005 l -0.004,-0.011 c 49.596,-0.214 77.379,-10.642 96.557,-10.642 12.16,0 31.016,5.345 28.602,15.091 l 0.519,0.258 c 2.93,-9.658 -12.557,-17.592 -28.861,-17.592 z"
           id="path882" />
      </g>
    </g>
  </g>
</svg>
