<?xml version="1.0" encoding="UTF-8" standalone="no"?>
<svg
   xmlns:dc="http://purl.org/dc/elements/1.1/"
   xmlns:cc="http://creativecommons.org/ns#"
   xmlns:rdf="http://www.w3.org/1999/02/22-rdf-syntax-ns#"
   xmlns:svg="http://www.w3.org/2000/svg"
   xmlns="http://www.w3.org/2000/svg"
   xmlns:sodipodi="http://sodipodi.sourceforge.net/DTD/sodipodi-0.dtd"
   xmlns:inkscape="http://www.inkscape.org/namespaces/inkscape"
   width="319"
   height="98"
   viewBox="0 0 84.40208 25.929167"
   version="1.1"
   id="svg4431"
   inkscape:version="1.0.1 (3bc2e813f5, 2020-09-07)"
   sodipodi:docname="banners-1640595-3.svg">
  <defs
     id="defs4425" />
  <sodipodi:namedview
     id="base"
     pagecolor="#ffffff"
     bordercolor="#666666"
     borderopacity="1.0"
     inkscape:pageopacity="0.0"
     inkscape:pageshadow="2"
     inkscape:zoom="0.16316073"
     inkscape:cx="-454.66494"
     inkscape:cy="-168.02298"
     inkscape:document-units="mm"
     inkscape:current-layer="layer1"
     inkscape:document-rotation="0"
     showgrid="false"
     units="px"
     fit-margin-top="0"
     fit-margin-left="0"
     fit-margin-right="0"
     fit-margin-bottom="0"
     inkscape:window-width="1436"
     inkscape:window-height="1020"
     inkscape:window-x="298"
     inkscape:window-y="53"
     inkscape:window-maximized="0" />
  <metadata
     id="metadata4428">
    <rdf:RDF>
      <cc:Work
         rdf:about="">
        <dc:format>image/svg+xml</dc:format>
        <dc:type
           rdf:resource="http://purl.org/dc/dcmitype/StillImage" />
        <dc:title></dc:title>
      </cc:Work>
    </rdf:RDF>
  </metadata>
  <g
     inkscape:label="Ebene 1"
     inkscape:groupmode="layer"
     id="layer1"
     transform="translate(-240.01932,-377.84987)">
    <g
       id="g4423"
       transform="matrix(0.26458199,0,0,0.26458199,231.51299,313.93655)">
      <path
         d="m 37.051,243.44 c -2.505,0.905 -3.896,2.159 -4.14,3.724 -1.408,9.053 1.802,11.892 5.517,15.176 2.411,2.13 5.145,4.547 6.946,8.93 3.24,7.887 4.688,15.07 4.186,20.769 -0.116,1.33 0.424,1.614 0.602,1.711 1.543,0.82 5.651,-1.225 8.572,-3.589 2.342,-1.893 2.199,-2.209 0.83,-5.209 l -0.739,-1.655 c -0.054,-0.123 -0.047,-0.261 0.019,-0.378 0.066,-0.114 0.184,-0.188 0.316,-0.205 1.076,-0.132 2.68,0.196 4.184,0.855 0.096,0.044 0.172,0.117 0.215,0.214 l 0.27,0.595 c 5.321,11.426 4.02,14.915 2.217,19.746 l -0.619,1.699 c -1.387,3.99 -1.052,6.442 1.084,7.963 36.418,21.585 86.154,24.748 120.4,25.246 -0.006,0.07 5.056,0.055 5.056,0.055 0.006,0 5.064,0.016 5.064,0.016 31.734,-0.531 78.141,-3.385 114.52,-22.735 5.933,-3.826 5.386,-5.388 3.763,-10.028 l -0.344,-0.984 c -1.875,-5.373 -2.909,-8.332 2.868,-20.73 0.034,-0.073 0.069,-0.152 0.069,-0.152 0.029,-0.07 0.074,-0.123 0.135,-0.167 2.57,-1.843 4.149,-1.928 5.357,-1.77 0.14,0.021 0.263,0.1 0.324,0.226 0.062,0.126 0.062,0.267 -0.008,0.39 l -1.273,2.218 c -1.439,2.391 -1.78,2.959 0.342,5.08 2.812,2.81 7.09,3.961 8.893,3.07 0.562,-0.275 0.795,-0.721 0.711,-1.365 -0.118,-1.339 -0.443,-8.555 4.622,-20.883 1.829,-4.45 4.711,-6.794 7.253,-8.859 3.826,-3.105 7.133,-5.795 5.655,-14.792 -0.233,-1.418 -1.548,-2.607 -3.911,-3.53 -9.047,-3.542 -30.564,-1.813 -38.651,4.494 -8.024,6.255 -4.822,11.168 -1.997,15.501 1.055,1.617 2.05,3.144 2.401,4.638 0.046,0.19 -0.047,0.387 -0.222,0.472 -21.294,10.579 -67.735,18.035 -115.57,18.551 -48.654,-0.524 -95.418,-8.142 -116.37,-18.958 -0.163,-0.082 -0.252,-0.264 -0.222,-0.442 0.357,-2.115 1.246,-4.04 2.105,-5.9 2.059,-4.465 3.836,-8.314 -2.035,-13.494 -6.71,-5.915 -28.598,-9.056 -38.394,-5.514 z"
         id="path8"
         style="fill:#f58220" />
      <path
         d="m 326.59,292.1 c -1.257,-12.026 8.317,-32.147 3.275,-34.069 -2.787,-1.04 -5.188,-3.149 -5.293,-7.901 -2.234,4.972 8.373,11.93 1.742,29.405 -3.149,8.294 -3.741,8.725 -2.18,10.907 0.341,0.48 1.41,1.113 2.456,1.658 z"
         fill="#da741c"
         id="path222" />
      <path
         d="m 330.36,291.84 c 0.606,0 0.645,-0.987 0.645,-0.987 1.02,-27.261 17.15,-31.037 15.935,-36.352 -1.233,2.147 -9.154,5.139 -6.439,7.866 -4.289,3.574 -11.587,15.498 -10.973,28.564 -0.001,0.001 0.226,0.909 0.832,0.909 z"
         fill="#fdbb63"
         id="path224" />
      <path
         d="m 339.22,262.37 c -2.487,-2.499 4.239,-5.218 6.287,-7.307 0,0 0.393,-0.1 0.498,-0.129 -1.898,2.106 -8.654,4.884 -6.117,7.436 -4.289,3.574 -11.587,15.498 -10.974,28.564 0,0 0.178,0.703 0.633,0.87 -0.054,0.023 -0.111,0.038 -0.177,0.038 -0.606,0 -0.835,-0.908 -0.835,-0.908 -0.612,-13.066 6.396,-24.99 10.685,-28.564 z"
         fill="#fdbb63"
         id="path226" />
      <path
         d="m 318.41,283.1 c 4.327,-8.262 2.413,-21.275 -1.341,-22.494 -6.921,-2.25 -17.15,-1.705 -8.131,-9.688 7.914,-7.008 37.5,-9.062 38.334,-2.977 0.932,6.797 -5.829,7.734 -8.826,8.191 1.761,-4.333 3.115,-8.13 1.626,-8.265 -1.489,-0.135 -19.241,-1.761 -17.208,4.066 2.032,5.824 8.512,17.839 0.434,30.949 -1.678,-0.473 -3.502,-0.215 -4.888,0.218 z"
         fill="#da741c"
         id="path228" />
      <path
         d="m 312.12,312.7 c 2.208,-1.556 3.08,-2.76 0.699,-6.853 -3.496,-6.015 -2.771,-11.18 1.4,-18.606 5.734,-10.21 7.021,-27.551 -0.84,-18.604 0.979,2.379 -1.958,3.776 -1.958,3.776 -1.399,3.498 -0.56,10.632 2.098,12.729 -8.532,16.368 -2.825,27.542 -6.294,30.495 z"
         fill="#fdbb63"
         id="path230" />
      <path
         d="m 312.6,269.46 c 0.117,1.881 -2.152,2.959 -2.152,2.959 -1.399,3.498 -0.561,10.632 2.099,12.729 -7.74,14.842 -3.481,27.624 -5.874,30.601 l -1.729,1.034 c 4.066,-3.035 -1.91,-15.267 6.623,-31.635 -2.658,-2.098 -3.497,-9.231 -2.098,-12.729 0,0 1.379,-0.656 1.932,-1.837 z"
         fill="#fdbb63"
         id="path232" />
      <path
         d="m 339.08,248.78 c -4.303,0 -14.684,0.018 -13.041,4.784 0.969,2.812 7.542,3.932 11.316,2.769 0.772,-4.123 2.751,-7.553 1.725,-7.553 z"
         fill="#da741c"
         id="path234" />
      <path
         d="m 321.59,281.86 c 2.861,-4.011 2.361,-13.907 0.687,-18.094 -0.687,-1.717 -1.831,-2.06 -5.725,-3.205 4.122,1.831 6.007,9.803 1.857,22.538 1.464,-0.668 3.181,-1.239 3.181,-1.239 z"
         fill="#9e5309"
         id="path236" />
      <path
         d="m 315.06,260.33 c 2.748,-6.987 -4.581,-6.413 -1.146,-11.566 -6.068,2.517 -9.659,6.996 -7.443,8.476 2.404,1.601 7.902,2.861 8.589,3.09 z"
         fill="#9e5309"
         id="path238" />
      <path
         d="m 332.73,256.78 c 1.07,-4.772 -2.447,-4.339 -0.51,-7.063 -5.049,0.249 -6.529,2.229 -5.406,4.834 1.008,2.337 5.351,2.071 5.916,2.229 z"
         fill="#9e5309"
         id="path240" />
      <path
         d="m 341.64,248.61 c 0.658,0 2.924,0.439 2.119,2.048 -0.804,1.608 -1.607,4.605 -1.607,4.605 l -3.389,0.75 c 0,0 1.89,-5.13 2.877,-7.403 z"
         fill="#9e5309"
         id="path242" />
      <path
         d="m 308.7,269.02 c 0.448,-3.012 -3.237,-7.143 -3.349,-9.712 2.121,2.903 9.126,1.5 9.715,5.024 0.223,1.342 -6.366,4.688 -6.366,4.688 z"
         fill="#da741c"
         id="path244" />
      <path
         d="m 347.27,247.94 c -0.104,-0.747 -0.644,-1.371 -1.52,-1.878 0.68,2.54 0.592,5.244 -0.091,7.351 1.219,-1.187 1.96,-2.912 1.611,-5.473 z"
         fill="#9e5309"
         id="path246" />
      <path
         d="m 63.529,283.1 c -4.324,-8.262 -2.411,-21.275 1.342,-22.494 6.921,-2.25 17.15,-1.705 8.133,-9.688 -7.916,-7.008 -36.94,-8.997 -37.775,-2.915 -0.931,6.8 4.88,6.911 8.267,8.13 -1.762,-4.333 -3.117,-8.13 -1.627,-8.265 1.49,-0.135 19.241,-1.761 17.208,4.066 -2.032,5.824 -6.966,16.632 -0.434,30.949 1.678,-0.474 3.503,-0.216 4.886,0.217 z"
         fill="#da741c"
         id="path248" />
      <path
         d="m 69.587,259.75 c 1.413,-1.714 0.194,-4.901 2.535,-6.879 0,-0.914 0,-2.083 -0.762,-3.149 3.606,1.881 6.469,6.117 4.69,7.521 -1.956,1.543 -4.455,1.944 -6.463,2.507 z"
         fill="#9e5309"
         id="path250" />
      <path
         d="m 36.446,248.03 c -0.842,6.138 1.926,6.398 6.998,7.535 -1.59,-3.917 -2.813,-7.342 -1.467,-7.465 0.435,-0.038 2.42,-0.217 4.835,-0.267 1.147,-1.456 2.684,-2.476 3.55,-2.971 -7.308,-0.468 -13.55,0.49 -13.916,3.168 z"
         fill="#9e5309"
         id="path252" />
      <path
         d="m 55.836,292.1 c 1.257,-12.026 -8.317,-32.147 -3.275,-34.069 2.788,-1.04 5.188,-3.149 5.292,-7.901 2.236,4.972 -8.373,11.93 -1.741,29.405 3.149,8.294 3.741,8.725 2.18,10.907 -0.341,0.48 -1.41,1.113 -2.456,1.658 z"
         fill="#da741c"
         id="path254" />
      <path
         d="m 45.29,255.82 c -1.021,-2.628 -3.212,-7.304 -1.021,-7.304 2.19,0 12.803,0.375 11.933,4.043 -1.242,5.279 -9.596,4.866 -10.912,3.261 z"
         fill="#da741c"
         id="path256" />
      <path
         d="m 60.213,282.25 c -3.47,-5.95 -2.976,-21.199 1.612,-25.166 4.587,-3.967 0.867,-5.083 -2.604,-5.452 -2.355,6.691 -6.818,17.106 -0.867,31.113 0.868,-0.246 1.859,-0.495 1.859,-0.495 z"
         fill="#9e5309"
         id="path258" />
      <path
         d="m 51.74,291.84 c -0.606,0 -0.645,-0.987 -0.645,-0.987 -1.021,-27.261 -17.151,-31.037 -15.937,-36.352 1.235,2.147 9.154,5.139 6.441,7.866 4.287,3.574 11.587,15.498 10.972,28.564 0.001,0.001 -0.226,0.909 -0.831,0.909 z"
         fill="#fdbb63"
         id="path260" />
      <path
         d="m 42.875,262.37 c 2.485,-2.499 -4.239,-5.218 -6.287,-7.307 0,0 -0.393,-0.1 -0.498,-0.129 1.898,2.106 8.654,4.884 6.117,7.436 4.288,3.574 11.587,15.498 10.972,28.564 0,0 -0.176,0.703 -0.633,0.87 0.056,0.023 0.111,0.038 0.179,0.038 0.606,0 0.833,-0.908 0.833,-0.908 0.614,-13.066 -6.395,-24.99 -10.683,-28.564 z"
         fill="#fdbb63"
         id="path262" />
      <path
         d="m 75.581,269.62 c 0,0 -5.876,-1.819 -7.135,-5.874 -1.26,-4.061 6.893,-0.624 10.256,-7.201 0.389,2.534 -4,10.995 -3.121,13.075 z"
         fill="#da741c"
         id="path264" />
      <path
         d="m 68.306,310.75 c -2.205,-1.559 -3.077,-2.763 -0.698,-6.855 3.498,-6.015 2.772,-11.177 -1.399,-18.606 -5.734,-10.207 -3.077,-26.297 0.84,-18.601 -0.979,2.376 1.959,3.776 1.959,3.776 1.398,3.495 0.559,10.629 -2.098,12.727 8.532,16.368 2.825,27.542 6.294,30.498 z"
         fill="#fdbb63"
         id="path266" />
      <path
         d="m 67.831,267.5 c -0.113,1.878 2.154,2.959 2.154,2.959 1.398,3.495 0.559,10.629 -2.098,12.727 7.738,14.845 3.553,27.914 5.945,30.888 l 1.727,1.04 c -4.064,-3.035 1.84,-15.56 -6.692,-31.928 2.657,-2.098 3.497,-9.231 2.098,-12.727 0,0 -1.382,-0.659 -1.934,-1.84 z"
         fill="#fdbb63"
         id="path268" />
      <path
         d="m 53.48,249.71 c 0.976,2.505 0.024,4.761 -1.406,6.773 1.919,-0.562 3.62,-1.758 4.128,-3.917 0.32,-1.351 -0.922,-2.253 -2.722,-2.856 z"
         fill="#9e5309"
         id="path270" />
      <path
         d="m 72.553,268.24 c -0.999,-2.531 -1.315,-5.145 -0.056,-7.298 -2.613,0.598 -4.738,0.583 -4.051,2.801 0.638,2.056 2.463,3.536 4.107,4.497 z"
         fill="#9e5309"
         id="path272" />
      <path
         d="m 309.3,253.48 c -1.664,1.471 -2.673,2.654 -3.169,3.618 0.299,0.516 1.486,1.178 1.827,1.236 0.479,-0.521 1.062,-1.087 1.761,-1.708 2.769,-2.452 8.191,-4.292 14.104,-5.396 0.508,-1.497 2.123,-2.774 6.324,-3.396 5.503,-0.817 9.73,-0.255 10.393,-0.255 0.571,0 0.836,0.993 0.342,2.704 2.666,0.29 4.807,0.858 6.037,1.731 0.34,-0.647 0.715,-1.512 0.715,-1.512 -0.834,-6.084 -30.419,-4.03 -38.334,2.978 z"
         fill="#dab162"
         id="path578" />
      <path
         d="m 346.75,251.92 c 0.309,-0.624 0.514,-1.339 0.578,-2.171 -0.25,-0.41 -0.645,-0.776 -1.181,-1.093 0.07,0.99 0.053,1.966 -0.077,2.886 0.247,0.117 0.475,0.243 0.68,0.378 z"
         fill="#a7894b"
         id="path580" />
      <path
         d="m 320.38,268.64 c -0.188,-0.519 -0.367,-1.011 -0.535,-1.485 -0.805,0.753 -1.903,1.559 -3.387,2.481 -36.188,18.527 -82.657,22.198 -119.18,22.711 v 0.07 c -1.721,0 -3.482,-0.006 -5.26,-0.015 -1.78,0.009 -3.541,0.015 -5.262,0.015 v -0.07 c -36.342,-0.51 -82.118,-3.372 -118.31,-21.642 -1.985,-1.002 -6.475,-4.62 -5.251,-8.517 -0.188,-0.126 -1.408,3.709 -1.521,5.306 0.409,3.709 4.65,5.912 6.562,6.882 36.217,18.363 82.104,21.24 118.52,21.747 v 0.073 c 1.721,0 3.481,-0.009 5.262,-0.018 1.777,0.009 3.539,0.018 5.26,0.018 v -0.073 c 36.519,-0.513 82.988,-4.184 119.18,-22.711 2.207,-1.371 3.575,-2.487 4.363,-3.554 -0.138,-0.389 -0.285,-0.79 -0.441,-1.218 z"
         fill="#ffce71"
         id="path582" />
      <path
         d="m 315.52,305.67 c -0.181,-0.519 -0.353,-1.011 -0.515,-1.485 -0.774,0.753 -1.832,1.562 -3.26,2.481 -34.833,18.527 -79.564,22.199 -114.72,22.71 v 0.074 c -1.654,0 -3.352,-0.01 -5.062,-0.018 -1.712,0.008 -3.406,0.018 -5.063,0.018 v -0.074 c -36.901,-0.539 -85.151,-4.291 -120.63,-25.324 -0.182,-0.129 -0.337,-0.267 -0.492,-0.407 -0.241,0.653 -0.497,1.324 -0.745,2.039 -0.068,0.199 -0.129,0.387 -0.191,0.577 0.334,0.589 0.791,1.119 1.429,1.567 35.481,21.032 83.731,24.788 120.63,25.325 v 0.072 c 1.657,0 3.352,-0.006 5.063,-0.018 1.711,0.012 3.408,0.018 5.062,0.018 v -0.072 c 35.154,-0.51 79.886,-4.184 114.72,-22.711 2.123,-1.371 3.44,-2.487 4.199,-3.554 -0.133,-0.389 -0.274,-0.79 -0.425,-1.218 z"
         fill="#ffce71"
         id="path584" />
      <g
         fill="#ffdb98"
         id="g598">
        <path
           d="m 72.049,311.04 c -0.136,-1.055 -0.134,-2.338 -0.114,-3.841 -1.596,-0.835 -3.168,-1.702 -4.72,-2.602 -0.722,1.359 -1.031,2.367 -1.021,3.176 0.024,0.021 0.045,0.041 0.071,0.056 1.89,1.122 3.826,2.185 5.784,3.211 z"
           id="path586" />
        <path
           d="m 310.4,272.55 c -0.386,0.173 -0.771,0.354 -1.157,0.524 -0.33,1.131 -0.467,2.52 -0.436,3.967 0.324,-0.144 0.649,-0.281 0.972,-0.428 0.003,-1.523 0.206,-2.958 0.621,-4.063 z"
           id="path588" />
        <path
           d="m 307.47,312.61 c 0.064,-1.075 0.063,-2.355 0.068,-3.812 -0.321,0.158 -0.645,0.313 -0.967,0.466 0.006,1.45 -0.002,2.733 -0.104,3.826 0.335,-0.161 0.669,-0.316 1.003,-0.48 z"
           id="path590" />
        <path
           d="m 318.66,268.13 c -0.62,0.472 -1.34,0.964 -2.203,1.503 -1.24,0.633 -2.494,1.248 -3.758,1.849 -0.598,0.604 -1.28,0.932 -1.28,0.932 -0.405,1.014 -0.616,2.332 -0.656,3.741 1.921,-0.879 3.825,-1.787 5.694,-2.745 0.95,-0.589 1.736,-1.131 2.397,-1.646 0.089,-1.436 0.029,-2.679 -0.194,-3.634 z"
           id="path592" />
        <path
           d="m 73.858,308.19 c -0.321,-0.158 -0.645,-0.316 -0.965,-0.48 0.006,1.518 0.022,2.815 0.146,3.855 0.345,0.176 0.697,0.34 1.043,0.516 -0.183,-1.073 -0.222,-2.379 -0.224,-3.891 z"
           id="path594" />
        <path
           d="m 311.74,310.44 c 0.943,-0.609 1.719,-1.166 2.365,-1.69 -0.188,-0.765 -0.588,-1.685 -1.251,-2.836 -0.346,0.243 -0.714,0.492 -1.114,0.75 -1.078,0.574 -2.166,1.131 -3.262,1.676 0.02,1.45 0.043,2.713 -0.023,3.791 1.104,-0.549 2.199,-1.114 3.285,-1.691 z"
           id="path596" />
      </g>
      <path
         d="m 54.255,255.43 c 0.406,-0.132 1.221,-1.148 1.493,-1.761 -1.302,-3.255 -9.925,-3.155 -13.769,-2.974 0.192,0.756 0.482,1.717 0.89,2.915 2.297,-0.078 8.628,-0.064 11.386,1.82 z"
         fill="#ffce71"
         id="path600" />
      <path
         d="m 43.444,250.64 c 0.186,0.882 0.559,1.931 0.954,2.944 2.866,0.006 7.577,0.287 9.856,1.843 0.017,-0.003 0.035,-0.021 0.053,-0.026 0.293,-0.22 0.559,-0.469 0.799,-0.744 0.268,-0.331 0.514,-0.706 0.642,-0.99 -1.155,-2.892 -8.073,-3.135 -12.304,-3.027 z"
         fill="#dab162"
         id="path602" />
      <path
         d="m 53.858,251.93 c -0.027,1.011 -0.316,1.978 -0.779,2.897 0.434,0.176 0.838,0.372 1.176,0.604 0.006,-0.003 0.014,-0.006 0.021,-0.012 0.027,-0.021 0.057,-0.044 0.084,-0.064 0.271,-0.208 0.521,-0.437 0.746,-0.694 0.268,-0.331 0.514,-0.706 0.642,-0.99 -0.296,-0.742 -0.976,-1.307 -1.89,-1.741 z"
         fill="#a7894b"
         id="path604" />
      <path
         d="m 47.416,247.14 c -4.934,0.021 -9.132,0.729 -11.093,2.203 -0.063,1.131 0.039,2.016 0.288,2.722 0.759,-1.09 2.508,-1.813 4.881,-2.206 -0.196,-1.046 -0.094,-1.714 0.485,-1.767 0.435,-0.038 2.42,-0.217 4.835,-0.267 0.191,-0.243 0.396,-0.468 0.604,-0.685 z"
         fill="#a7894b"
         id="path606" />
      <path
         d="m 72.563,253.67 c -5.33,-5.089 -20.894,-7.406 -30.192,-6.22 11.966,-0.501 15.515,1.553 16.198,3.398 5.812,1.239 11.221,3.29 13.994,5.936 0.436,0.419 0.827,0.812 1.173,1.187 l 1.837,-0.642 c -0.5,-0.985 -1.463,-2.183 -3.01,-3.659 z"
         fill="#dab162"
         id="path608" />
      <path
         d="m 71.897,253.12 c -0.666,0.665 -1.015,1.433 -1.201,2.235 0.697,0.457 1.342,0.929 1.867,1.43 0.436,0.419 0.827,0.812 1.173,1.187 l 1.837,-0.642 c -0.5,-0.984 -1.463,-2.183 -3.01,-3.659 -0.198,-0.191 -0.438,-0.37 -0.666,-0.551 z"
         fill="#a7894b"
         id="path610" />
      <path
         d="m 62.263,279.79 c -2.119,-0.571 -3.585,-0.653 -4.889,-0.082 -0.65,-1.468 -1.222,-3.015 -1.222,-3.015 0,0 2.607,-0.735 5.458,-0.082 z"
         fill="#dab162"
         id="path612" />
      <path
         d="m 58.356,276.36 c -0.969,0.059 -1.706,0.208 -2.025,0.281 0.126,0.521 0.267,1.052 0.42,1.582 0.186,0.46 0.398,0.973 0.623,1.479 0.512,-0.226 1.049,-0.346 1.639,-0.378 -0.268,-0.913 -0.489,-1.912 -0.657,-2.964 z"
         fill="#a7894b"
         id="path614" />
      <path
         d="m 327.8,255.43 c -0.416,-0.132 -1.246,-1.148 -1.523,-1.761 1.327,-3.255 10.125,-3.155 14.045,-2.974 -0.196,0.756 -0.492,1.717 -0.908,2.915 -2.345,-0.078 -8.802,-0.064 -11.614,1.82 z"
         fill="#ffce71"
         id="path616" />
      <path
         d="m 326.28,253.67 c 0.203,0.451 0.707,1.116 1.123,1.491 0.133,0.091 0.269,0.176 0.415,0.264 2.38,-1.582 7.327,-1.84 10.224,-1.837 0.346,-1.137 0.709,-2.145 0.968,-2.938 -4.295,-0.12 -11.534,0.088 -12.73,3.02 z"
         fill="#dab162"
         id="path618" />
      <path
         d="m 312.98,251.19 c -1.479,0.688 -2.74,1.456 -3.687,2.291 -1.603,1.415 -2.591,2.563 -3.105,3.507 0.083,0.091 0.17,0.179 0.282,0.255 0.465,0.308 1.047,0.606 1.687,0.885 0.44,-0.466 0.948,-0.961 1.556,-1.5 1.131,-0.999 2.707,-1.898 4.574,-2.687 -0.674,-0.879 -1.331,-1.658 -1.307,-2.751 z"
         fill="#a7894b"
         id="path620" />
      <path
         d="m 319.9,279.79 c 2.119,-0.571 3.585,-0.653 4.889,-0.082 0.65,-1.468 1.222,-3.015 1.222,-3.015 0,0 -2.607,-0.735 -5.458,-0.082 z"
         fill="#dab162"
         id="path622" />
      <path
         d="m 320.55,276.61 -0.652,3.179 c 1.113,-0.302 2.044,-0.46 2.867,-0.466 0.284,-0.908 0.49,-1.916 0.63,-2.974 -0.847,-0.026 -1.83,0.029 -2.845,0.261 z"
         fill="#a7894b"
         id="path624" />
      <path
         d="m 341.64,248.61 c 0.032,0.398 -0.123,1.014 -0.375,1.72 0.885,0.108 1.707,0.246 2.452,0.419 0.015,-0.029 0.028,-0.062 0.042,-0.091 0.805,-1.609 -1.461,-2.048 -2.119,-2.048 z"
         fill="#a7894b"
         id="path626" />
      <path
         d="m 326.48,253.32 c 0.039,0.369 0.139,0.756 0.307,1.157 0.344,0.454 0.758,0.87 1.014,0.952 1.199,-0.803 3.062,-1.263 4.988,-1.526 -0.362,-1.389 -1.266,-1.928 -1.152,-2.906 -2.35,0.36 -4.364,1.057 -5.157,2.323 z"
         fill="#a7894b"
         id="path628" />
      <g
         fill="#ffdb98"
         id="g634">
        <path
           d="m 68.247,274.38 c 0.469,0.24 0.947,0.463 1.418,0.694 0.031,-1.459 -0.112,-2.862 -0.451,-3.996 -0.25,-0.123 -0.505,-0.243 -0.757,-0.369 -1.283,-0.647 -3.606,-2.394 -4.764,-4.597 -0.409,1.025 -0.68,2.534 -0.767,4.324 1.509,1.982 3.984,3.265 5.321,3.944 z"
           id="path630" />
        <path
           d="m 71.422,272.15 c -0.364,-0.173 -0.726,-0.354 -1.089,-0.53 0.268,1.157 0.367,2.525 0.298,3.923 0.317,0.155 0.63,0.316 0.948,0.466 0.1,-1.351 0.049,-2.687 -0.157,-3.859 z"
           id="path632" />
      </g>
      <g
         fill="#4a1d00"
         id="g922">
        <path
           d="m 75.722,248.64 c -8.854,-7.799 -41.861,-10.315 -43.225,-1.538 -2.363,15.199 7.955,13.298 12.488,24.334 4.535,11.036 4.4,17.807 4.156,20.569 -0.393,4.491 5.861,1.723 9.855,-1.512 3.994,-3.231 1.187,-2.921 -1.943,-13.283 -3.133,-10.368 1.65,-20.42 2.86,-24.794 1.315,-4.758 -6.788,-6.129 -18.814,-5.279 -2.046,0.146 0.217,4.014 1.966,8.033 l 0.648,0.111 c -2.291,-6.249 -1.965,-7.362 -1.426,-7.362 10.33,0 16.604,1.166 15.434,5.323 -1.168,4.16 -4.773,12.902 -1.949,22.819 2.826,9.914 6.234,10.518 2.629,13.611 -3.605,3.091 -7.764,4.119 -7.801,1.494 -0.312,-7.09 -1.283,-14.73 -7.129,-24.091 -4.676,-7.482 -10.908,-7.556 -9.731,-19.588 0.696,-7.125 30.773,-6.22 39.425,1.321 8.65,7.538 2.775,12.516 1.925,19.617 l 0.612,0.554 c 0.871,-7.346 8.871,-12.537 0.02,-20.339 z"
           id="path906" />
        <path
           d="m 35.829,247.72 c -1.482,4.644 0.766,5.707 6.584,7.078 5.82,1.374 12.057,2.534 13.394,-2.438 l 0.634,0.12 c -0.968,5.599 -7.951,5.651 -14.303,4.084 -6.352,-1.567 -8.496,-4.43 -6.973,-9.431 z"
           id="path908" />
        <path
           d="m 63.251,282.39 c -2.511,-0.8 -3.607,-0.642 -4.456,-0.176 l -0.015,1.008 c 0.879,-0.322 3.139,-0.006 5.271,1.157 z"
           id="path910" />
        <path
           d="m 313.73,261.96 -0.675,0.437 c 4.131,1.154 0.042,3.079 -3.034,5.01 -20.488,11.669 -70.182,19.4 -118.06,19.913 -48.908,-0.524 -99.72,-8.581 -119.34,-20.675 -3.703,-2.552 -4.853,-4.585 -2.219,-5.068 l -0.448,-0.472 c -2.49,-0.328 -3.161,3.797 2.001,7.441 18.719,12.504 70.11,20.341 120.01,20.88 48.009,-0.519 97.846,-8.288 118.23,-20.013 3.11,-1.962 8.881,-5.346 3.539,-7.453 z"
           id="path912" />
        <path
           d="m 319.56,261.96 c -1.04,-1.734 -1.567,-1.506 -4.547,-2.147 -7.421,-1.6 -10.847,-3.439 -7.706,-6.311 0.15,-0.138 -0.936,0.015 -0.936,0.015 -2.682,2.862 -1.162,5.115 6.615,6.653 2.929,0.58 4.572,1.301 5.055,2.282 2.111,4.283 3.822,11.379 -2.273,23.883 -5.389,11.048 -2.734,14.669 -0.352,20.64 1.467,3.68 -0.629,5.871 -3.904,7.6 C 276.713,333 232.1,336.658 197.022,337.168 v 0.074 c -1.654,0 -3.352,-0.012 -5.062,-0.021 -1.712,0.01 -3.406,0.021 -5.063,0.021 v -0.074 c -36.901,-0.535 -84.362,-4.561 -119.84,-25.593 -1.614,-1.239 -2.326,-3.24 -1.326,-5.748 2.383,-5.971 5.352,-8.651 -0.036,-19.696 -6.095,-12.504 -3.466,-19.395 -1.354,-23.678 0.483,-0.981 2.126,-1.702 5.054,-2.282 7.778,-1.538 8.988,-3.645 6.305,-6.504 h -1.113 c 3.459,2.704 1.087,4.456 -6.795,5.54 -3.404,0.469 -5.18,0.847 -6.221,2.584 -1.041,1.734 -3.98,10.184 1.879,22.764 5.86,12.58 3.563,15.431 1.582,21.129 -1.262,3.63 -1.338,6.615 1.237,8.44 35.481,21.033 83.731,24.785 120.63,25.324 v 0.07 c 1.657,0 3.352,-0.006 5.063,-0.014 1.711,0.008 3.408,0.014 5.062,0.014 v -0.07 c 35.154,-0.512 79.886,-4.184 114.72,-22.71 6.471,-4.175 5.529,-6.023 3.774,-11.068 -1.98,-5.698 -3.167,-8.288 2.694,-20.868 5.86,-12.582 2.391,-21.107 1.349,-22.842 z"
           id="path914" />
        <path
           d="m 350.33,247.55 c -1.323,-8.065 -32.965,-7.31 -43.236,0.7 -11.709,9.132 -0.298,15.63 0.35,21.091 l 0.478,-0.671 c -0.632,-5.279 -8.919,-12.328 1.272,-19.866 10.191,-7.541 39.034,-8.273 39.73,-1.146 1.176,12.032 -5.338,11.93 -10.013,19.412 -5.847,9.36 -6.819,17.001 -7.13,24.091 -0.066,3.05 -4.059,1.641 -7.665,-1.45 -3.606,-3.091 -0.334,-3.741 2.493,-13.655 2.824,-9.917 -0.781,-18.659 -1.949,-22.819 -1.17,-4.157 5.104,-5.323 15.435,-5.323 0.539,0 0.864,1.113 -1.427,7.362 l 0.648,-0.111 c 1.75,-4.02 4.012,-7.872 1.967,-8.033 -10.965,-0.873 -20.461,0.838 -18.924,6.015 1.348,4.529 6.614,13.269 3.484,23.634 -3.131,10.368 -7.354,9.97 -3.359,13.963 3.996,3.993 10.749,4.699 10.316,1.356 -0.217,-2.452 0.061,-9.633 4.594,-20.669 4.536,-11.037 15.439,-8.62 12.936,-23.881 z"
           id="path916" />
        <path
           d="m 346.88,247.2 c 1.424,4.342 -0.659,6.231 -6.636,7.603 -5.979,1.374 -12.947,2.013 -14.086,-2.104 l -0.621,0.208 c 1.17,4.427 8.639,5.681 14.441,4.207 5.801,-1.477 9.145,-5.505 7.681,-10.181 z"
           id="path918" />
        <path
           d="m 318.74,282.52 c 2.662,-1.236 4.582,-0.422 5.477,-0.234 l -0.391,0.738 c -0.943,-0.105 -2.519,-0.63 -5.771,1.784 z"
           id="path920" />
      </g>
    </g>
  </g>
</svg>
