<svg width="200" height="200" viewBox="0 0 200 200" fill="none" xmlns="http://www.w3.org/2000/svg">
<mask id="path-1-inside-1_307_20313" fill="white">
<path fill-rule="evenodd" clip-rule="evenodd" d="M38.1398 0C17.0758 -2.2601e-06 -2.2601e-06 17.0758 0 38.1398V161.86C-2.54261e-06 182.924 17.0758 200 38.1398 200H161.86C182.924 200 200 182.924 200 161.86V38.1398C200 17.0758 182.924 1.69507e-06 161.86 6.21526e-06L38.1398 0ZM98.2597 46.7101C104.429 52.8792 107.925 60.7094 108.747 68.761C111.283 57.9919 118.383 52.2221 124.675 47.1086C126.381 45.7225 128.028 44.3845 129.508 43.0083C133.339 39.4458 136.409 32.7169 138.552 26.398C139.596 23.3209 140.374 20.4863 140.891 18.4202C141.149 17.3888 141.34 16.5531 141.467 15.9795C141.53 15.6929 141.577 15.472 141.607 15.3252C141.623 15.2518 141.634 15.1969 141.641 15.1617L141.648 15.1237L141.65 15.1159C141.861 14.0432 142.639 13.1701 143.681 12.8373C144.722 12.5046 145.862 12.7648 146.656 13.5165L146.82 13.6757C146.915 13.7686 147.047 13.9006 147.212 14.0698C147.541 14.4079 148.002 14.8953 148.549 15.5151C149.641 16.7514 151.094 18.5303 152.544 20.714C155.219 24.7406 158.079 30.4289 158.361 36.7785C158.849 37.2843 159.498 37.9859 160.233 38.8553C161.798 40.7065 163.795 43.3668 165.457 46.5599C168.533 52.4735 170.672 60.7211 166.023 68.8695C166.513 69.6214 167.101 70.5966 167.712 71.7689C169.216 74.6589 170.885 78.8098 171.484 83.8085C172.71 94.0498 169.357 107.139 152.937 119.671C152.916 119.687 152.895 119.703 152.874 119.718C152.843 119.74 152.812 119.762 152.781 119.783L173.22 142.32C174.433 143.658 175.275 145.297 175.388 147.099C175.67 151.627 175.232 160.874 168.234 167.871C161.289 174.817 151.937 175.49 147.268 175.326C145.363 175.259 143.612 174.395 142.2 173.113L119.781 152.783C119.746 152.835 119.709 152.887 119.67 152.938C107.138 169.359 94.0484 172.712 83.8072 171.485C78.8084 170.886 74.6575 169.218 71.7676 167.713C70.5952 167.103 69.62 166.514 68.8681 166.024C60.7197 170.673 52.4721 168.535 46.5586 165.458C43.3654 163.797 40.7052 161.8 38.8539 160.234C37.9845 159.499 37.283 158.85 36.7772 158.362C30.4275 158.081 24.7392 155.221 20.7126 152.546C18.529 151.095 16.7501 149.643 15.5137 148.551C14.894 148.003 14.4065 147.543 14.0684 147.213C13.8993 147.048 13.7672 146.916 13.6744 146.822L13.5152 146.657C12.7635 145.864 12.5033 144.723 12.836 143.682C13.1687 142.64 14.0418 141.862 15.1146 141.651L15.1223 141.65L15.1604 141.642C15.1956 141.635 15.2504 141.624 15.3238 141.609C15.4706 141.578 15.6915 141.531 15.9782 141.468C16.5518 141.342 17.3875 141.15 18.4189 140.892C20.485 140.375 23.3196 139.598 26.3966 138.554C32.7155 136.41 39.4444 133.34 43.007 129.509C44.3831 128.029 45.7208 126.383 47.1069 124.677C52.2203 118.385 57.9906 111.284 68.7596 108.748C60.708 107.926 52.8778 104.43 46.7087 98.2611C32.4732 84.0257 32.4732 60.9455 46.7087 46.71C60.9441 32.4746 84.0243 32.4746 98.2597 46.7101ZM148.794 115.386L113.791 76.7888C114.045 63.6891 120.477 58.3968 127.898 52.2923C129.761 50.7592 131.687 49.1744 133.593 47.4023C138.619 42.7292 142.071 34.703 144.234 28.3256C145.01 26.0393 145.645 23.886 146.144 22.0523C146.601 22.6602 147.074 23.3231 147.547 24.034C150.122 27.911 152.448 32.89 152.382 38.0082C152.334 41.7697 150.997 45.8141 147.082 49.8096C138.797 58.2675 133.935 65.5793 131.129 70.8528C129.727 73.488 128.841 75.6091 128.299 77.1036C128.028 77.8507 127.843 78.4408 127.722 78.8596C127.662 79.069 127.618 79.2355 127.587 79.3575L127.532 79.5878C127.177 81.2063 128.202 82.8058 129.82 83.1604C131.434 83.5139 133.029 82.4962 133.39 80.8859L133.39 80.8842L133.396 80.8603L133.404 80.8289C133.418 80.7699 133.446 80.6666 133.488 80.5209C133.572 80.2295 133.715 79.768 133.939 79.1501C134.387 77.9147 135.159 76.0519 136.426 73.671C138.958 68.9123 143.477 62.0638 151.369 54.0084C154.289 51.0272 156.173 47.897 157.245 44.7428C158.224 46.065 159.243 47.6169 160.134 49.3292C162.928 54.6998 164.222 61.073 160.021 67.1495L159.926 67.2655C159.871 67.3331 159.803 67.4159 159.724 67.5132C159.642 67.614 159.548 67.7304 159.442 67.8615C159.027 68.3765 158.435 69.1193 157.72 70.0379C156.292 71.873 154.367 74.4207 152.386 77.2641C150.41 80.1007 148.35 83.2707 146.669 86.3453C145.02 89.3602 143.599 92.5233 143.101 95.291C142.808 96.9217 143.893 98.4813 145.523 98.7745C147.154 99.0676 148.714 97.9833 149.007 96.3526C149.327 94.5686 150.361 92.0986 151.933 89.2242C153.472 86.4095 155.4 83.434 157.309 80.694C159.08 78.1515 160.812 75.8454 162.159 74.1045L162.204 74.1877C162.23 74.2373 162.257 74.2874 162.284 74.338C162.319 74.4044 162.354 74.4716 162.39 74.5397C163.659 76.9769 165.036 80.4267 165.526 84.522C166.478 92.4689 164.183 103.541 149.296 114.902C149.107 115.047 148.939 115.21 148.794 115.386ZM76.7875 113.792L115.385 148.796C115.208 148.941 115.045 149.108 114.901 149.298C103.539 164.184 92.4675 166.479 84.5207 165.528C80.4254 165.037 76.9756 163.66 74.5383 162.391C74.3892 162.314 74.2441 162.236 74.1031 162.16C75.844 160.813 78.1501 159.082 80.6926 157.31C83.4326 155.401 86.4081 153.473 89.2228 151.934C92.0973 150.362 94.5672 149.329 96.3512 149.008C97.9819 148.715 99.0663 147.155 98.7731 145.525C98.48 143.894 96.9204 142.81 95.2897 143.103C92.522 143.6 89.3588 145.021 86.3439 146.67C83.2693 148.351 80.0993 150.411 77.2627 152.387C74.4193 154.368 71.8717 156.293 70.0366 157.721C69.1179 158.436 68.3752 159.028 67.8601 159.444C67.6025 159.651 67.4017 159.815 67.2642 159.927L67.1481 160.023C61.0717 164.223 54.6984 162.929 49.3278 160.135C47.6155 159.244 46.0637 158.225 44.7415 157.247C47.8956 156.174 51.0258 154.29 54.007 151.37C62.0624 143.479 68.911 138.959 73.6696 136.427C76.0505 135.161 77.9134 134.389 79.1488 133.941C79.7667 133.716 80.2281 133.573 80.5195 133.489C80.6653 133.447 80.7685 133.42 80.8276 133.405C80.8571 133.397 80.8756 133.393 80.8828 133.391L80.8845 133.391C82.4949 133.03 83.5126 131.435 83.159 129.822C82.8044 128.203 81.205 127.178 79.5865 127.533L79.3562 127.588C79.2342 127.619 79.0676 127.663 78.8582 127.724C78.4394 127.844 77.8494 128.029 77.1023 128.3C75.6078 128.843 73.4866 129.728 70.8514 131.131C65.578 133.936 58.2661 138.798 49.8083 147.084C45.8127 150.998 41.7684 152.335 38.0068 152.384C32.8887 152.449 27.9097 150.124 24.0327 147.548C23.3218 147.076 22.6588 146.602 22.0509 146.145C23.8847 145.647 26.038 145.011 28.3243 144.236C34.7016 142.072 42.7278 138.62 47.401 133.595C49.1732 131.689 50.7578 129.763 52.2909 127.899C58.3955 120.479 63.6877 114.046 76.7875 113.792ZM91.1887 91.19C101.519 80.8599 101.519 64.1113 91.1887 53.7811C80.8585 43.4509 64.1099 43.4509 53.7797 53.7811C43.4496 64.1113 43.4496 80.8598 53.7797 91.19C64.1099 101.52 80.8585 101.52 91.1887 91.19ZM146.193 169.929C146.387 170.106 146.629 170.221 146.887 170.258C146.924 170.263 146.961 170.267 146.999 170.269C148.256 170.333 150.033 170.335 152.061 170.081C156.161 169.566 160.917 168.059 164.67 164.306C168.409 160.567 169.822 155.927 170.252 151.965C170.465 149.998 170.425 148.28 170.332 147.067C170.309 146.76 170.18 146.472 169.973 146.244L121.721 93.0377C116.746 87.5523 107.505 89.193 102.838 94.9417C101.675 96.3735 100.426 97.76 99.0927 99.0938C97.7589 100.428 96.3724 101.676 94.9404 102.839C89.1917 107.507 87.551 116.748 93.0364 121.722L146.193 169.929ZM58.0532 66.4128C59.0793 65.094 58.8421 63.1931 57.5232 62.167C56.2044 61.1409 54.3035 61.3782 53.2774 62.697C51.6483 64.7908 50.5378 67.2404 50.0367 69.8455C49.5356 72.4507 49.658 75.1374 50.394 77.6862C51.13 80.2349 52.4586 82.5734 54.2714 84.5104C56.0841 86.4473 58.3295 87.9279 60.8239 88.8309C62.3951 89.3998 64.1299 88.5872 64.6987 87.016C65.2676 85.4448 64.455 83.71 62.8838 83.1412C61.2871 82.5632 59.8498 81.6155 58.6895 80.3756C57.5292 79.1357 56.6787 77.6389 56.2076 76.0074C55.7365 74.3759 55.6581 72.6562 55.9789 70.9886C56.2997 69.321 57.0105 67.7531 58.0532 66.4128Z"/>
</mask>
<path fill-rule="evenodd" clip-rule="evenodd" d="M38.1398 0C17.0758 -2.2601e-06 -2.2601e-06 17.0758 0 38.1398V161.86C-2.54261e-06 182.924 17.0758 200 38.1398 200H161.86C182.924 200 200 182.924 200 161.86V38.1398C200 17.0758 182.924 1.69507e-06 161.86 6.21526e-06L38.1398 0ZM98.2597 46.7101C104.429 52.8792 107.925 60.7094 108.747 68.761C111.283 57.9919 118.383 52.2221 124.675 47.1086C126.381 45.7225 128.028 44.3845 129.508 43.0083C133.339 39.4458 136.409 32.7169 138.552 26.398C139.596 23.3209 140.374 20.4863 140.891 18.4202C141.149 17.3888 141.34 16.5531 141.467 15.9795C141.53 15.6929 141.577 15.472 141.607 15.3252C141.623 15.2518 141.634 15.1969 141.641 15.1617L141.648 15.1237L141.65 15.1159C141.861 14.0432 142.639 13.1701 143.681 12.8373C144.722 12.5046 145.862 12.7648 146.656 13.5165L146.82 13.6757C146.915 13.7686 147.047 13.9006 147.212 14.0698C147.541 14.4079 148.002 14.8953 148.549 15.5151C149.641 16.7514 151.094 18.5303 152.544 20.714C155.219 24.7406 158.079 30.4289 158.361 36.7785C158.849 37.2843 159.498 37.9859 160.233 38.8553C161.798 40.7065 163.795 43.3668 165.457 46.5599C168.533 52.4735 170.672 60.7211 166.023 68.8695C166.513 69.6214 167.101 70.5966 167.712 71.7689C169.216 74.6589 170.885 78.8098 171.484 83.8085C172.71 94.0498 169.357 107.139 152.937 119.671C152.916 119.687 152.895 119.703 152.874 119.718C152.843 119.74 152.812 119.762 152.781 119.783L173.22 142.32C174.433 143.658 175.275 145.297 175.388 147.099C175.67 151.627 175.232 160.874 168.234 167.871C161.289 174.817 151.937 175.49 147.268 175.326C145.363 175.259 143.612 174.395 142.2 173.113L119.781 152.783C119.746 152.835 119.709 152.887 119.67 152.938C107.138 169.359 94.0484 172.712 83.8072 171.485C78.8084 170.886 74.6575 169.218 71.7676 167.713C70.5952 167.103 69.62 166.514 68.8681 166.024C60.7197 170.673 52.4721 168.535 46.5586 165.458C43.3654 163.797 40.7052 161.8 38.8539 160.234C37.9845 159.499 37.283 158.85 36.7772 158.362C30.4275 158.081 24.7392 155.221 20.7126 152.546C18.529 151.095 16.7501 149.643 15.5137 148.551C14.894 148.003 14.4065 147.543 14.0684 147.213C13.8993 147.048 13.7672 146.916 13.6744 146.822L13.5152 146.657C12.7635 145.864 12.5033 144.723 12.836 143.682C13.1687 142.64 14.0418 141.862 15.1146 141.651L15.1223 141.65L15.1604 141.642C15.1956 141.635 15.2504 141.624 15.3238 141.609C15.4706 141.578 15.6915 141.531 15.9782 141.468C16.5518 141.342 17.3875 141.15 18.4189 140.892C20.485 140.375 23.3196 139.598 26.3966 138.554C32.7155 136.41 39.4444 133.34 43.007 129.509C44.3831 128.029 45.7208 126.383 47.1069 124.677C52.2203 118.385 57.9906 111.284 68.7596 108.748C60.708 107.926 52.8778 104.43 46.7087 98.2611C32.4732 84.0257 32.4732 60.9455 46.7087 46.71C60.9441 32.4746 84.0243 32.4746 98.2597 46.7101ZM148.794 115.386L113.791 76.7888C114.045 63.6891 120.477 58.3968 127.898 52.2923C129.761 50.7592 131.687 49.1744 133.593 47.4023C138.619 42.7292 142.071 34.703 144.234 28.3256C145.01 26.0393 145.645 23.886 146.144 22.0523C146.601 22.6602 147.074 23.3231 147.547 24.034C150.122 27.911 152.448 32.89 152.382 38.0082C152.334 41.7697 150.997 45.8141 147.082 49.8096C138.797 58.2675 133.935 65.5793 131.129 70.8528C129.727 73.488 128.841 75.6091 128.299 77.1036C128.028 77.8507 127.843 78.4408 127.722 78.8596C127.662 79.069 127.618 79.2355 127.587 79.3575L127.532 79.5878C127.177 81.2063 128.202 82.8058 129.82 83.1604C131.434 83.5139 133.029 82.4962 133.39 80.8859L133.39 80.8842L133.396 80.8603L133.404 80.8289C133.418 80.7699 133.446 80.6666 133.488 80.5209C133.572 80.2295 133.715 79.768 133.939 79.1501C134.387 77.9147 135.159 76.0519 136.426 73.671C138.958 68.9123 143.477 62.0638 151.369 54.0084C154.289 51.0272 156.173 47.897 157.245 44.7428C158.224 46.065 159.243 47.6169 160.134 49.3292C162.928 54.6998 164.222 61.073 160.021 67.1495L159.926 67.2655C159.871 67.3331 159.803 67.4159 159.724 67.5132C159.642 67.614 159.548 67.7304 159.442 67.8615C159.027 68.3765 158.435 69.1193 157.72 70.0379C156.292 71.873 154.367 74.4207 152.386 77.2641C150.41 80.1007 148.35 83.2707 146.669 86.3453C145.02 89.3602 143.599 92.5233 143.101 95.291C142.808 96.9217 143.893 98.4813 145.523 98.7745C147.154 99.0676 148.714 97.9833 149.007 96.3526C149.327 94.5686 150.361 92.0986 151.933 89.2242C153.472 86.4095 155.4 83.434 157.309 80.694C159.08 78.1515 160.812 75.8454 162.159 74.1045L162.204 74.1877C162.23 74.2373 162.257 74.2874 162.284 74.338C162.319 74.4044 162.354 74.4716 162.39 74.5397C163.659 76.9769 165.036 80.4267 165.526 84.522C166.478 92.4689 164.183 103.541 149.296 114.902C149.107 115.047 148.939 115.21 148.794 115.386ZM76.7875 113.792L115.385 148.796C115.208 148.941 115.045 149.108 114.901 149.298C103.539 164.184 92.4675 166.479 84.5207 165.528C80.4254 165.037 76.9756 163.66 74.5383 162.391C74.3892 162.314 74.2441 162.236 74.1031 162.16C75.844 160.813 78.1501 159.082 80.6926 157.31C83.4326 155.401 86.4081 153.473 89.2228 151.934C92.0973 150.362 94.5672 149.329 96.3512 149.008C97.9819 148.715 99.0663 147.155 98.7731 145.525C98.48 143.894 96.9204 142.81 95.2897 143.103C92.522 143.6 89.3588 145.021 86.3439 146.67C83.2693 148.351 80.0993 150.411 77.2627 152.387C74.4193 154.368 71.8717 156.293 70.0366 157.721C69.1179 158.436 68.3752 159.028 67.8601 159.444C67.6025 159.651 67.4017 159.815 67.2642 159.927L67.1481 160.023C61.0717 164.223 54.6984 162.929 49.3278 160.135C47.6155 159.244 46.0637 158.225 44.7415 157.247C47.8956 156.174 51.0258 154.29 54.007 151.37C62.0624 143.479 68.911 138.959 73.6696 136.427C76.0505 135.161 77.9134 134.389 79.1488 133.941C79.7667 133.716 80.2281 133.573 80.5195 133.489C80.6653 133.447 80.7685 133.42 80.8276 133.405C80.8571 133.397 80.8756 133.393 80.8828 133.391L80.8845 133.391C82.4949 133.03 83.5126 131.435 83.159 129.822C82.8044 128.203 81.205 127.178 79.5865 127.533L79.3562 127.588C79.2342 127.619 79.0676 127.663 78.8582 127.724C78.4394 127.844 77.8494 128.029 77.1023 128.3C75.6078 128.843 73.4866 129.728 70.8514 131.131C65.578 133.936 58.2661 138.798 49.8083 147.084C45.8127 150.998 41.7684 152.335 38.0068 152.384C32.8887 152.449 27.9097 150.124 24.0327 147.548C23.3218 147.076 22.6588 146.602 22.0509 146.145C23.8847 145.647 26.038 145.011 28.3243 144.236C34.7016 142.072 42.7278 138.62 47.401 133.595C49.1732 131.689 50.7578 129.763 52.2909 127.899C58.3955 120.479 63.6877 114.046 76.7875 113.792ZM91.1887 91.19C101.519 80.8599 101.519 64.1113 91.1887 53.7811C80.8585 43.4509 64.1099 43.4509 53.7797 53.7811C43.4496 64.1113 43.4496 80.8598 53.7797 91.19C64.1099 101.52 80.8585 101.52 91.1887 91.19ZM146.193 169.929C146.387 170.106 146.629 170.221 146.887 170.258C146.924 170.263 146.961 170.267 146.999 170.269C148.256 170.333 150.033 170.335 152.061 170.081C156.161 169.566 160.917 168.059 164.67 164.306C168.409 160.567 169.822 155.927 170.252 151.965C170.465 149.998 170.425 148.28 170.332 147.067C170.309 146.76 170.18 146.472 169.973 146.244L121.721 93.0377C116.746 87.5523 107.505 89.193 102.838 94.9417C101.675 96.3735 100.426 97.76 99.0927 99.0938C97.7589 100.428 96.3724 101.676 94.9404 102.839C89.1917 107.507 87.551 116.748 93.0364 121.722L146.193 169.929ZM58.0532 66.4128C59.0793 65.094 58.8421 63.1931 57.5232 62.167C56.2044 61.1409 54.3035 61.3782 53.2774 62.697C51.6483 64.7908 50.5378 67.2404 50.0367 69.8455C49.5356 72.4507 49.658 75.1374 50.394 77.6862C51.13 80.2349 52.4586 82.5734 54.2714 84.5104C56.0841 86.4473 58.3295 87.9279 60.8239 88.8309C62.3951 89.3998 64.1299 88.5872 64.6987 87.016C65.2676 85.4448 64.455 83.71 62.8838 83.1412C61.2871 82.5632 59.8498 81.6155 58.6895 80.3756C57.5292 79.1357 56.6787 77.6389 56.2076 76.0074C55.7365 74.3759 55.6581 72.6562 55.9789 70.9886C56.2997 69.321 57.0105 67.7531 58.0532 66.4128Z" fill="white" stroke="white" stroke-width="0.978913" mask="url(#path-1-inside-1_307_20313)"/>
</svg>
